{
.appVersion = "1265";
copyright = "Copyright 2014-2017 Indian Type Foundry (info@indiantypefoundry.com) with Reserved Font Name 'Poppins'. Copyright 2019 Google LLC.";
customParameters = (
{
name = Axes;
value = (
{
Name = Weight;
Tag = wght;
},
{
Name = Italic;
Tag = ital;
}
);
},
{
name = license;
value = "This Font Software is licensed under the SIL Open Font License, Version 1.1. This license is available with a FAQ at: http://scripts.sil.org/OFL";
},
{
name = licenseURL;
value = "http://scripts.sil.org/OFL";
},
{
name = unicodeRanges;
value = (
0,
1,
2,
3,
5,
31,
32,
33,
35,
36,
38,
45,
60,
62
);
},
{
name = vendorID;
value = GOOG;
},
{
name = fsType;
value = (
);
}
);
date = "2019-05-20 07:53:48 +0000";
designer = "Colophon Foundry, Jonny Pinhorn";
designerURL = "https://www.indiantypefoundry.com";
familyName = "DM Sans";
featurePrefixes = (
{
automatic = 1;
code = "languagesystem DFLT dflt;\012languagesystem latn dflt;\012languagesystem latn ROM;\012languagesystem latn MOL;\012languagesystem latn CAT;\012";
name = Languagesystems;
}
);
features = (
{
automatic = 1;
code = "feature locl;\012feature sups;\012feature frac;\012feature ordn;\012feature salt;\012feature ss01;\012feature ss02;\012feature ss03;\012feature ss04;\012";
name = aalt;
},
{
automatic = 1;
code = "lookup ccmp_Other_1 {\012	@CombiningTopAccents = [acutecomb brevecomb caroncomb circumflexcomb dieresiscomb dotaccentcomb gravecomb hungarumlautcomb macroncomb ringcomb tildecomb];\012	@CombiningNonTopAccents = [cedillacomb ogonekcomb];\012	sub [i]' @CombiningTopAccents by [idotless];\012	sub [i]' @CombiningNonTopAccents @CombiningTopAccents by [idotless];\012} ccmp_Other_1;\012";
name = ccmp;
},
{
automatic = 1;

glyphs = (
{
glyphname = A;
lastChange = "2019-05-10 10:24:02 +0000";
layers = (
{
anchors = (
{
name = ogonek;
position = "{576, 0}";
},
{
name = top;
position = "{407, 700}";
}
);
background = {
paths = (
{
closed = 1;
nodes = (
"62 0 LINE",
"410 653 LINE",
"381 657 LINE",
"502 0 LINE",
"576 0 LINE",
"442 700 LINE",
"371 700 LINE",
"-12 0 LINE"
);
},
{
closed = 1;
nodes = (
"507 166 LINE",
"497 222 LINE",
"142 222 LINE",
"114 166 LINE"
);
}
);
};
color = -1;
layerId = "973C19EE-3504-4BDF-BF6D-4817D3AD4E7D";
paths = (
{
closed = 1;
nodes = (
"64 0 LINE",
"412 653 LINE",
"383 657 LINE",
"504 0 LINE",
"576 0 LINE",
"442 700 LINE",
"371 700 LINE",
"-12 0 LINE"
);
},
{
closed = 1;
nodes = (
"509 186 LINE",
"499 242 LINE",
"144 242 LINE",
"116 186 LINE"
);
}
);
width = 652;
},
{
anchors = (
{
name = ogonek;
position = "{678, 0}";
},
{
name = top;
position = "{446, 700}";
}
);
background = {
paths = (
{
closed = 1;
nodes = (
"151 0 LINE",
"437 554 LINE",
"409 558 LINE",
"497 0 LINE",
"678 0 LINE",
"549 700 LINE",
"348 700 LINE",
"-28 0 LINE"
);
},
{
closed = 1;
nodes = (
"574 124 LINE",
"554 254 LINE",
"170 254 LINE",
"103 124 LINE"
);
}
);
};
color = -1;
layerId = "66953C5E-8AEB-4AF5-804F-512B0A9BA4E6";
paths = (
{
closed = 1;
nodes = (
"151 0 LINE",
"437 554 LINE",
"409 558 LINE",
"497 0 LINE",
"678 0 LINE",
"549 700 LINE",
"348 700 LINE",
"-28 0 LINE"
);
},
{
closed = 1;
nodes = (
"574 144 LINE",
"554 274 LINE",
"170 274 LINE",
"103 144 LINE"
);
}
);
width = 738;
}
);
leftKerningGroup = A;
rightKerningGroup = A;
unicode = 0041;
userData = {
com.schriftgestaltung.Glyphs.ColorIndex = 4;
com.typesupply.AccentFactory.yCoordinates = {
bottom = {
name = origin;
type = glyphMetric;
};
top = {
name = capHeight;
type = fontInfo;
};
};
};
},
{
glyphname = Aogonek;
lastChange = "2019-05-10 10:24:02 +0000";
layers = (
{
anchors = (
{
name = _ogonek;
position = "{570, 0}";
}
);
color = -1;
components = (
{
alignment = -1;
name = A;
}
);
layerId = "973C19EE-3504-4BDF-BF6D-4817D3AD4E7D";
paths = (
{
closed = 1;
nodes = (
"491 -201 OFFCURVE",
"517 -196 OFFCURVE",
"541 -188 CURVE",
"550 -139 LINE",
"526 -148 OFFCURVE",
"502 -153 OFFCURVE",
"482 -153 CURVE SMOOTH",
"446 -153 OFFCURVE",
"424 -135 OFFCURVE",
"430 -102 CURVE SMOOTH",
"435 -76 OFFCURVE",
"454 -52 OFFCURVE",
"506 -29 CURVE SMOOTH",
"570 0 LINE",
"557 44 LINE",
"498 19 LINE SMOOTH",
"413 -16 OFFCURVE",
"377 -64 OFFCURVE",
"369 -109 CURVE SMOOTH",
"358 -176 OFFCURVE",
"409 -201 OFFCURVE",
"466 -201 CURVE SMOOTH"
);
}
);
width = 652;
},
{
anchors = (
{
name = _ogonek;
position = "{671, 0}";
}
);
color = -1;
components = (
{
alignment = -1;
name = A;
}
);
layerId = "66953C5E-8AEB-4AF5-804F-512B0A9BA4E6";
paths = (
{
closed = 1;
nodes = (
"578 -217 OFFCURVE",
"612 -211 OFFCURVE",
"643 -202 CURVE",
"659 -106 LINE",
"629 -116 OFFCURVE",
"602 -121 OFFCURVE",
"582 -121 CURVE SMOOTH",
"553 -121 OFFCURVE",
"539 -108 OFFCURVE",
"543 -86 CURVE SMOOTH",
"547 -66 OFFCURVE",
"563 -46 OFFCURVE",
"621 -22 CURVE SMOOTH",
"671 0 LINE",
"648 87 LINE",
"605 70 LINE SMOOTH",
"469 17 OFFCURVE",
"425 -38 OFFCURVE",
"414 -99 CURVE SMOOTH",
"400 -180 OFFCURVE",
"459 -217 OFFCURVE",
"541 -217 CURVE SMOOTH"
);
}
);
width = 738;
}
);
leftKerningGroup = A;
leftMetricsKey = A;
rightKerningGroup = A;
rightMetricsKey = A;
unicode = 0104;
userData = {
com.schriftgestaltung.Glyphs.ColorIndex = 8;
com.typesupply.AccentFactory.compileType = manual;
};
},
{
glyphname = AE;
lastChange = "2019-05-10 10:24:02 +0000";
layers = (
{
anchors = (
{
name = bottom;
position = "{424, 0}";
},
{
name = top;
position = "{648, 700}";
}
);
color = -1;
layerId = "973C19EE-3504-4BDF-BF6D-4817D3AD4E7D";
paths = (
{
closed = 1;
nodes = (
"65 0 LINE",
"549 640 LINE",
"435 0 LINE",
"800 0 LINE",
"810 56 LINE",
"516 56 LINE",
"563 324 LINE",
"828 324 LINE",
"837 380 LINE",
"572 380 LINE",
"619 644 LINE",
"914 644 LINE",
"924 700 LINE",
"518 700 LINE",
"-12 0 LINE"
);
},
{
closed = 1;
nodes = (
"496 166 LINE",
"506 222 LINE",
"191 222 LINE",
"152 166 LINE"
);
}
);
width = 908;
},
{
anchors = (
{
name = bottom;
position = "{451, 0}";
},
{
name = top;
position = "{675, 700}";
}
);
color = -1;
layerId = "66953C5E-8AEB-4AF5-804F-512B0A9BA4E6";
paths = (
{
closed = 1;
nodes = (
"158 0 LINE",
"549 573 LINE",
"448 0 LINE",
"872 0 LINE",
"896 135 LINE",
"643 135 LINE",
"671 293 LINE",
"895 293 LINE",
"917 423 LINE",
"693 423 LINE",
"719 565 LINE",
"972 565 LINE",
"996 700 LINE",
"456 700 LINE",
"-28 0 LINE"
);
},
{
closed = 1;
nodes = (
"550 118 LINE",
"574 248 LINE",
"237 248 LINE",
"140 118 LINE"
);
}
);
width = 972;
}
);
leftKerningGroup = AE;
leftMetricsKey = A;
rightKerningGroup = E;
rightMetricsKey = E;
unicode = 00C6;
userData = {
com.schriftgestaltung.Glyphs.ColorIndex = 4;
com.typemytype.robofont.layerData = {
b = {
anchors = (
);
components = (
);
contours = (
{
points = (
{
segmentType = line;
smooth = 0;
x = 138;
y = 183;
},
{
segmentType = line;
smooth = 0;
x = 449;
y = 183;
},
{
segmentType = line;
smooth = 0;
x = 449;
y = 202;
},
{
segmentType = line;
smooth = 0;
x = 149;
y = 202;
}
);
},
{
points = (
{
segmentType = line;
smooth = 0;
x = 757;
y = 663;
},
{
segmentType = line;
smooth = 0;
x = 757;
y = 683;
},
{
segmentType = line;
smooth = 0;
x = 442;
y = 683;
},
{
segmentType = line;
smooth = 0;
x = 11;
y = 0;
},
{
segmentType = line;
smooth = 0;
x = 32;
y = 0;
},
{
segmentType = line;
smooth = 0;
x = 443;
y = 658;
},
{
segmentType = line;
smooth = 0;
x = 443;
y = 0;
},
{
segmentType = line;
smooth = 0;
x = 757;
y = 0;
},
{
segmentType = line;
smooth = 0;
x = 757;
y = 19;
},
{
segmentType = line;
smooth = 0;
x = 463;
y = 19;
},
{
segmentType = line;
smooth = 0;
x = 463;
y = 332;
},
{
segmentType = line;
smooth = 0;
x = 727;
y = 332;
},
{
segmentType = line;
smooth = 0;
x = 727;
y = 351;
},
{
segmentType = line;
smooth = 0;
x = 463;
y = 351;
},
{
segmentType = line;
smooth = 0;
x = 463;
y = 663;
}
);
}
);
lib = {
};
name = AE;
unicodes = (
);
width = 837;
};
};
com.typesupply.AccentFactory.yCoordinates = {
bottom = {
name = origin;
type = glyphMetric;
};
top = {
name = capHeight;
type = fontInfo;
};
};
};
},
{
glyphname = B;
lastChange = "2019-05-10 10:24:02 +0000";
layers = (
{
color = -1;
layerId = "973C19EE-3504-4BDF-BF6D-4817D3AD4E7D";
paths = (
{
closed = 1;
nodes = (
"275 0 LINE SMOOTH",
"419 0 OFFCURVE",
"537 91 OFFCURVE",
"537 222 CURVE SMOOTH",
"537 304 OFFCURVE",
"478 362 OFFCURVE",
"399 364 CURVE",
"385 354 LINE",
"498 366 OFFCURVE",
"580 440 OFFCURVE",
"580 552 CURVE SMOOTH",
"580 634 OFFCURVE",
"521 700 OFFCURVE",
"392 700 CURVE SMOOTH",
"156 700 LINE",
"33 0 LINE"
);
},
{
closed = 1;
nodes = (
"161 332 LINE",
"325 332 LINE SMOOTH",
"414 332 OFFCURVE",
"468 290 OFFCURVE",
"468 222 CURVE SMOOTH",
"468 123 OFFCURVE",
"391 57 OFFCURVE",
"280 57 CURVE SMOOTH",
"113 57 LINE"
);
},
{
closed = 1;
nodes = (
"216 644 LINE",
"376 644 LINE SMOOTH",
"465 644 OFFCURVE",
"507 604 OFFCURVE",
"507 542 CURVE SMOOTH",
"507 450 OFFCURVE",
"437 389 OFFCURVE",
"335 389 CURVE SMOOTH",
"172 389 LINE"
);
}
);
width = 600;
},
{
color = -1;
layerId = "66953C5E-8AEB-4AF5-804F-512B0A9BA4E6";
paths = (
{
closed = 1;
nodes = (
"345 0 LINE SMOOTH",
"495 0 OFFCURVE",
"615 85 OFFCURVE",
"615 222 CURVE SMOOTH",
"615 299 OFFCURVE",
"563 360 OFFCURVE",
"477 364 CURVE",
"458 352 LINE",
"571 359 OFFCURVE",
"657 442 OFFCURVE",
"657 545 CURVE SMOOTH",
"657 645 OFFCURVE",
"585 700 OFFCURVE",
"458 700 CURVE SMOOTH",
"142 700 LINE",
"18 0 LINE"
);
},
{
closed = 1;
nodes = (
"241 294 LINE",
"365 294 LINE SMOOTH",
"415 294 OFFCURVE",
"444 271 OFFCURVE",
"444 232 CURVE SMOOTH",
"444 175 OFFCURVE",
"406 136 OFFCURVE",
"339 136 CURVE SMOOTH",
"213 136 LINE"
);
},
{
closed = 1;
nodes = (
"289 565 LINE",
"401 566 LINE SMOOTH",
"450 567 OFFCURVE",
"476 546 OFFCURVE",
"476 507 CURVE SMOOTH",
"476 451 OFFCURVE",
"438 417 OFFCURVE",
"374 417 CURVE SMOOTH",
"263 417 LINE"
);
}
);
width = 666;
}
);
leftKerningGroup = H;
leftMetricsKey = H;
unicode = 0042;
userData = {
com.schriftgestaltung.Glyphs.ColorIndex = 4;
com.typesupply.AccentFactory.yCoordinates = {
bottom = {
name = origin;
type = glyphMetric;
};
top = {
name = capHeight;
type = fontInfo;
};
};
};
},
{
glyphname = C;
lastChange = "2019-05-10 10:24:02 +0000";
layers = (
{
anchors = (
{
name = bottom;
position = "{334, 0}";
},
{
name = top;
position = "{463, 700}";
}
);
background = {
paths = (
{
closed = 1;
nodes = (
"484 -12 OFFCURVE",
"614 66 OFFCURVE",
"677 198 CURVE",
"597 198 LINE",
"550 107 OFFCURVE",
"459 49 OFFCURVE",
"349 49 CURVE SMOOTH",
"224 49 OFFCURVE",
"136 146 OFFCURVE",
"136 290 CURVE SMOOTH",
"136 495 OFFCURVE",
"280 651 OFFCURVE",
"455 651 CURVE SMOOTH",
"564 651 OFFCURVE",
"636 593 OFFCURVE",
"651 500 CURVE",
"731 500 LINE",
"714 634 OFFCURVE",
"612 712 OFFCURVE",
"466 712 CURVE SMOOTH",
"247 712 OFFCURVE",
"63 522 OFFCURVE",
"63 284 CURVE SMOOTH",
"63 112 OFFCURVE",
"174 -12 OFFCURVE",
"338 -12 CURVE SMOOTH"
);
}
);
};
color = -1;
layerId = "973C19EE-3504-4BDF-BF6D-4817D3AD4E7D";
paths = (
{
closed = 1;
nodes = (
"495 -12 OFFCURVE",
"608 66 OFFCURVE",
"660 198 CURVE",
"580 198 LINE",
"544 107 OFFCURVE",
"465 49 OFFCURVE",
"347 49 CURVE SMOOTH",
"213 49 OFFCURVE",
"133 132 OFFCURVE",
"133 272 CURVE SMOOTH",
"133 487 OFFCURVE",
"271 651 OFFCURVE",
"453 651 CURVE SMOOTH",
"571 651 OFFCURVE",
"630 593 OFFCURVE",
"633 500 CURVE",
"713 500 LINE",
"708 634 OFFCURVE",
"619 712 OFFCURVE",
"462 712 CURVE SMOOTH",
"234 712 OFFCURVE",
"60 519 OFFCURVE",
"60 268 CURVE SMOOTH",
"60 100 OFFCURVE",
"162 -12 OFFCURVE",
"338 -12 CURVE SMOOTH"
);
}
);
width = 717;
},
{
anchors = (
{
name = bottom;
position = "{342, 0}";
},
{
name = top;
position = "{469, 700}";
}
);
background = {
paths = (
{
closed = 1;
nodes = (
"529 -12 OFFCURVE",
"670 81 OFFCURVE",
"727 233 CURVE",
"539 233 LINE",
"509 173 OFFCURVE",
"454 143 OFFCURVE",
"385 143 CURVE SMOOTH",
"298 143 OFFCURVE",
"244 207 OFFCURVE",
"244 302 CURVE SMOOTH",
"244 447 OFFCURVE",
"339 556 OFFCURVE",
"456 556 CURVE SMOOTH",
"525 556 OFFCURVE",
"571 520 OFFCURVE",
"578 454 CURVE",
"766 454 LINE",
"764 622 OFFCURVE",
"643 712 OFFCURVE",
"477 712 CURVE SMOOTH",
"247 712 OFFCURVE",
"68 521 OFFCURVE",
"68 279 CURVE SMOOTH",
"68 108 OFFCURVE",
"181 -12 OFFCURVE",
"359 -12 CURVE SMOOTH"
);
}
);
};
color = -1;
layerId = "66953C5E-8AEB-4AF5-804F-512B0A9BA4E6";
paths = (
{
closed = 1;
nodes = (
"516 -12 OFFCURVE",
"656 77 OFFCURVE",
"710 233 CURVE",
"522 233 LINE",
"497 173 OFFCURVE",
"447 143 OFFCURVE",
"373 143 CURVE SMOOTH",
"282 143 OFFCURVE",
"231 197 OFFCURVE",
"231 291 CURVE SMOOTH",
"231 443 OFFCURVE",
"320 556 OFFCURVE",
"442 556 CURVE SMOOTH",
"516 556 OFFCURVE",
"559 520 OFFCURVE",
"561 454 CURVE",
"749 454 LINE",
"752 618 OFFCURVE",
"646 712 OFFCURVE",
"470 712 CURVE SMOOTH",
"234 712 OFFCURVE",
"55 522 OFFCURVE",
"55 269 CURVE SMOOTH",
"55 102 OFFCURVE",
"158 -12 OFFCURVE",
"344 -12 CURVE SMOOTH"
);
}
);
width = 756;
}
);
leftKerningGroup = O;
leftMetricsKey = O;
rightKerningGroup = C;
rightMetricsKey = O;
unicode = 0043;
userData = {
com.schriftgestaltung.Glyphs.ColorIndex = 4;
com.typesupply.AccentFactory.yCoordinates = {
bottom = {
name = origin;
type = glyphMetric;
};
top = {
name = capHeight;
type = fontInfo;
};
};
};
},
{
glyphname = D;
lastChange = "2019-05-10 10:24:02 +0000";
layers = (
{
anchors = (
{
name = top;
position = "{403, 700}";
}
);
background = {
paths = (
{
closed = 1;
nodes = (
"197 0 LINE SMOOTH",
"456 0 OFFCURVE",
"636 170 OFFCURVE",
"636 424 CURVE SMOOTH",
"636 595 OFFCURVE",
"523 700 OFFCURVE",
"320 700 CURVE SMOOTH",
"113 700 LINE",
"-10 0 LINE"
);
},
{
closed = 1;
nodes = (
"173 642 LINE",
"310 642 LINE SMOOTH",
"480 642 OFFCURVE",
"563 559 OFFCURVE",
"563 421 CURVE SMOOTH",
"563 202 OFFCURVE",
"422 58 OFFCURVE",
"207 58 CURVE SMOOTH",
"70 58 LINE"
);
}
);
};
color = -1;
layerId = "973C19EE-3504-4BDF-BF6D-4817D3AD4E7D";
paths = (
{
closed = 1;
nodes = (
"240 0 LINE SMOOTH",
"504 0 OFFCURVE",
"670 170 OFFCURVE",
"670 418 CURVE SMOOTH",
"670 601 OFFCURVE",
"574 700 OFFCURVE",
"363 700 CURVE SMOOTH",
"156 700 LINE",
"33 0 LINE"
);
},
{
closed = 1;
nodes = (
"216 642 LINE",
"353 642 LINE SMOOTH",
"528 642 OFFCURVE",
"598 562 OFFCURVE",
"598 413 CURVE SMOOTH",
"598 197 OFFCURVE",
"469 58 OFFCURVE",
"250 58 CURVE SMOOTH",
"113 58 LINE"
);
}
);
width = 696;
},
{
anchors = (
{
name = top;
position = "{377, 700}";
}
);
background = {
paths = (
{
closed = 1;
nodes = (
"239 0 LINE SMOOTH",
"486 0 OFFCURVE",
"675 174 OFFCURVE",
"675 412 CURVE SMOOTH",
"675 580 OFFCURVE",
"559 700 OFFCURVE",
"362 700 CURVE SMOOTH",
"99 700 LINE",
"-24 0 LINE"
);
},
{
closed = 1;
nodes = (
"245 554 LINE",
"326 554 LINE SMOOTH",
"437 554 OFFCURVE",
"499 497 OFFCURVE",
"499 399 CURVE SMOOTH",
"499 251 OFFCURVE",
"399 148 OFFCURVE",
"254 148 CURVE SMOOTH",
"173 148 LINE"
);
}
);
};
color = -1;
layerId = "66953C5E-8AEB-4AF5-804F-512B0A9BA4E6";
paths = (
{
closed = 1;
nodes = (
"282 0 LINE SMOOTH",
"537 0 OFFCURVE",
"710 170 OFFCURVE",
"710 413 CURVE SMOOTH",
"710 582 OFFCURVE",
"614 700 OFFCURVE",
"405 700 CURVE SMOOTH",
"142 700 LINE",
"19 0 LINE"
);
},
{
closed = 1;
nodes = (
"288 554 LINE",
"369 554 LINE SMOOTH",
"477 554 OFFCURVE",
"534 505 OFFCURVE",
"534 398 CURVE SMOOTH",
"534 244 OFFCURVE",
"450 148 OFFCURVE",
"297 148 CURVE SMOOTH",
"216 148 LINE"
);
}
);
width = 731;
}
);
leftKerningGroup = H;
leftMetricsKey = H;
rightKerningGroup = O;
rightMetricsKey = O;
unicode = 0044;
userData = {
com.schriftgestaltung.Glyphs.ColorIndex = 4;
com.typemytype.robofont.guides = (
{
angle = 0;
isGlobal = 0;
magnetic = 5;
x = 122;
y = 684;
}
);
com.typesupply.AccentFactory.yCoordinates = {
bottom = {
name = origin;
type = glyphMetric;
};
top = {
name = capHeight;
type = fontInfo;
};
};
};
},
{
glyphname = Eth;
lastChange = "2019-05-10 10:24:02 +0000";
layers = (
{
color = -1;
components = (
{
name = D;
transform = "{1, 0, 0, 1, 18, 0}";
}
);
layerId = "973C19EE-3504-4BDF-BF6D-4817D3AD4E7D";
paths = (
{
closed = 1;
nodes = (
"385 316 LINE",
"396 381 LINE",
"27 381 LINE",
"16 316 LINE"
);
}
);
width = 714;
},
{
color = -1;
components = (
{
name = D;
transform = "{1, 0, 0, 1, -2, 0}";
}
);
layerId = "66953C5E-8AEB-4AF5-804F-512B0A9BA4E6";
paths = (
{
closed = 1;
nodes = (
"390 280 LINE",
"415 422 LINE",
"29 422 LINE",
"3 280 LINE"
);
}
);
width = 729;
}
);
leftKerningGroup = Eth;
rightKerningGroup = O;
rightMetricsKey = O;
unicode = 00D0;
userData = {
com.schriftgestaltung.Glyphs.ColorIndex = 4;
};
},
{
glyphname = E;
lastChange = "2019-05-10 10:24:02 +0000";
layers = (
{
anchors = (
{
name = bottom;
position = "{231, 0}";
},
{
name = ogonek;
position = "{428, 0}";
},
{
name = top;
position = "{353, 700}";
}
);
color = -1;
layerId = "973C19EE-3504-4BDF-BF6D-4817D3AD4E7D";
paths = (
{
closed = 1;
nodes = (
"428 0 LINE",
"438 56 LINE",
"113 56 LINE",
"160 324 LINE",
"456 324 LINE",
"465 380 LINE",
"170 380 LINE",
"216 644 LINE",
"541 644 LINE",
"552 700 LINE",
"156 700 LINE",
"33 0 LINE"
);
}
);
width = 536;
},
{
anchors = (
{
name = bottom;
position = "{259, 0}";
},
{
name = ogonek;
position = "{478, 0}";
},
{
name = top;
position = "{383, 700}";
}
);
color = -1;
layerId = "66953C5E-8AEB-4AF5-804F-512B0A9BA4E6";
paths = (
{
closed = 1;
nodes = (
"478 0 LINE",
"502 135 LINE",
"213 135 LINE",
"241 292 LINE",
"500 292 LINE",
"523 421 LINE",
"264 421 LINE",
"289 565 LINE",
"578 565 LINE",
"602 700 LINE",
"142 700 LINE",
"18 0 LINE"
);
}
);
width = 578;
}
);
leftKerningGroup = H;
leftMetricsKey = H;
rightKerningGroup = E;
unicode = 0045;
userData = {
com.schriftgestaltung.Glyphs.ColorIndex = 4;
com.typesupply.AccentFactory.yCoordinates = {
bottom = {
name = origin;
type = glyphMetric;
};
top = {
name = capHeight;
type = fontInfo;
};
};
};
},
{
glyphname = F;
lastChange = "2019-05-10 10:24:02 +0000";
layers = (
{
color = -1;
layerId = "973C19EE-3504-4BDF-BF6D-4817D3AD4E7D";
paths = (
{
closed = 1;
nodes = (
"103 0 LINE",
"160 324 LINE",
"450 324 LINE",
"460 379 LINE",
"170 379 LINE",
"216 644 LINE",
"555 644 LINE",
"565 700 LINE",
"156 700 LINE",
"33 0 LINE"
);
}
);
width = 526;
},
{
color = -1;
layerId = "66953C5E-8AEB-4AF5-804F-512B0A9BA4E6";
paths = (
{
closed = 1;
nodes = (
"189 0 LINE",
"239 286 LINE",
"453 286 LINE",
"477 416 LINE",
"263 416 LINE",
"289 565 LINE",
"575 565 LINE",
"599 700 LINE",
"142 700 LINE",
"18 0 LINE"
);
}
);
width = 554;
}
);
leftKerningGroup = H;
leftMetricsKey = H;
unicode = 0046;
userData = {
com.schriftgestaltung.Glyphs.ColorIndex = 4;
com.typesupply.AccentFactory.yCoordinates = {
bottom = {
name = origin;
type = glyphMetric;
};
top = {
name = capHeight;
type = fontInfo;
};
};
};
},
{
glyphname = G;
lastChange = "2019-05-16 15:23:33 +0000";
layers = (
{
anchors = (
{
name = bottom;
position = "{345, 0}";
},
{
name = top;
position = "{468, 700}";
}
);
background = {
paths = (
{
closed = 1;
nodes = (
"466 -12 OFFCURVE",
"561 36 OFFCURVE",
"631 113 CURVE",
"611 0 LINE",
"681 0 LINE",
"747 371 LINE",
"434 371 LINE",
"424 314 LINE",
"665 314 LINE",
"625 150 OFFCURVE",
"512 51 OFFCURVE",
"369 51 CURVE SMOOTH",
"239 51 OFFCURVE",
"151 156 OFFCURVE",
"151 299 CURVE SMOOTH",
"151 503 OFFCURVE",
"291 648 OFFCURVE",
"472 648 CURVE SMOOTH",
"580 648 OFFCURVE",
"657 590 OFFCURVE",
"665 500 CURVE",
"747 500 LINE",
"736 633 OFFCURVE",
"622 712 OFFCURVE",
"477 712 CURVE SMOOTH",
"254 712 OFFCURVE",
"78 536 OFFCURVE",
"78 296 CURVE SMOOTH",
"78 124 OFFCURVE",
"189 -12 OFFCURVE",
"358 -12 CURVE SMOOTH"
);
}
);
};
color = -1;
layerId = "973C19EE-3504-4BDF-BF6D-4817D3AD4E7D";
paths = (
{
closed = 1;
nodes = (
"460 -12 OFFCURVE",
"536 36 OFFCURVE",
"603 122 CURVE",
"587 0 LINE",
"652 0 LINE",
"717 371 LINE",
"434 371 LINE",
"424 314 LINE",
"635 314 LINE",
"595 150 OFFCURVE",
"501 51 OFFCURVE",
"344 51 CURVE SMOOTH",
"216 51 OFFCURVE",
"135 142 OFFCURVE",
"135 282 CURVE SMOOTH",
"135 495 OFFCURVE",
"264 648 OFFCURVE",
"456 648 CURVE SMOOTH",
"575 648 OFFCURVE",
"642 590 OFFCURVE",
"645 500 CURVE",
"727 500 LINE",
"721 633 OFFCURVE",
"619 712 OFFCURVE",
"463 712 CURVE SMOOTH",
"227 712 OFFCURVE",
"62 529 OFFCURVE",
"62 278 CURVE SMOOTH",
"62 110 OFFCURVE",
"164 -12 OFFCURVE",
"333 -12 CURVE SMOOTH"
);
}
);
width = 756;
},
{
anchors = (
{
name = bottom;
position = "{352, 0}";
},
{
name = top;
position = "{484, 700}";
}
);
background = {
paths = (
{
closed = 1;
nodes = (
"427 -12 OFFCURVE",
"505 19 OFFCURVE",
"555 70 CURVE",
"542 0 LINE",
"713 0 LINE",
"783 396 LINE",
"431 396 LINE",
"409 270 LINE",
"590 270 LINE",
"562 201 OFFCURVE",
"488 139 OFFCURVE",
"397 139 CURVE SMOOTH",
"304 139 OFFCURVE",
"247 194 OFFCURVE",
"247 301 CURVE SMOOTH",
"247 444 OFFCURVE",
"345 554 OFFCURVE",
"472 554 CURVE SMOOTH",
"535 554 OFFCURVE",
"580 529 OFFCURVE",
"597 482 CURVE",
"786 482 LINE",
"775 626 OFFCURVE",
"667 712 OFFCURVE",
"500 712 CURVE SMOOTH",
"263 712 OFFCURVE",
"71 528 OFFCURVE",
"71 287 CURVE SMOOTH",
"71 109 OFFCURVE",
"179 -12 OFFCURVE",
"353 -12 CURVE SMOOTH"
);
}
);
};
color = -1;
layerId = "66953C5E-8AEB-4AF5-804F-512B0A9BA4E6";
paths = (
{
closed = 1;
nodes = (
"424 -12 OFFCURVE",
"488 17 OFFCURVE",
"537 70 CURVE",
"541 0 LINE",
"696 0 LINE",
"766 396 LINE",
"444 396 LINE",
"422 270 LINE",
"573 270 LINE",
"546 198 OFFCURVE",
"484 139 OFFCURVE",
"381 139 CURVE SMOOTH",
"285 139 OFFCURVE",
"233 198 OFFCURVE",
"233 298 CURVE SMOOTH",
"233 452 OFFCURVE",
"327 554 OFFCURVE",
"461 554 CURVE SMOOTH",
"529 554 OFFCURVE",
"566 529 OFFCURVE",
"580 482 CURVE",
"769 482 LINE",
"761 626 OFFCURVE",
"657 712 OFFCURVE",
"487 712 CURVE SMOOTH",
"241 712 OFFCURVE",
"57 539 OFFCURVE",
"57 283 CURVE SMOOTH",
"57 116 OFFCURVE",
"160 -12 OFFCURVE",
"333 -12 CURVE SMOOTH"
);
}
);
width = 793;
}
);
leftKerningGroup = O;
leftMetricsKey = O;
rightKerningGroup = G;
unicode = 0047;
userData = {
com.schriftgestaltung.Glyphs.ColorIndex = 4;
com.typemytype.robofont.layerData = {
b = {
anchors = (
{
name = top;
x = 411;
y = 683;
},
{
name = bottom;
x = 411;
y = 0;
}
);
components = (
);
contours = (
{
points = (
{
segmentType = curve;
smooth = 1;
x = 60;
y = 341;
},
{
smooth = 0;
x = 60;
y = 138;
},
{
smooth = 0;
x = 214;
y = -6;
},
{
segmentType = curve;
smooth = 1;
x = 407;
y = -6;
},
{
smooth = 0;
x = 590;
y = -6;
},
{
smooth = 0;
x = 747;
y = 110;
},
{
segmentType = curve;
smooth = 0;
x = 764;
y = 341;
},
{
segmentType = line;
smooth = 0;
x = 764;
y = 360;
},
{
segmentType = line;
smooth = 0;
x = 381;
y = 360;
},
{
segmentType = line;
smooth = 0;
x = 381;
y = 341;
},
{
segmentType = line;
smooth = 0;
x = 747;
y = 341;
},
{
smooth = 0;
x = 733;
y = 132;
},
{
smooth = 0;
x = 600;
y = 6;
},
{
segmentType = curve;
smooth = 1;
x = 407;
y = 6;
},
{
smooth = 0;
x = 226;
y = 6;
},
{
smooth = 0;
x = 80;
y = 137;
},
{
segmentType = curve;
smooth = 1;
x = 80;
y = 341;
},
{
smooth = 0;
x = 80;
y = 547;
},
{
smooth = 0;
x = 226;
y = 677;
},
{
segmentType = curve;
smooth = 1;
x = 407;
y = 677;
},
{
smooth = 0;
x = 528;
y = 677;
},
{
smooth = 0;
x = 633;
y = 618;
},
{
segmentType = curve;
smooth = 0;
x = 683;
y = 525;
},
{
segmentType = line;
smooth = 0;
x = 709;
y = 525;
},
{
smooth = 0;
x = 648;
y = 637;
},
{
smooth = 0;
x = 537;
y = 690;
},
{
segmentType = curve;
smooth = 1;
x = 407;
y = 690;
},
{
smooth = 0;
x = 214;
y = 690;
},
{
smooth = 0;
x = 60;
y = 546;
}
);
}
);
lib = {
};
name = G;
unicodes = (
);
width = 792;
};
};
com.typesupply.AccentFactory.yCoordinates = {
bottom = {
name = origin;
type = glyphMetric;
};
top = {
name = capHeight;
type = fontInfo;
};
};
};
},
{
glyphname = Gcommaaccent;
lastChange = "2019-05-10 10:24:02 +0000";
layers = (
{
anchors = (
{
name = _bottom;
position = "{340, -4}";
}
);
color = -1;
components = (
{
alignment = -1;
name = G;
}
);
layerId = "973C19EE-3504-4BDF-BF6D-4817D3AD4E7D";
paths = (
{
closed = 1;
nodes = (
"316 -226 OFFCURVE",
"356 -197 OFFCURVE",
"370 -119 CURVE SMOOTH",
"373 -100 OFFCURVE",
"374 -76 OFFCURVE",
"373 -52 CURVE",
"294 -52 LINE",
"282 -121 LINE",
"324 -121 LINE",
"322 -135 LINE SMOOTH",
"316 -171 OFFCURVE",
"300 -191 OFFCURVE",
"267 -191 CURVE",
"260 -226 LINE"
);
}
);
width = 756;
},
{
anchors = (
{
name = _bottom;
position = "{331, 0}";
}
);
color = -1;
components = (
{
alignment = -1;
name = G;
}
);
layerId = "66953C5E-8AEB-4AF5-804F-512B0A9BA4E6";
paths = (
{
closed = 1;
nodes = (
"315 -310 OFFCURVE",
"371 -248 OFFCURVE",
"387 -158 CURVE SMOOTH",
"393 -122 OFFCURVE",
"394 -82 OFFCURVE",
"387 -40 CURVE",
"256 -40 LINE",
"234 -163 LINE",
"297 -163 LINE",
"295 -179 LINE SMOOTH",
"287 -224 OFFCURVE",
"266 -245 OFFCURVE",
"231 -245 CURVE",
"220 -310 LINE"
);
}
);
width = 793;
}
);
leftKerningGroup = O;
leftMetricsKey = G;
rightKerningGroup = G;
rightMetricsKey = G;
unicode = 0122;
userData = {
com.schriftgestaltung.Glyphs.ColorIndex = 8;
com.typesupply.AccentFactory.compileType = manual;
};
},
{
glyphname = H;
lastChange = "2019-05-10 10:30:52 +0000";
layers = (
{
color = -1;
layerId = "973C19EE-3504-4BDF-BF6D-4817D3AD4E7D";
paths = (
{
closed = 1;
nodes = (
"552 0 LINE",
"676 700 LINE",
"606 700 LINE",
"482 0 LINE"
);
},
{
closed = 1;
nodes = (
"103 0 LINE",
"226 700 LINE",
"156 700 LINE",
"33 0 LINE"
);
},
{
closed = 1;
nodes = (
"560 329 LINE",
"570 384 LINE",
"155 384 LINE",
"145 329 LINE"
);
}
);
width = 672;
},
{
color = -1;
layerId = "66953C5E-8AEB-4AF5-804F-512B0A9BA4E6";
paths = (
{
closed = 1;
nodes = (
"626 0 LINE",
"750 700 LINE",
"579 700 LINE",
"455 0 LINE"
);
},
{
closed = 1;
nodes = (
"189 0 LINE",
"313 700 LINE",
"142 700 LINE",
"18 0 LINE"
);
},
{
closed = 1;
nodes = (
"530 291 LINE",
"554 426 LINE",
"244 426 LINE",
"220 291 LINE"
);
}
);
width = 732;
}
);
leftKerningGroup = H;
rightKerningGroup = H;
unicode = 0048;
userData = {
com.schriftgestaltung.Glyphs.ColorIndex = 4;
com.typesupply.AccentFactory.yCoordinates = {
bottom = {
name = origin;
type = glyphMetric;
};
top = {
name = capHeight;
type = fontInfo;
};
};
};
},
{
glyphname = I;
lastChange = "2019-05-10 10:24:02 +0000";
layers = (
{
anchors = (
{
name = ogonek;
position = "{103, 1}";
},
{
name = top;
position = "{190, 700}";
}
);
color = -1;
layerId = "973C19EE-3504-4BDF-BF6D-4817D3AD4E7D";
paths = (
{
closed = 1;
nodes = (
"103 0 LINE",
"226 700 LINE",
"156 700 LINE",
"33 0 LINE"
);
}
);
width = 223;
},
{
anchors = (
{
name = ogonek;
position = "{189, 0}";
},
{
name = top;
position = "{225, 700}";
}
);
color = -1;
layerId = "66953C5E-8AEB-4AF5-804F-512B0A9BA4E6";
paths = (
{
closed = 1;
nodes = (
"189 0 LINE",
"313 700 LINE",
"142 700 LINE",
"18 0 LINE"
);
}
);
width = 295;
}
);
leftKerningGroup = H;
leftMetricsKey = H;
rightKerningGroup = H;
rightMetricsKey = H;
unicode = 0049;
userData = {
com.schriftgestaltung.Glyphs.ColorIndex = 4;
com.typemytype.robofont.guides = (
{
angle = 0;
isGlobal = 0;
magnetic = 5;
x = 83;
y = 684;
}
);
com.typesupply.AccentFactory.yCoordinates = {
bottom = {
name = origin;
type = glyphMetric;
};
top = {
name = capHeight;
type = fontInfo;
};
};
};
},
{
glyphname = J;
lastChange = "2019-05-10 10:24:02 +0000";
layers = (
{
color = -1;
layerId = "973C19EE-3504-4BDF-BF6D-4817D3AD4E7D";
paths = (
{
closed = 1;
nodes = (
"282 -12 OFFCURVE",
"366 59 OFFCURVE",
"384 165 CURVE SMOOTH",
"477 700 LINE",
"407 700 LINE",
"314 165 LINE SMOOTH",
"304 107 OFFCURVE",
"264 50 OFFCURVE",
"183 50 CURVE SMOOTH",
"100 50 OFFCURVE",
"79 109 OFFCURVE",
"91 179 CURVE",
"20 179 LINE",
"-1 61 OFFCURVE",
"59 -12 OFFCURVE",
"172 -12 CURVE SMOOTH"
);
}
);
width = 475;
},
{
color = -1;
layerId = "66953C5E-8AEB-4AF5-804F-512B0A9BA4E6";
paths = (
{
closed = 1;
nodes = (
"357 -12 OFFCURVE",
"463 68 OFFCURVE",
"490 219 CURVE SMOOTH",
"575 700 LINE",
"404 700 LINE",
"319 219 LINE SMOOTH",
"310 167 OFFCURVE",
"281 141 OFFCURVE",
"240 141 CURVE SMOOTH",
"196 141 OFFCURVE",
"175 170 OFFCURVE",
"186 230 CURVE",
"16 230 LINE",
"-12 72 OFFCURVE",
"74 -12 OFFCURVE",
"218 -12 CURVE SMOOTH"
);
}
);
width = 557;
}
);
rightMetricsKey = H;
unicode = 004A;
userData = {
com.schriftgestaltung.Glyphs.ColorIndex = 4;
com.typesupply.AccentFactory.yCoordinates = {
bottom = {
name = origin;
type = glyphMetric;
};
top = {
name = capHeight;
type = fontInfo;
};
};
};
},
{
glyphname = K;
lastChange = "2019-05-10 10:24:02 +0000";
layers = (
{
anchors = (
{
name = bottom;
position = "{241, 0}";
},
{
name = top;
position = "{363, 700}";
}
);
color = -1;
layerId = "973C19EE-3504-4BDF-BF6D-4817D3AD4E7D";
paths = (
{
closed = 1;
nodes = (
"103 0 LINE",
"152 280 LINE",
"252 370 LINE",
"418 0 LINE",
"498 0 LINE",
"308 420 LINE",
"618 700 LINE",
"529 700 LINE",
"169 372 LINE",
"226 700 LINE",
"156 700 LINE",
"33 0 LINE"
);
}
);
width = 571;
},
{
anchors = (
{
name = bottom;
position = "{303, 0}";
},
{
name = top;
position = "{428, 700}";
}
);
color = -1;
layerId = "66953C5E-8AEB-4AF5-804F-512B0A9BA4E6";
paths = (
{
closed = 1;
nodes = (
"190 0 LINE",
"231 230 LINE",
"301 295 LINE",
"430 0 LINE",
"635 0 LINE",
"444 424 LINE",
"748 700 LINE",
"539 700 LINE",
"270 451 LINE",
"313 700 LINE",
"142 700 LINE",
"19 0 LINE"
);
}
);
width = 704;
}
);
leftKerningGroup = H;
leftMetricsKey = H;
rightKerningGroup = K;
unicode = 004B;
userData = {
com.schriftgestaltung.Glyphs.ColorIndex = 4;
com.typesupply.AccentFactory.yCoordinates = {
bottom = {
name = origin;
type = glyphMetric;
};
top = {
name = capHeight;
type = fontInfo;
};
};
};
},
{
glyphname = Kcommaaccent;
lastChange = "2019-05-10 10:24:02 +0000";
layers = (
{
anchors = (
{
name = _bottom;
position = "{231, 0}";
}
);
color = -1;
components = (
{
alignment = -1;
name = K;
}
);
layerId = "973C19EE-3504-4BDF-BF6D-4817D3AD4E7D";
paths = (
{
closed = 1;
nodes = (
"205 -226 OFFCURVE",
"243 -197 OFFCURVE",
"258 -119 CURVE SMOOTH",
"261 -100 OFFCURVE",
"262 -76 OFFCURVE",
"261 -52 CURVE",
"182 -52 LINE",
"170 -121 LINE",
"212 -121 LINE",
"210 -135 LINE SMOOTH",
"204 -171 OFFCURVE",
"188 -191 OFFCURVE",
"155 -191 CURVE",
"148 -226 LINE"
);
}
);
width = 571;
},
{
anchors = (
{
name = _bottom;
position = "{309, 0}";
}
);
color = -1;
components = (
{
alignment = -1;
name = K;
}
);
layerId = "66953C5E-8AEB-4AF5-804F-512B0A9BA4E6";
paths = (
{
closed = 1;
nodes = (
"293 -310 OFFCURVE",
"348 -248 OFFCURVE",
"364 -158 CURVE SMOOTH",
"371 -122 OFFCURVE",
"372 -82 OFFCURVE",
"365 -40 CURVE",
"234 -40 LINE",
"212 -163 LINE",
"276 -163 LINE",
"273 -179 LINE SMOOTH",
"265 -224 OFFCURVE",
"243 -245 OFFCURVE",
"210 -245 CURVE",
"198 -310 LINE"
);
}
);
width = 704;
}
);
leftKerningGroup = H;
leftMetricsKey = H;
rightKerningGroup = K;
rightMetricsKey = K;
unicode = 0136;
userData = {
com.schriftgestaltung.Glyphs.ColorIndex = 8;
com.typesupply.AccentFactory.compileType = manual;
};
},
{
glyphname = L;
lastChange = "2019-05-10 10:24:02 +0000";
layers = (
{
anchors = (
{
name = bottom;
position = "{218, 0}";
},
{
name = center;
position = "{250, 350}";
},
{
name = commaaccent;
position = "{218, 0}";
},
{
name = top;
position = "{199, 700}";
},
{
name = topright;
position = "{527, 700}";
}
);
color = -1;
layerId = "973C19EE-3504-4BDF-BF6D-4817D3AD4E7D";
paths = (
{
closed = 1;
nodes = (
"434 0 LINE",
"444 57 LINE",
"113 57 LINE",
"226 700 LINE",
"156 700 LINE",
"33 0 LINE"
);
}
);
width = 518;
},
{
anchors = (
{
name = bottom;
position = "{244, 0}";
},
{
name = center;
position = "{307, 350}";
},
{
name = commaaccent;
position = "{246, 10}";
},
{
name = top;
position = "{238, 700}";
},
{
name = topright;
position = "{607, 700}";
}
);
color = -1;
layerId = "66953C5E-8AEB-4AF5-804F-512B0A9BA4E6";
paths = (
{
closed = 1;
nodes = (
"484 0 LINE",
"507 132 LINE",
"213 132 LINE",
"313 700 LINE",
"142 700 LINE",
"19 0 LINE"
);
}
);
width = 578;
}
);
leftKerningGroup = H;
leftMetricsKey = H;
rightKerningGroup = L;
unicode = 004C;
userData = {
com.schriftgestaltung.Glyphs.ColorIndex = 4;
com.typesupply.AccentFactory.yCoordinates = {
bottom = {
name = origin;
type = glyphMetric;
};
top = {
name = capHeight;
type = fontInfo;
};
};
};
},
{
glyphname = Lcaron;
lastChange = "2019-05-10 10:24:02 +0000";
layers = (
{
anchors = (
{
name = _bottom;
position = "{389, 741}";
}
);
color = -1;
components = (
{
alignment = -1;
name = L;
}
);
layerId = "973C19EE-3504-4BDF-BF6D-4817D3AD4E7D";
paths = (
{
closed = 1;
nodes = (
"364 512 OFFCURVE",
"403 542 OFFCURVE",
"415 615 CURVE SMOOTH",
"419 639 OFFCURVE",
"422 667 OFFCURVE",
"421 700 CURVE",
"340 700 LINE",
"327 624 LINE",
"373 624 LINE",
"368 600 LINE SMOOTH",
"361 566 OFFCURVE",
"346 548 OFFCURVE",
"313 548 CURVE",
"306 512 LINE"
);
}
);
width = 518;
},
{
anchors = (
{
name = _bottom;
position = "{483, 742}";
}
);
color = -1;
components = (
{
alignment = -1;
name = L;
}
);
layerId = "66953C5E-8AEB-4AF5-804F-512B0A9BA4E6";
paths = (
{
closed = 1;
nodes = (
"466 430 OFFCURVE",
"523 492 OFFCURVE",
"538 582 CURVE SMOOTH",
"544 618 OFFCURVE",
"546 658 OFFCURVE",
"539 700 CURVE",
"408 700 LINE",
"386 577 LINE",
"449 577 LINE",
"446 561 LINE SMOOTH",
"438 516 OFFCURVE",
"417 495 OFFCURVE",
"383 495 CURVE",
"372 430 LINE"
);
}
);
width = 578;
}
);
leftKerningGroup = H;
leftMetricsKey = H;
rightKerningGroup = L;
rightMetricsKey = L;
unicode = 013D;
userData = {
com.schriftgestaltung.Glyphs.ColorIndex = 8;
com.typesupply.AccentFactory.compileType = manual;
};
},
{
glyphname = Lcommaaccent;
lastChange = "2019-05-10 10:24:02 +0000";
layers = (
{
anchors = (
{
name = _commaaccent;
position = "{190, 0}";
}
);
color = -1;
components = (
{
alignment = -1;
name = L;
}
);
layerId = "973C19EE-3504-4BDF-BF6D-4817D3AD4E7D";
paths = (
{
closed = 1;
nodes = (
"163 -226 OFFCURVE",
"202 -197 OFFCURVE",
"216 -119 CURVE SMOOTH",
"219 -100 OFFCURVE",
"221 -76 OFFCURVE",
"219 -52 CURVE",
"140 -52 LINE",
"128 -121 LINE",
"171 -121 LINE",
"169 -135 LINE SMOOTH",
"162 -171 OFFCURVE",
"146 -191 OFFCURVE",
"113 -191 CURVE",
"106 -226 LINE"
);
}
);
width = 518;
},
{
anchors = (
{
name = _commaaccent;
position = "{220, 5}";
}
);
color = -1;
components = (
{
alignment = -1;
name = L;
}
);
layerId = "66953C5E-8AEB-4AF5-804F-512B0A9BA4E6";
paths = (
{
closed = 1;
nodes = (
"203 -310 OFFCURVE",
"259 -248 OFFCURVE",
"275 -158 CURVE SMOOTH",
"281 -122 OFFCURVE",
"282 -82 OFFCURVE",
"275 -40 CURVE",
"144 -40 LINE",
"122 -163 LINE",
"185 -163 LINE",
"183 -179 LINE SMOOTH",
"175 -224 OFFCURVE",
"154 -245 OFFCURVE",
"119 -245 CURVE",
"108 -310 LINE"
);
}
);
width = 578;
}
);
leftKerningGroup = H;
leftMetricsKey = H;
rightKerningGroup = L;
rightMetricsKey = L;
unicode = 013B;
userData = {
com.schriftgestaltung.Glyphs.ColorIndex = 8;
com.typesupply.AccentFactory.compileType = manual;
};
},
{
glyphname = Lslash;
lastChange = "2019-05-10 10:24:02 +0000";
layers = (
{
color = -1;
components = (
{
name = L;
transform = "{1, 0, 0, 1, 26, 0}";
}
);
layerId = "973C19EE-3504-4BDF-BF6D-4817D3AD4E7D";
paths = (
{
closed = 1;
nodes = (
"327 396 LINE",
"339 462 LINE",
"39 352 LINE",
"27 286 LINE"
);
}
);
width = 544;
},
{
color = -1;
components = (
{
name = L;
transform = "{1, 0, 0, 1, 23, 0}";
}
);
layerId = "66953C5E-8AEB-4AF5-804F-512B0A9BA4E6";
paths = (
{
closed = 1;
nodes = (
"356 335 LINE",
"385 500 LINE",
"48 404 LINE",
"19 241 LINE"
);
}
);
width = 601;
}
);
rightKerningGroup = L;
rightMetricsKey = L;
unicode = 0141;
userData = {
com.schriftgestaltung.Glyphs.ColorIndex = 4;
};
},
{
glyphname = M;
lastChange = "2019-05-10 10:24:02 +0000";
layers = (
{
background = {
paths = (
{
closed = 1;
nodes = (
"59 0 LINE",
"165 603 LINE",
"145 603 LINE",
"305 0 LINE",
"356 0 LINE",
"724 598 LINE",
"708 604 LINE",
"601 0 LINE",
"671 0 LINE",
"795 700 LINE",
"721 700 LINE",
"324 54 LINE",
"360 48 LINE",
"187 700 LINE",
"113 700 LINE",
"-11 0 LINE"
);
}
);
};
color = -1;
guideLines = (
{
angle = 79.9731;
position = "{732, 345}";
},
{
angle = 79.9731;
position = "{26, 210}";
}
);
layerId = "973C19EE-3504-4BDF-BF6D-4817D3AD4E7D";
paths = (
{
closed = 1;
nodes = (
"103 0 LINE",
"212 620 LINE",
"185 621 LINE",
"367 100 LINE",
"418 100 LINE",
"781 621 LINE",
"755 620 LINE",
"646 0 LINE",
"716 0 LINE",
"839 700 LINE",
"758 700 LINE",
"386 164 LINE",
"421 164 LINE",
"236 700 LINE",
"156 700 LINE",
"33 0 LINE"
);
}
);
width = 836;
},
{
background = {
paths = (
{
closed = 1;
nodes = (
"146 0 LINE",
"248 579 LINE",
"191 569 LINE",
"304 0 LINE",
"442 0 LINE",
"756 569 LINE",
"702 579 LINE",
"599 0 LINE",
"770 0 LINE",
"894 700 LINE",
"693 700 LINE",
"359 122 LINE",
"432 133 LINE",
"301 700 LINE",
"99 700 LINE",
"-25 0 LINE"
);
}
);
};
color = -1;
guideLines = (
{
angle = 79.9827;
position = "{832, 351}";
},
{
angle = 79.9827;
position = "{-25, 0}";
}
);
layerId = "66953C5E-8AEB-4AF5-804F-512B0A9BA4E6";
paths = (
{
closed = 1;
nodes = (
"190 0 LINE",
"292 579 LINE",
"227 529 LINE",
"366 100 LINE",
"504 100 LINE",
"792 529 LINE",
"745 579 LINE",
"643 0 LINE",
"814 0 LINE",
"937 700 LINE",
"732 700 LINE",
"420 222 LINE",
"493 233 LINE",
"348 700 LINE",
"142 700 LINE",
"19 0 LINE"
);
}
);
width = 920;
}
);
leftKerningGroup = H;
leftMetricsKey = H;
rightKerningGroup = H;
rightMetricsKey = H;
unicode = 004D;
userData = {
com.schriftgestaltung.Glyphs.ColorIndex = 4;
com.typesupply.AccentFactory.yCoordinates = {
bottom = {
name = origin;
type = glyphMetric;
};
top = {
name = capHeight;
type = fontInfo;
};
};
};
},
{
glyphname = N;
lastChange = "2019-05-10 10:24:02 +0000";
layers = (
{
anchors = (
{
name = bottom;
position = "{297, 0}";
},
{
name = top;
position = "{419, 700}";
}
);
color = -1;
layerId = "973C19EE-3504-4BDF-BF6D-4817D3AD4E7D";
paths = (
{
closed = 1;
nodes = (
"103 0 LINE",
"207 589 LINE",
"490 0 LINE",
"560 0 LINE",
"683 700 LINE",
"613 700 LINE",
"510 112 LINE",
"225 700 LINE",
"156 700 LINE",
"33 0 LINE"
);
}
);
width = 680;
},
{
anchors = (
{
name = bottom;
position = "{332, 0}";
},
{
name = top;
position = "{456, 700}";
}
);
color = -1;
layerId = "66953C5E-8AEB-4AF5-804F-512B0A9BA4E6";
paths = (
{
closed = 1;
nodes = (
"189 0 LINE",
"266 433 LINE",
"475 0 LINE",
"646 0 LINE",
"770 700 LINE",
"599 700 LINE",
"522 267 LINE",
"315 700 LINE",
"142 700 LINE",
"18 0 LINE"
);
}
);
width = 752;
}
);
leftKerningGroup = H;
leftMetricsKey = H;
rightKerningGroup = H;
rightMetricsKey = H;
unicode = 004E;
userData = {
com.schriftgestaltung.Glyphs.ColorIndex = 4;
com.typesupply.AccentFactory.yCoordinates = {
bottom = {
name = origin;
type = glyphMetric;
};
top = {
name = capHeight;
type = fontInfo;
};
};
};
},
{
glyphname = Ncommaaccent;
lastChange = "2019-05-10 10:24:02 +0000";
layers = (
{
anchors = (
{
name = _bottom;
position = "{293, 0}";
}
);
color = -1;
components = (
{
alignment = -1;
name = N;
}
);
layerId = "973C19EE-3504-4BDF-BF6D-4817D3AD4E7D";
paths = (
{
closed = 1;
nodes = (
"265 -226 OFFCURVE",
"304 -197 OFFCURVE",
"318 -119 CURVE SMOOTH",
"322 -100 OFFCURVE",
"323 -76 OFFCURVE",
"321 -52 CURVE",
"243 -52 LINE",
"230 -121 LINE",
"273 -121 LINE",
"271 -135 LINE SMOOTH",
"265 -171 OFFCURVE",
"248 -191 OFFCURVE",
"216 -191 CURVE",
"209 -226 LINE"
);
}
);
width = 680;
},
{
anchors = (
{
name = _bottom;
position = "{338, 0}";
}
);
color = -1;
components = (
{
alignment = -1;
name = N;
}
);
layerId = "66953C5E-8AEB-4AF5-804F-512B0A9BA4E6";
paths = (
{
closed = 1;
nodes = (
"322 -310 OFFCURVE",
"377 -248 OFFCURVE",
"394 -158 CURVE SMOOTH",
"401 -122 OFFCURVE",
"401 -82 OFFCURVE",
"394 -40 CURVE",
"263 -40 LINE",
"241 -163 LINE",
"304 -163 LINE",
"302 -179 LINE SMOOTH",
"296 -224 OFFCURVE",
"272 -245 OFFCURVE",
"238 -245 CURVE",
"227 -310 LINE"
);
}
);
width = 752;
}
);
leftKerningGroup = H;
leftMetricsKey = H;
rightKerningGroup = H;
rightMetricsKey = H;
unicode = 0145;
userData = {
com.schriftgestaltung.Glyphs.ColorIndex = 8;
com.typesupply.AccentFactory.compileType = manual;
};
},
{
glyphname = O;
lastChange = "2019-05-10 10:24:02 +0000";
layers = (
{
anchors = (
{
name = top;
position = "{476, 700}";
}
);
background = {
paths = (
{
closed = 1;
nodes = (
"577 -12 OFFCURVE",
"767 179 OFFCURVE",
"767 417 CURVE SMOOTH",
"767 590 OFFCURVE",
"650 712 OFFCURVE",
"478 712 CURVE SMOOTH",
"251 712 OFFCURVE",
"61 522 OFFCURVE",
"61 285 CURVE SMOOTH",
"61 112 OFFCURVE",
"178 -12 OFFCURVE",
"350 -12 CURVE SMOOTH"
);
},
{
closed = 1;
nodes = (
"229 49 OFFCURVE",
"134 142 OFFCURVE",
"134 288 CURVE SMOOTH",
"134 490 OFFCURVE",
"283 650 OFFCURVE",
"467 650 CURVE SMOOTH",
"598 650 OFFCURVE",
"694 561 OFFCURVE",
"694 414 CURVE SMOOTH",
"694 211 OFFCURVE",
"544 49 OFFCURVE",
"361 49 CURVE SMOOTH"
);
}
);
};
color = -1;
layerId = "973C19EE-3504-4BDF-BF6D-4817D3AD4E7D";
paths = (
{
closed = 1;
nodes = (
"577 -12 OFFCURVE",
"767 179 OFFCURVE",
"767 417 CURVE SMOOTH",
"767 590 OFFCURVE",
"650 712 OFFCURVE",
"478 712 CURVE SMOOTH",
"251 712 OFFCURVE",
"61 522 OFFCURVE",
"61 285 CURVE SMOOTH",
"61 112 OFFCURVE",
"178 -12 OFFCURVE",
"350 -12 CURVE SMOOTH"
);
},
{
closed = 1;
nodes = (
"229 49 OFFCURVE",
"134 142 OFFCURVE",
"134 288 CURVE SMOOTH",
"134 490 OFFCURVE",
"283 650 OFFCURVE",
"467 650 CURVE SMOOTH",
"598 650 OFFCURVE",
"694 561 OFFCURVE",
"694 414 CURVE SMOOTH",
"694 211 OFFCURVE",
"544 49 OFFCURVE",
"361 49 CURVE SMOOTH"
);
}
);
width = 792;
},
{
anchors = (
{
name = top;
position = "{487, 700}";
}
);
background = {
paths = (
{
closed = 1;
nodes = (
"605 -12 OFFCURVE",
"791 173 OFFCURVE",
"791 406 CURVE SMOOTH",
"791 582 OFFCURVE",
"661 712 OFFCURVE",
"480 712 CURVE SMOOTH",
"242 712 OFFCURVE",
"58 527 OFFCURVE",
"58 294 CURVE SMOOTH",
"58 118 OFFCURVE",
"188 -12 OFFCURVE",
"369 -12 CURVE SMOOTH"
);
},
{
closed = 1;
nodes = (
"298 143 OFFCURVE",
"234 210 OFFCURVE",
"234 310 CURVE SMOOTH",
"234 450 OFFCURVE",
"338 557 OFFCURVE",
"461 557 CURVE SMOOTH",
"550 557 OFFCURVE",
"615 490 OFFCURVE",
"615 390 CURVE SMOOTH",
"615 250 OFFCURVE",
"511 143 OFFCURVE",
"388 143 CURVE SMOOTH"
);
}
);
};
color = -1;
layerId = "66953C5E-8AEB-4AF5-804F-512B0A9BA4E6";
paths = (
{
closed = 1;
nodes = (
"605 -12 OFFCURVE",
"791 173 OFFCURVE",
"791 406 CURVE SMOOTH",
"791 582 OFFCURVE",
"661 712 OFFCURVE",
"480 712 CURVE SMOOTH",
"242 712 OFFCURVE",
"58 527 OFFCURVE",
"58 294 CURVE SMOOTH",
"58 118 OFFCURVE",
"188 -12 OFFCURVE",
"369 -12 CURVE SMOOTH"
);
},
{
closed = 1;
nodes = (
"288 143 OFFCURVE",
"234 210 OFFCURVE",
"234 310 CURVE SMOOTH",
"234 450 OFFCURVE",
"336 557 OFFCURVE",
"461 557 CURVE SMOOTH",
"568 557 OFFCURVE",
"615 490 OFFCURVE",
"615 390 CURVE SMOOTH",
"615 250 OFFCURVE",
"513 143 OFFCURVE",
"388 143 CURVE SMOOTH"
);
}
);
width = 813;
}
);
leftKerningGroup = O;
rightKerningGroup = O;
unicode = 004F;
userData = {
com.schriftgestaltung.Glyphs.ColorIndex = 4;
com.typemytype.robofont.layerData = {
b = {
anchors = (
{
name = top;
x = 407;
y = 683;
}
);
components = (
);
contours = (
{
points = (
{
segmentType = curve;
smooth = 1;
x = 60;
y = 341;
},
{
smooth = 0;
x = 60;
y = 138;
},
{
smooth = 0;
x = 214;
y = -7;
},
{
segmentType = curve;
smooth = 1;
x = 407;
y = -7;
},
{
smooth = 0;
x = 601;
y = -7;
},
{
smooth = 0;
x = 754;
y = 138;
},
{
segmentType = curve;
smooth = 1;
x = 754;
y = 341;
},
{
smooth = 0;
x = 754;
y = 546;
},
{
smooth = 0;
x = 601;
y = 690;
},
{
segmentType = curve;
smooth = 1;
x = 407;
y = 690;
},
{
smooth = 0;
x = 214;
y = 690;
},
{
smooth = 0;
x = 60;
y = 546;
}
);
},
{
points = (
{
segmentType = curve;
smooth = 1;
x = 733;
y = 341;
},
{
smooth = 0;
x = 733;
y = 137;
},
{
smooth = 0;
x = 588;
y = 4;
},
{
segmentType = curve;
smooth = 1;
x = 407;
y = 4;
},
{
smooth = 0;
x = 226;
y = 4;
},
{
smooth = 0;
x = 80;
y = 137;
},
{
segmentType = curve;
smooth = 1;
x = 80;
y = 341;
},
{
smooth = 0;
x = 80;
y = 547;
},
{
smooth = 0;
x = 226;
y = 677;
},
{
segmentType = curve;
smooth = 1;
x = 407;
y = 677;
},
{
smooth = 0;
x = 588;
y = 677;
},
{
smooth = 0;
x = 733;
y = 547;
}
);
}
);
lib = {
};
name = O;
unicodes = (
);
width = 792;
};
};
com.typesupply.AccentFactory.yCoordinates = {
bottom = {
name = origin;
type = glyphMetric;
};
top = {
name = capHeight;
type = fontInfo;
};
};
};
},
{
glyphname = Oslash;
lastChange = "2019-05-20 09:07:19 +0000";
layers = (
{
color = -1;
components = (
{
alignment = -1;
name = O;
transform = "{1, 0, 0, 1, -3, 0}";
}
);
layerId = "973C19EE-3504-4BDF-BF6D-4817D3AD4E7D";
paths = (
{
closed = 1;
nodes = (
"78 0 LINE",
"825 700 LINE",
"746 700 LINE",
"-2 0 LINE"
);
}
);
width = 787;
},
{
color = -1;
components = (
{
alignment = -1;
name = O;
transform = "{1, 0, 0, 1, -6, 0}";
}
);
layerId = "66953C5E-8AEB-4AF5-804F-512B0A9BA4E6";
paths = (
{
closed = 1;
nodes = (
"132 0 LINE",
"840 700 LINE",
"686 700 LINE",
"-22 0 LINE"
);
}
);
width = 786;
}
);
unicode = 00D8;
userData = {
com.schriftgestaltung.Glyphs.ColorIndex = 4;
};
},
{
glyphname = OE;
lastChange = "2019-05-10 10:24:02 +0000";
layers = (
{
color = -1;
layerId = "973C19EE-3504-4BDF-BF6D-4817D3AD4E7D";
paths = (
{
closed = 1;
nodes = (
"456 -12 OFFCURVE",
"559 38 OFFCURVE",
"638 133 CURVE",
"614 0 LINE",
"1009 0 LINE",
"1019 58 LINE",
"694 58 LINE",
"741 323 LINE",
"1036 323 LINE",
"1046 381 LINE",
"751 381 LINE",
"797 642 LINE",
"1122 642 LINE",
"1133 700 LINE",
"738 700 LINE",
"714 567 LINE",
"669 661 OFFCURVE",
"578 712 OFFCURVE",
"464 712 CURVE SMOOTH",
"253 712 OFFCURVE",
"63 526 OFFCURVE",
"63 299 CURVE SMOOTH",
"63 116 OFFCURVE",
"180 -12 OFFCURVE",
"342 -12 CURVE SMOOTH"
);
},
{
closed = 1;
nodes = (
"231 49 OFFCURVE",
"136 146 OFFCURVE",
"136 302 CURVE SMOOTH",
"136 494 OFFCURVE",
"285 650 OFFCURVE",
"453 650 CURVE SMOOTH",
"584 650 OFFCURVE",
"680 565 OFFCURVE",
"680 418 CURVE SMOOTH",
"680 215 OFFCURVE",
"536 49 OFFCURVE",
"353 49 CURVE SMOOTH"
);
}
);
width = 1117;
},
{
color = -1;
layerId = "66953C5E-8AEB-4AF5-804F-512B0A9BA4E6";
paths = (
{
closed = 1;
nodes = (
"416 -12 OFFCURVE",
"509 19 OFFCURVE",
"561 69 CURVE",
"549 0 LINE",
"999 0 LINE",
"1023 137 LINE",
"744 137 LINE",
"772 291 LINE",
"1021 291 LINE",
"1044 423 LINE",
"795 423 LINE",
"819 563 LINE",
"1098 563 LINE",
"1123 700 LINE",
"673 700 LINE",
"660 627 LINE",
"624 677 OFFCURVE",
"537 712 OFFCURVE",
"455 712 CURVE SMOOTH",
"238 712 OFFCURVE",
"58 533 OFFCURVE",
"58 294 CURVE SMOOTH",
"58 122 OFFCURVE",
"171 -12 OFFCURVE",
"343 -12 CURVE SMOOTH"
);
},
{
closed = 1;
nodes = (
"299 143 OFFCURVE",
"235 208 OFFCURVE",
"235 308 CURVE SMOOTH",
"235 446 OFFCURVE",
"336 557 OFFCURVE",
"459 557 CURVE SMOOTH",
"549 557 OFFCURVE",
"615 496 OFFCURVE",
"615 396 CURVE SMOOTH",
"615 259 OFFCURVE",
"512 143 OFFCURVE",
"388 143 CURVE SMOOTH"
);
}
);
width = 1099;
}
);
leftKerningGroup = O;
leftMetricsKey = O;
rightKerningGroup = E;
rightMetricsKey = E;
unicode = 0152;
userData = {
com.schriftgestaltung.Glyphs.ColorIndex = 4;
com.typesupply.AccentFactory.yCoordinates = {
bottom = {
name = origin;
type = glyphMetric;
};
top = {
name = capHeight;
type = fontInfo;
};
};
};
},
{
glyphname = P;
lastChange = "2019-05-10 10:24:02 +0000";
layers = (
{
color = -1;
layerId = "973C19EE-3504-4BDF-BF6D-4817D3AD4E7D";
paths = (
{
closed = 1;
nodes = (
"103 0 LINE",
"156 299 LINE",
"307 299 LINE SMOOTH",
"471 299 OFFCURVE",
"582 383 OFFCURVE",
"582 528 CURVE SMOOTH",
"582 621 OFFCURVE",
"519 700 OFFCURVE",
"377 700 CURVE SMOOTH",
"156 700 LINE",
"33 0 LINE"
);
},
{
closed = 1;
nodes = (
"216 641 LINE",
"367 641 LINE SMOOTH",
"467 641 OFFCURVE",
"509 590 OFFCURVE",
"509 523 CURVE SMOOTH",
"509 411 OFFCURVE",
"439 359 OFFCURVE",
"317 359 CURVE SMOOTH",
"166 359 LINE"
);
}
);
width = 574;
},
{
color = -1;
layerId = "66953C5E-8AEB-4AF5-804F-512B0A9BA4E6";
paths = (
{
closed = 1;
nodes = (
"190 0 LINE",
"234 250 LINE",
"350 250 LINE SMOOTH",
"525 250 OFFCURVE",
"652 348 OFFCURVE",
"652 505 CURVE SMOOTH",
"652 610 OFFCURVE",
"580 700 OFFCURVE",
"429 700 CURVE SMOOTH",
"142 700 LINE",
"19 0 LINE"
);
},
{
closed = 1;
nodes = (
"289 562 LINE",
"392 562 LINE SMOOTH",
"450 562 OFFCURVE",
"476 538 OFFCURVE",
"476 491 CURVE SMOOTH",
"476 429 OFFCURVE",
"432 386 OFFCURVE",
"361 386 CURVE SMOOTH",
"258 386 LINE"
);
}
);
width = 638;
}
);
leftKerningGroup = H;
leftMetricsKey = H;
unicode = 0050;
userData = {
com.schriftgestaltung.Glyphs.ColorIndex = 4;
com.typesupply.AccentFactory.yCoordinates = {
bottom = {
name = origin;
type = glyphMetric;
};
top = {
name = capHeight;
type = fontInfo;
};
};
};
},
{
glyphname = Thorn;
lastChange = "2019-05-10 10:24:02 +0000";
layers = (
{
color = -1;
layerId = "973C19EE-3504-4BDF-BF6D-4817D3AD4E7D";
paths = (
{
closed = 1;
nodes = (
"103 0 LINE",
"129 150 LINE",
"280 150 LINE SMOOTH",
"445 150 OFFCURVE",
"556 241 OFFCURVE",
"556 383 CURVE SMOOTH",
"556 479 OFFCURVE",
"493 551 OFFCURVE",
"351 551 CURVE SMOOTH",
"200 551 LINE",
"226 700 LINE",
"156 700 LINE",
"33 0 LINE"
);
},
{
closed = 1;
nodes = (
"190 492 LINE",
"341 492 LINE SMOOTH",
"441 492 OFFCURVE",
"483 454 OFFCURVE",
"483 384 CURVE SMOOTH",
"483 275 OFFCURVE",
"413 210 OFFCURVE",
"291 210 CURVE SMOOTH",
"140 210 LINE"
);
}
);
width = 573;
},
{
color = -1;
layerId = "66953C5E-8AEB-4AF5-804F-512B0A9BA4E6";
paths = (
{
closed = 1;
nodes = (
"190 0 LINE",
"212 125 LINE",
"328 125 LINE SMOOTH",
"503 125 OFFCURVE",
"630 224 OFFCURVE",
"630 381 CURVE SMOOTH",
"630 486 OFFCURVE",
"558 575 OFFCURVE",
"407 575 CURVE SMOOTH",
"291 575 LINE",
"313 700 LINE",
"142 700 LINE",
"19 0 LINE"
);
},
{
closed = 1;
nodes = (
"267 437 LINE",
"370 437 LINE SMOOTH",
"428 437 OFFCURVE",
"454 412 OFFCURVE",
"454 371 CURVE SMOOTH",
"454 303 OFFCURVE",
"410 261 OFFCURVE",
"339 261 CURVE SMOOTH",
"236 261 LINE"
);
}
);
width = 638;
}
);
leftKerningGroup = H;
leftMetricsKey = H;
rightMetricsKey = P;
unicode = 00DE;
userData = {
com.schriftgestaltung.Glyphs.ColorIndex = 4;
};
},
{
glyphname = Q;
lastChange = "2019-05-10 10:24:02 +0000";
layers = (
{
background = {
components = (
{
alignment = -1;
name = O;
}
);
paths = (
{
closed = 1;
nodes = (
"677 -137 LINE",
"499 59 LINE",
"430 33 LINE",
"583 -137 LINE"
);
}
);
};
color = -1;
components = (
{
alignment = -1;
name = O;
}
);
layerId = "973C19EE-3504-4BDF-BF6D-4817D3AD4E7D";
paths = (
{
closed = 1;
nodes = (
"677 -137 LINE",
"499 59 LINE",
"430 33 LINE",
"583 -137 LINE"
);
}
);
width = 789;
},
{
background = {
components = (
{
alignment = -1;
name = O;
}
);
paths = (
{
closed = 1;
nodes = (
"697 -120 LINE",
"548 107 LINE",
"380 75 LINE",
"490 -120 LINE"
);
}
);
};
color = -1;
components = (
{
alignment = -1;
name = O;
}
);
layerId = "66953C5E-8AEB-4AF5-804F-512B0A9BA4E6";
paths = (
{
closed = 1;
nodes = (
"697 -120 LINE",
"548 107 LINE",
"380 75 LINE",
"490 -120 LINE"
);
}
);
width = 788;
}
);
leftKerningGroup = O;
leftMetricsKey = O;
unicode = 0051;
userData = {
com.schriftgestaltung.Glyphs.ColorIndex = 4;
com.typesupply.AccentFactory.yCoordinates = {
bottom = {
name = origin;
type = glyphMetric;
};
top = {
name = capHeight;
type = fontInfo;
};
};
};
},
{
glyphname = R;
lastChange = "2019-05-10 10:24:02 +0000";
layers = (
{
anchors = (
{
name = bottom;
position = "{260, 0}";
},
{
name = top;
position = "{343, 700}";
}
);
color = -1;
layerId = "973C19EE-3504-4BDF-BF6D-4817D3AD4E7D";
paths = (
{
closed = 1;
nodes = (
"103 0 LINE",
"155 293 LINE",
"296 293 LINE SMOOTH",
"459 293 OFFCURVE",
"572 382 OFFCURVE",
"572 526 CURVE SMOOTH",
"572 620 OFFCURVE",
"514 700 OFFCURVE",
"372 700 CURVE SMOOTH",
"156 700 LINE",
"33 0 LINE"
);
},
{
closed = 1;
nodes = (
"489 0 LINE",
"384 315 LINE",
"312 315 LINE",
"413 0 LINE"
);
},
{
closed = 1;
nodes = (
"216 641 LINE",
"356 641 LINE SMOOTH",
"458 641 OFFCURVE",
"500 587 OFFCURVE",
"500 520 CURVE SMOOTH",
"500 410 OFFCURVE",
"423 350 OFFCURVE",
"306 350 CURVE SMOOTH",
"165 350 LINE"
);
}
);
width = 584;
},
{
anchors = (
{
name = bottom;
position = "{278, 0}";
},
{
name = top;
position = "{371, 700}";
}
);
color = -1;
layerId = "66953C5E-8AEB-4AF5-804F-512B0A9BA4E6";
paths = (
{
closed = 1;
nodes = (
"190 0 LINE",
"236 263 LINE",
"352 263 LINE SMOOTH",
"527 263 OFFCURVE",
"652 358 OFFCURVE",
"652 508 CURVE SMOOTH",
"652 610 OFFCURVE",
"575 700 OFFCURVE",
"423 700 CURVE SMOOTH",
"142 700 LINE",
"19 0 LINE"
);
},
{
closed = 1;
nodes = (
"570 0 LINE",
"477 304 LINE",
"300 304 LINE",
"383 0 LINE"
);
},
{
closed = 1;
nodes = (
"288 558 LINE",
"394 558 LINE SMOOTH",
"450 558 OFFCURVE",
"475 532 OFFCURVE",
"475 489 CURVE SMOOTH",
"475 426 OFFCURVE",
"431 384 OFFCURVE",
"364 384 CURVE SMOOTH",
"258 384 LINE"
);
}
);
width = 653;
}
);
leftKerningGroup = H;
leftMetricsKey = H;
rightKerningGroup = R;
unicode = 0052;
userData = {
com.schriftgestaltung.Glyphs.ColorIndex = 4;
com.typesupply.AccentFactory.yCoordinates = {
bottom = {
name = origin;
type = glyphMetric;
};
top = {
name = capHeight;
type = fontInfo;
};
};
};
},
{
glyphname = Rcommaaccent;
lastChange = "2019-05-10 10:24:02 +0000";
layers = (
{
anchors = (
{
name = _bottom;
position = "{241, 0}";
}
);
color = -1;
components = (
{
alignment = -1;
name = R;
}
);
layerId = "973C19EE-3504-4BDF-BF6D-4817D3AD4E7D";
paths = (
{
closed = 1;
nodes = (
"213 -226 OFFCURVE",
"252 -197 OFFCURVE",
"266 -119 CURVE SMOOTH",
"269 -100 OFFCURVE",
"271 -76 OFFCURVE",
"270 -52 CURVE",
"191 -52 LINE",
"179 -121 LINE",
"221 -121 LINE",
"219 -135 LINE SMOOTH",
"212 -171 OFFCURVE",
"196 -191 OFFCURVE",
"164 -191 CURVE",
"157 -226 LINE"
);
}
);
width = 584;
},
{
anchors = (
{
name = _bottom;
position = "{283, 0}";
}
);
color = -1;
components = (
{
alignment = -1;
name = R;
}
);
layerId = "66953C5E-8AEB-4AF5-804F-512B0A9BA4E6";
paths = (
{
closed = 1;
nodes = (
"267 -310 OFFCURVE",
"322 -248 OFFCURVE",
"339 -158 CURVE SMOOTH",
"345 -122 OFFCURVE",
"346 -82 OFFCURVE",
"339 -40 CURVE",
"208 -40 LINE",
"187 -163 LINE",
"249 -163 LINE",
"247 -179 LINE SMOOTH",
"239 -224 OFFCURVE",
"217 -245 OFFCURVE",
"183 -245 CURVE",
"172 -310 LINE"
);
}
);
width = 653;
}
);
leftKerningGroup = H;
leftMetricsKey = H;
rightKerningGroup = R;
rightMetricsKey = R;
unicode = 0156;
userData = {
com.schriftgestaltung.Glyphs.ColorIndex = 8;
com.typesupply.AccentFactory.compileType = manual;
};
},
{
glyphname = S;
lastChange = "2019-05-10 10:24:02 +0000";
layers = (
{
anchors = (
{
name = bottom;
position = "{219, 0}";
},
{
name = top;
position = "{367, 700}";
}
);
background = {
paths = (
{
closed = 1;
nodes = (
"389 -12 OFFCURVE",
"493 63 OFFCURVE",
"493 191 CURVE SMOOTH",
"493 408 OFFCURVE",
"161 361 OFFCURVE",
"161 526 CURVE SMOOTH",
"161 606 OFFCURVE",
"230 654 OFFCURVE",
"322 654 CURVE SMOOTH",
"419 654 OFFCURVE",
"462 594 OFFCURVE",
"458 542 CURVE",
"458 542 OFFCURVE",
"458 542 OFFCURVE",
"458 542 CURVE",
"531 542 LINE",
"531 542 OFFCURVE",
"531 542 OFFCURVE",
"531 542 CURVE",
"536 635 OFFCURVE",
"462 712 OFFCURVE",
"326 712 CURVE SMOOTH",
"192 712 OFFCURVE",
"90 637 OFFCURVE",
"90 513 CURVE SMOOTH",
"90 301 OFFCURVE",
"420 357 OFFCURVE",
"420 182 CURVE SMOOTH",
"420 98 OFFCURVE",
"357 45 OFFCURVE",
"258 45 CURVE SMOOTH",
"145 45 OFFCURVE",
"109 116 OFFCURVE",
"113 175 CURVE",
"44 175 LINE",
"43 168 OFFCURVE",
"43 161 OFFCURVE",
"43 155 CURVE SMOOTH",
"43 56 OFFCURVE",
"125 -12 OFFCURVE",
"253 -12 CURVE SMOOTH"
);
}
);
};
color = -1;
layerId = "973C19EE-3504-4BDF-BF6D-4817D3AD4E7D";
paths = (
{
closed = 1;
nodes = (
"424 -12 OFFCURVE",
"526 76 OFFCURVE",
"526 209 CURVE SMOOTH",
"526 296 OFFCURVE",
"466 349 OFFCURVE",
"386 378 CURVE SMOOTH",
"281 416 OFFCURVE",
"196 435 OFFCURVE",
"196 516 CURVE SMOOTH",
"196 595 OFFCURVE",
"259 652 OFFCURVE",
"355 652 CURVE SMOOTH",
"444 652 OFFCURVE",
"487 596 OFFCURVE",
"487 540 CURVE SMOOTH",
"487 534 OFFCURVE",
"486 527 OFFCURVE",
"485 520 CURVE",
"557 520 LINE",
"559 531 OFFCURVE",
"560 542 OFFCURVE",
"560 552 CURVE SMOOTH",
"560 645 OFFCURVE",
"480 712 OFFCURVE",
"363 712 CURVE SMOOTH",
"219 712 OFFCURVE",
"122 629 OFFCURVE",
"122 507 CURVE SMOOTH",
"122 437 OFFCURVE",
"163 380 OFFCURVE",
"251 348 CURVE SMOOTH",
"349 312 OFFCURVE",
"452 295 OFFCURVE",
"452 200 CURVE SMOOTH",
"452 108 OFFCURVE",
"392 47 OFFCURVE",
"276 47 CURVE SMOOTH",
"176 47 OFFCURVE",
"114 103 OFFCURVE",
"114 180 CURVE SMOOTH",
"114 190 OFFCURVE",
"115 200 OFFCURVE",
"117 210 CURVE",
"44 210 LINE",
"42 196 OFFCURVE",
"40 182 OFFCURVE",
"40 169 CURVE SMOOTH",
"40 61 OFFCURVE",
"131 -12 OFFCURVE",
"269 -12 CURVE SMOOTH"
);
}
);
width = 587;
},
{
anchors = (
{
name = bottom;
position = "{251, 0}";
},
{
name = top;
position = "{382, 700}";
}
);
background = {
paths = (
{
closed = 1;
nodes = (
"451 -12 OFFCURVE",
"555 79 OFFCURVE",
"555 203 CURVE SMOOTH",
"555 415 OFFCURVE",
"252 404 OFFCURVE",
"252 512 CURVE SMOOTH",
"252 552 OFFCURVE",
"285 577 OFFCURVE",
"333 577 CURVE SMOOTH",
"379 577 OFFCURVE",
"406 551 OFFCURVE",
"406 514 CURVE SMOOTH",
"406 510 OFFCURVE",
"406 506 OFFCURVE",
"405 502 CURVE",
"587 502 LINE",
"588 509 OFFCURVE",
"588 517 OFFCURVE",
"588 524 CURVE SMOOTH",
"588 641 OFFCURVE",
"487 712 OFFCURVE",
"342 712 CURVE SMOOTH",
"183 712 OFFCURVE",
"67 629 OFFCURVE",
"69 487 CURVE SMOOTH",
"71 279 OFFCURVE",
"371 306 OFFCURVE",
"371 188 CURVE SMOOTH",
"371 145 OFFCURVE",
"337 123 OFFCURVE",
"287 123 CURVE SMOOTH",
"229 123 OFFCURVE",
"201 156 OFFCURVE",
"205 205 CURVE",
"27 205 LINE",
"26 196 OFFCURVE",
"25 186 OFFCURVE",
"25 178 CURVE SMOOTH",
"25 53 OFFCURVE",
"135 -12 OFFCURVE",
"282 -12 CURVE SMOOTH"
);
}
);
};
color = -1;
layerId = "66953C5E-8AEB-4AF5-804F-512B0A9BA4E6";
paths = (
{
closed = 1;
nodes = (
"439 -12 OFFCURVE",
"566 81 OFFCURVE",
"566 227 CURVE SMOOTH",
"566 329 OFFCURVE",
"486 386 OFFCURVE",
"396 418 CURVE SMOOTH",
"331 441 OFFCURVE",
"277 461 OFFCURVE",
"277 507 CURVE SMOOTH",
"277 542 OFFCURVE",
"305 569 OFFCURVE",
"351 569 CURVE SMOOTH",
"393 569 OFFCURVE",
"418 547 OFFCURVE",
"418 518 CURVE SMOOTH",
"418 510 OFFCURVE",
"418 508 OFFCURVE",
"417 502 CURVE",
"602 502 LINE",
"603 513 OFFCURVE",
"604 523 OFFCURVE",
"604 533 CURVE SMOOTH",
"604 648 OFFCURVE",
"516 712 OFFCURVE",
"382 712 CURVE SMOOTH",
"215 712 OFFCURVE",
"92 617 OFFCURVE",
"92 474 CURVE SMOOTH",
"92 393 OFFCURVE",
"145 336 OFFCURVE",
"233 305 CURVE SMOOTH",
"307 279 OFFCURVE",
"379 257 OFFCURVE",
"379 204 CURVE SMOOTH",
"379 161 OFFCURVE",
"343 131 OFFCURVE",
"293 131 CURVE SMOOTH",
"247 131 OFFCURVE",
"216 157 OFFCURVE",
"216 199 CURVE SMOOTH",
"216 203 OFFCURVE",
"216 204 OFFCURVE",
"217 212 CURVE",
"34 212 LINE",
"32 199 OFFCURVE",
"31 187 OFFCURVE",
"31 175 CURVE SMOOTH",
"31 51 OFFCURVE",
"133 -12 OFFCURVE",
"271 -12 CURVE SMOOTH"
);
}
);
width = 617;
}
);
leftKerningGroup = S;
rightKerningGroup = S;
unicode = 0053;
userData = {
com.schriftgestaltung.Glyphs.ColorIndex = 4;
com.typesupply.AccentFactory.yCoordinates = {
bottom = {
name = origin;
type = glyphMetric;
};
top = {
name = capHeight;
type = fontInfo;
};
};
};
},
{
glyphname = Scommaaccent;
lastChange = "2019-05-10 10:24:02 +0000";
layers = (
{
anchors = (
{
name = _bottom;
position = "{247, -3}";
}
);
color = -1;
components = (
{
alignment = -1;
name = S;
}
);
layerId = "973C19EE-3504-4BDF-BF6D-4817D3AD4E7D";
paths = (
{
closed = 1;
nodes = (
"221 -226 OFFCURVE",
"259 -197 OFFCURVE",
"273 -119 CURVE SMOOTH",
"277 -100 OFFCURVE",
"278 -76 OFFCURVE",
"276 -52 CURVE",
"198 -52 LINE",
"186 -121 LINE",
"228 -121 LINE",
"226 -135 LINE SMOOTH",
"220 -171 OFFCURVE",
"203 -191 OFFCURVE",
"170 -191 CURVE",
"164 -226 LINE"
);
}
);
width = 587;
},
{
anchors = (
{
name = _bottom;
position = "{273, 0}";
}
);
color = -1;
components = (
{
alignment = -1;
name = S;
}
);
layerId = "66953C5E-8AEB-4AF5-804F-512B0A9BA4E6";
paths = (
{
closed = 1;
nodes = (
"257 -310 OFFCURVE",
"313 -248 OFFCURVE",
"329 -158 CURVE SMOOTH",
"335 -122 OFFCURVE",
"336 -82 OFFCURVE",
"329 -40 CURVE",
"198 -40 LINE",
"176 -163 LINE",
"239 -163 LINE",
"237 -179 LINE SMOOTH",
"229 -224 OFFCURVE",
"208 -245 OFFCURVE",
"173 -245 CURVE",
"161 -310 LINE"
);
}
);
width = 617;
}
);
leftKerningGroup = S;
leftMetricsKey = S;
rightKerningGroup = S;
rightMetricsKey = S;
unicode = 0218;
userData = {
com.schriftgestaltung.Glyphs.ColorIndex = 8;
com.typesupply.AccentFactory.compileType = manual;
};
},
{
glyphname = Schwa;
lastChange = "2019-05-10 10:24:02 +0000";
layers = (
{
color = -1;
layerId = "973C19EE-3504-4BDF-BF6D-4817D3AD4E7D";
paths = (
{
closed = 1;
nodes = (
"564 -12 OFFCURVE",
"728 188 OFFCURVE",
"728 434 CURVE SMOOTH",
"728 597 OFFCURVE",
"618 712 OFFCURVE",
"450 712 CURVE SMOOTH",
"290 712 OFFCURVE",
"155 621 OFFCURVE",
"91 481 CURVE",
"172 481 LINE",
"220 586 OFFCURVE",
"325 648 OFFCURVE",
"439 648 CURVE SMOOTH",
"567 648 OFFCURVE",
"651 563 OFFCURVE",
"651 426 CURVE SMOOTH",
"651 416 OFFCURVE",
"651 406 OFFCURVE",
"650 396 CURVE SMOOTH",
"646 351 LINE SMOOTH",
"632 181 OFFCURVE",
"500 51 OFFCURVE",
"332 51 CURVE SMOOTH",
"204 51 OFFCURVE",
"125 124 OFFCURVE",
"125 245 CURVE SMOOTH",
"125 264 OFFCURVE",
"127 285 OFFCURVE",
"131 306 CURVE",
"653 306 LINE",
"664 371 LINE",
"72 371 LINE",
"61 332 OFFCURVE",
"53 285 OFFCURVE",
"53 246 CURVE SMOOTH",
"53 85 OFFCURVE",
"164 -12 OFFCURVE",
"323 -12 CURVE SMOOTH"
);
}
);
width = 752;
},
{
color = -1;
layerId = "66953C5E-8AEB-4AF5-804F-512B0A9BA4E6";
paths = (
{
closed = 1;
nodes = (
"587 -12 OFFCURVE",
"760 187 OFFCURVE",
"760 433 CURVE SMOOTH",
"760 593 OFFCURVE",
"642 712 OFFCURVE",
"465 712 CURVE SMOOTH",
"296 712 OFFCURVE",
"155 616 OFFCURVE",
"94 468 CURVE",
"279 468 LINE",
"309 524 OFFCURVE",
"372 558 OFFCURVE",
"443 558 CURVE SMOOTH",
"530 558 OFFCURVE",
"583 505 OFFCURVE",
"583 422 CURVE SMOOTH",
"583 410 OFFCURVE",
"582 398 OFFCURVE",
"580 385 CURVE SMOOTH",
"567 310 LINE SMOOTH",
"548 203 OFFCURVE",
"459 145 OFFCURVE",
"364 145 CURVE SMOOTH",
"282 145 OFFCURVE",
"226 187 OFFCURVE",
"226 267 CURVE SMOOTH",
"226 274 OFFCURVE",
"226 281 OFFCURVE",
"227 289 CURVE",
"586 289 LINE",
"606 401 LINE",
"74 401 LINE",
"60 359 OFFCURVE",
"53 312 OFFCURVE",
"53 272 CURVE SMOOTH",
"53 101 OFFCURVE",
"171 -12 OFFCURVE",
"341 -12 CURVE SMOOTH"
);
}
);
width = 778;
}
);
leftMetricsKey = O;
rightKerningGroup = O;
rightMetricsKey = O;
unicode = 018F;
},
{
glyphname = T;
lastChange = "2019-05-10 10:24:02 +0000";
layers = (
{
anchors = (
{
name = bottom;
position = "{229, 0}";
},
{
name = top;
position = "{353, 700}";
}
);
color = -1;
layerId = "973C19EE-3504-4BDF-BF6D-4817D3AD4E7D";
paths = (
{
closed = 1;
nodes = (
"266 0 LINE",
"379 644 LINE",
"589 644 LINE",
"599 700 LINE",
"110 700 LINE",
"100 644 LINE",
"309 644 LINE",
"196 0 LINE"
);
}
);
width = 549;
},
{
anchors = (
{
name = bottom;
position = "{264, 0}";
},
{
name = top;
position = "{390, 700}";
}
);
color = -1;
layerId = "66953C5E-8AEB-4AF5-804F-512B0A9BA4E6";
paths = (
{
closed = 1;
nodes = (
"353 0 LINE",
"453 566 LINE",
"655 566 LINE",
"678 700 LINE",
"104 700 LINE",
"80 566 LINE",
"282 566 LINE",
"182 0 LINE"
);
}
);
width = 623;
}
);
leftKerningGroup = T;
rightKerningGroup = T;
unicode = 0054;
userData = {
com.schriftgestaltung.Glyphs.ColorIndex = 4;
com.typesupply.AccentFactory.yCoordinates = {
bottom = {
name = origin;
type = glyphMetric;
};
top = {
name = capHeight;
type = fontInfo;
};
};
};
},
{
glyphname = Tcommaaccent;
lastChange = "2019-05-10 10:24:02 +0000";
layers = (
{
color = -1;
components = (
{
alignment = -1;
name = T;
}
);
layerId = "973C19EE-3504-4BDF-BF6D-4817D3AD4E7D";
paths = (
{
closed = 1;
nodes = (
"199 -226 OFFCURVE",
"240 -197 OFFCURVE",
"252 -119 CURVE SMOOTH",
"255 -100 OFFCURVE",
"257 -76 OFFCURVE",
"256 -52 CURVE",
"177 -52 LINE",
"165 -121 LINE",
"207 -121 LINE",
"205 -135 LINE SMOOTH",
"200 -171 OFFCURVE",
"182 -191 OFFCURVE",
"150 -191 CURVE",
"143 -226 LINE"
);
}
);
width = 549;
},
{
color = -1;
components = (
{
alignment = -1;
name = T;
}
);
layerId = "66953C5E-8AEB-4AF5-804F-512B0A9BA4E6";
paths = (
{
closed = 1;
nodes = (
"236 -310 OFFCURVE",
"292 -248 OFFCURVE",
"307 -158 CURVE SMOOTH",
"313 -122 OFFCURVE",
"315 -82 OFFCURVE",
"309 -40 CURVE",
"178 -40 LINE",
"156 -163 LINE",
"219 -163 LINE",
"216 -179 LINE SMOOTH",
"208 -224 OFFCURVE",
"186 -245 OFFCURVE",
"153 -245 CURVE",
"141 -310 LINE"
);
}
);
width = 623;
}
);
leftKerningGroup = T;
leftMetricsKey = T;
rightKerningGroup = T;
rightMetricsKey = T;
unicode = 021A;
userData = {
com.schriftgestaltung.Glyphs.ColorIndex = 8;
com.typesupply.AccentFactory.compileType = manual;
};
},
{
glyphname = U;
lastChange = "2019-05-10 10:24:02 +0000";
layers = (
{
anchors = (
{
name = ogonek;
position = "{349, 0}";
},
{
name = top;
position = "{402, 700}";
}
);
color = -1;
guideLines = (
{
angle = 259.925;
position = "{620, 480}";
}
);
layerId = "973C19EE-3504-4BDF-BF6D-4817D3AD4E7D";
paths = (
{
closed = 1;
nodes = (
"420 -12 OFFCURVE",
"547 70 OFFCURVE",
"580 255 CURVE SMOOTH",
"659 700 LINE",
"589 700 LINE",
"509 255 LINE SMOOTH",
"483 110 OFFCURVE",
"398 51 OFFCURVE",
"290 51 CURVE SMOOTH",
"197 51 OFFCURVE",
"135 94 OFFCURVE",
"135 197 CURVE SMOOTH",
"135 214 OFFCURVE",
"137 234 OFFCURVE",
"141 255 CURVE SMOOTH",
"221 700 LINE",
"151 700 LINE",
"71 255 LINE SMOOTH",
"67 231 OFFCURVE",
"65 208 OFFCURVE",
"65 187 CURVE SMOOTH",
"65 50 OFFCURVE",
"155 -12 OFFCURVE",
"278 -12 CURVE SMOOTH"
);
}
);
width = 661;
},
{
anchors = (
{
name = ogonek;
position = "{384, 2}";
},
{
name = top;
position = "{427, 700}";
}
);
color = -1;
layerId = "66953C5E-8AEB-4AF5-804F-512B0A9BA4E6";
paths = (
{
closed = 1;
nodes = (
"463 -12 OFFCURVE",
"611 81 OFFCURVE",
"646 278 CURVE SMOOTH",
"720 700 LINE",
"549 700 LINE",
"475 278 LINE SMOOTH",
"460 195 OFFCURVE",
"409 147 OFFCURVE",
"328 147 CURVE SMOOTH",
"260 147 OFFCURVE",
"225 181 OFFCURVE",
"225 242 CURVE SMOOTH",
"225 253 OFFCURVE",
"227 265 OFFCURVE",
"229 278 CURVE SMOOTH",
"303 700 LINE",
"132 700 LINE",
"59 278 LINE SMOOTH",
"55 254 OFFCURVE",
"53 232 OFFCURVE",
"53 211 CURVE SMOOTH",
"53 62 OFFCURVE",
"156 -12 OFFCURVE",
"298 -12 CURVE SMOOTH"
);
}
);
width = 705;
}
);
leftKerningGroup = U;
rightKerningGroup = U;
unicode = 0055;
userData = {
com.schriftgestaltung.Glyphs.ColorIndex = 4;
com.typesupply.AccentFactory.yCoordinates = {
bottom = {
name = origin;
type = glyphMetric;
};
top = {
name = capHeight;
type = fontInfo;
};
};
};
},
{
glyphname = V;
lastChange = "2019-05-10 10:24:02 +0000";
layers = (
{
color = -1;
layerId = "973C19EE-3504-4BDF-BF6D-4817D3AD4E7D";
paths = (
{
closed = 1;
nodes = (
"325 0 LINE",
"715 700 LINE",
"639 700 LINE",
"299 79 LINE",
"180 700 LINE",
"104 700 LINE",
"245 0 LINE"
);
}
);
width = 659;
},
{
color = -1;
layerId = "66953C5E-8AEB-4AF5-804F-512B0A9BA4E6";
paths = (
{
closed = 1;
nodes = (
"428 0 LINE",
"800 700 LINE",
"618 700 LINE",
"352 172 LINE",
"271 700 LINE",
"89 700 LINE",
"214 0 LINE"
);
}
);
width = 729;
}
);
leftKerningGroup = V;
rightKerningGroup = V;
unicode = 0056;
userData = {
com.schriftgestaltung.Glyphs.ColorIndex = 4;
com.typesupply.AccentFactory.yCoordinates = {
bottom = {
name = origin;
type = glyphMetric;
};
top = {
name = capHeight;
type = fontInfo;
};
};
};
},
{
glyphname = W;
lastChange = "2019-05-10 10:24:02 +0000";
layers = (
{
anchors = (
{
name = bottom;
position = "{434, 0}";
},
{
name = top;
position = "{558, 700}";
}
);
color = -1;
layerId = "973C19EE-3504-4BDF-BF6D-4817D3AD4E7D";
paths = (
{
closed = 1;
nodes = (
"247 0 LINE",
"532 594 LINE",
"602 0 LINE",
"680 0 LINE",
"1003 700 LINE",
"926 700 LINE",
"658 88 LINE",
"593 700 LINE",
"514 700 LINE",
"227 90 LINE",
"176 700 LINE",
"100 700 LINE",
"170 -1 LINE"
);
}
);
width = 955;
},
{
anchors = (
{
name = bottom;
position = "{482, 0}";
},
{
name = top;
position = "{606, 700}";
}
);
color = -1;
layerId = "66953C5E-8AEB-4AF5-804F-512B0A9BA4E6";
paths = (
{
closed = 1;
nodes = (
"359 0 LINE",
"556 461 LINE",
"587 0 LINE",
"794 0 LINE",
"1100 700 LINE",
"916 700 LINE",
"726 194 LINE",
"696 700 LINE",
"506 700 LINE",
"292 191 LINE",
"281 700 LINE",
"99 700 LINE",
"152 0 LINE"
);
}
);
width = 1052;
}
);
leftKerningGroup = W;
rightKerningGroup = W;
unicode = 0057;
userData = {
com.schriftgestaltung.Glyphs.ColorIndex = 4;
com.typemytype.robofont.layerData = {
b = {
anchors = (
);
components = (
);
contours = (
{
points = (
{
segmentType = line;
smooth = 0;
x = 229;
y = -2;
},
{
segmentType = line;
smooth = 0;
x = 245;
y = 0;
},
{
segmentType = line;
smooth = 0;
x = 473;
y = 727;
},
{
segmentType = line;
smooth = 0;
x = 435;
y = 727;
},
{
segmentType = line;
smooth = 0;
x = 638;
y = 0;
},
{
segmentType = line;
smooth = 0;
x = 654;
y = 0;
},
{
segmentType = line;
smooth = 0;
x = 877;
y = 684;
},
{
segmentType = line;
smooth = 0;
x = 860;
y = 684;
},
{
segmentType = line;
smooth = 0;
x = 636;
y = 7;
},
{
segmentType = line;
smooth = 0;
x = 650;
y = 5;
},
{
segmentType = line;
smooth = 0;
x = 459;
y = 684;
},
{
segmentType = line;
smooth = 0;
x = 442;
y = 684;
},
{
segmentType = line;
smooth = 0;
x = 230;
y = 10;
},
{
segmentType = line;
smooth = 0;
x = 239;
y = 10;
},
{
segmentType = line;
smooth = 0;
x = 54;
y = 684;
},
{
segmentType = line;
smooth = 0;
x = 36;
y = 684;
}
);
}
);
lib = {
};
name = W;
unicodes = (
);
width = 904;
};
};
com.typesupply.AccentFactory.yCoordinates = {
bottom = {
name = origin;
type = glyphMetric;
};
top = {
name = capHeight;
type = fontInfo;
};
};
};
},
{
glyphname = X;
lastChange = "2019-05-10 10:24:02 +0000";
layers = (
{
color = -1;
layerId = "973C19EE-3504-4BDF-BF6D-4817D3AD4E7D";
paths = (
{
closed = 1;
nodes = (
"484 0 LINE",
"182 700 LINE",
"103 700 LINE",
"405 0 LINE"
);
},
{
closed = 1;
nodes = (
"59 0 LINE",
"303 323 LINE",
"272 375 LINE",
"-19 0 LINE"
);
},
{
closed = 1;
nodes = (
"610 700 LINE",
"530 700 LINE",
"288 383 LINE",
"319 331 LINE"
);
}
);
width = 575;
},
{
color = -1;
layerId = "66953C5E-8AEB-4AF5-804F-512B0A9BA4E6";
paths = (
{
closed = 1;
nodes = (
"640 0 LINE",
"297 700 LINE",
"98 700 LINE",
"441 0 LINE"
);
},
{
closed = 1;
nodes = (
"172 0 LINE",
"374 265 LINE",
"299 398 LINE",
"-22 0 LINE"
);
},
{
closed = 1;
nodes = (
"753 700 LINE",
"559 700 LINE",
"359 437 LINE",
"434 304 LINE"
);
}
);
width = 715;
}
);
unicode = 0058;
userData = {
com.schriftgestaltung.Glyphs.ColorIndex = 4;
com.typemytype.robofont.guides = (
{
angle = 90;
isGlobal = 0;
magnetic = 5;
x = 50;
y = 16;
},
{
angle = 90;
isGlobal = 0;
magnetic = 5;
x = 490;
y = 36;
},
{
angle = 0;
isGlobal = 0;
magnetic = 5;
x = 511;
y = 352;
}
);
com.typesupply.AccentFactory.yCoordinates = {
bottom = {
name = origin;
type = glyphMetric;
};
top = {
name = capHeight;
type = fontInfo;
};
};
};
},
{
glyphname = Y;
lastChange = "2019-05-10 10:24:02 +0000";
layers = (
{
anchors = (
{
name = top;
position = "{355, 700}";
}
);
color = -1;
layerId = "973C19EE-3504-4BDF-BF6D-4817D3AD4E7D";
paths = (
{
closed = 1;
nodes = (
"268 0 LINE",
"316 272 LINE",
"617 700 LINE",
"538 700 LINE",
"267 299 LINE",
"306 293 LINE",
"175 700 LINE",
"95 700 LINE",
"246 272 LINE",
"198 0 LINE"
);
}
);
width = 564;
},
{
anchors = (
{
name = top;
position = "{410, 700}";
}
);
color = -1;
layerId = "66953C5E-8AEB-4AF5-804F-512B0A9BA4E6";
paths = (
{
closed = 1;
nodes = (
"370 0 LINE",
"412 232 LINE",
"736 700 LINE",
"543 700 LINE",
"334 372 LINE",
"370 367 LINE",
"275 700 LINE",
"80 700 LINE",
"241 232 LINE",
"199 0 LINE"
);
}
);
width = 671;
}
);
leftKerningGroup = Y;
rightKerningGroup = Y;
unicode = 0059;
userData = {
com.schriftgestaltung.Glyphs.ColorIndex = 4;
com.typesupply.AccentFactory.yCoordinates = {
bottom = {
name = origin;
type = glyphMetric;
};
top = {
name = capHeight;
type = fontInfo;
};
};
};
},
{
glyphname = Z;
lastChange = "2019-05-10 10:24:02 +0000";
layers = (
{
anchors = (
{
name = top;
position = "{335, 700}";
}
);
color = -1;
layerId = "973C19EE-3504-4BDF-BF6D-4817D3AD4E7D";
paths = (
{
closed = 1;
nodes = (
"432 0 LINE",
"443 62 LINE",
"86 62 LINE",
"541 644 LINE",
"551 700 LINE",
"123 700 LINE",
"111 638 LINE",
"457 638 LINE",
"3 56 LINE",
"-7 0 LINE"
);
}
);
width = 525;
},
{
anchors = (
{
name = top;
position = "{372, 700}";
}
);
color = -1;
layerId = "66953C5E-8AEB-4AF5-804F-512B0A9BA4E6";
paths = (
{
closed = 1;
nodes = (
"495 0 LINE",
"520 140 LINE",
"218 140 LINE",
"596 570 LINE",
"619 700 LINE",
"123 700 LINE",
"98 560 LINE",
"398 560 LINE",
"22 130 LINE",
"-1 0 LINE"
);
}
);
width = 596;
}
);
leftKerningGroup = Z;
rightKerningGroup = Z;
unicode = 005A;
userData = {
com.schriftgestaltung.Glyphs.ColorIndex = 4;
com.typesupply.AccentFactory.yCoordinates = {
bottom = {
name = origin;
type = glyphMetric;
};
top = {
name = capHeight;
type = fontInfo;
};
};
};
},
{
glyphname = a;
lastChange = "2019-05-10 10:24:02 +0000";
layers = (
{
anchors = (
{
name = ogonek;
position = "{426, 0}";
},
{
name = top;
position = "{308, 496}";
}
);
background = {
anchors = (
{
name = bottom;
position = "{219, 0}";
},
{
name = ogonek;
position = "{409, 0}";
},
{
name = top;
position = "{307, 496}";
}
);
paths = (
{
closed = 1;
nodes = (
"409 0 LINE",
"462 305 LINE SMOOTH",
"465 322 OFFCURVE",
"467 339 OFFCURVE",
"467 354 CURVE SMOOTH",
"467 447 OFFCURVE",
"412 508 OFFCURVE",
"296 508 CURVE SMOOTH",
"197 508 OFFCURVE",
"87 451 OFFCURVE",
"56 344 CURVE",
"130 344 LINE",
"154 412 OFFCURVE",
"217 448 OFFCURVE",
"286 448 CURVE SMOOTH",
"355 448 OFFCURVE",
"395 411 OFFCURVE",
"395 342 CURVE SMOOTH",
"395 330 OFFCURVE",
"394 318 OFFCURVE",
"392 305 CURVE SMOOTH",
"339 0 LINE"
);
},
{
closed = 1;
nodes = (
"286 -12 OFFCURVE",
"359 74 OFFCURVE",
"391 158 CURVE",
"379 226 LINE",
"363 138 OFFCURVE",
"278 50 OFFCURVE",
"178 50 CURVE SMOOTH",
"111 50 OFFCURVE",
"75 80 OFFCURVE",
"75 126 CURVE SMOOTH",
"75 199 OFFCURVE",
"138 241 OFFCURVE",
"242 241 CURVE SMOOTH",
"411 241 LINE",
"422 301 LINE",
"248 301 LINE SMOOTH",
"100 301 OFFCURVE",
"1 226 OFFCURVE",
"1 114 CURVE SMOOTH",
"1 45 OFFCURVE",
"50 -12 OFFCURVE",
"160 -12 CURVE SMOOTH"
);
}
);
};
color = -1;
layerId = "973C19EE-3504-4BDF-BF6D-4817D3AD4E7D";
paths = (
{
closed = 1;
nodes = (
"426 0 LINE",
"479 305 LINE SMOOTH",
"482 322 OFFCURVE",
"483 338 OFFCURVE",
"483 353 CURVE SMOOTH",
"483 447 OFFCURVE",
"428 508 OFFCURVE",
"311 508 CURVE SMOOTH",
"206 508 OFFCURVE",
"104 451 OFFCURVE",
"73 344 CURVE",
"147 344 LINE",
"171 412 OFFCURVE",
"234 448 OFFCURVE",
"303 448 CURVE SMOOTH",
"372 448 OFFCURVE",
"412 411 OFFCURVE",
"412 342 CURVE SMOOTH",
"412 331 OFFCURVE",
"411 318 OFFCURVE",
"409 305 CURVE SMOOTH",
"385 169 LINE",
"362 0 LINE"
);
},
{
closed = 1;
nodes = (
"311 -12 OFFCURVE",
"376 74 OFFCURVE",
"408 158 CURVE",
"395 226 LINE",
"380 138 OFFCURVE",
"303 50 OFFCURVE",
"203 50 CURVE SMOOTH",
"136 50 OFFCURVE",
"100 80 OFFCURVE",
"100 129 CURVE SMOOTH",
"100 199 OFFCURVE",
"163 241 OFFCURVE",
"267 241 CURVE SMOOTH",
"428 241 LINE",
"439 301 LINE",
"273 301 LINE SMOOTH",
"125 301 OFFCURVE",
"26 233 OFFCURVE",
"26 121 CURVE SMOOTH",
"26 52 OFFCURVE",
"75 -12 OFFCURVE",
"185 -12 CURVE SMOOTH"
);
}
);
width = 528;
},
{
anchors = (
{
name = ogonek;
position = "{510, 0}";
},
{
name = top;
position = "{349, 496}";
}
);
background = {
anchors = (
{
name = bottom;
position = "{220, 0}";
},
{
name = ogonek;
position = "{475, 0}";
},
{
name = top;
position = "{308, 496}";
}
);
paths = (
{
closed = 1;
nodes = (
"475 0 LINE",
"529 305 LINE SMOOTH",
"532 319 OFFCURVE",
"533 333 OFFCURVE",
"533 346 CURVE SMOOTH",
"533 455 OFFCURVE",
"446 508 OFFCURVE",
"317 508 CURVE SMOOTH",
"176 508 OFFCURVE",
"69 431 OFFCURVE",
"40 321 CURVE",
"203 321 LINE",
"216 355 OFFCURVE",
"252 371 OFFCURVE",
"292 371 CURVE SMOOTH",
"327 371 OFFCURVE",
"359 357 OFFCURVE",
"359 319 CURVE SMOOTH",
"359 315 OFFCURVE",
"359 310 OFFCURVE",
"356 295 CURVE SMOOTH",
"304 0 LINE"
);
},
{
closed = 1;
nodes = (
"250 -12 OFFCURVE",
"330 54 OFFCURVE",
"363 138 CURVE",
"353 276 LINE",
"337 187 OFFCURVE",
"289 116 OFFCURVE",
"211 116 CURVE SMOOTH",
"187 116 OFFCURVE",
"165 124 OFFCURVE",
"165 149 CURVE SMOOTH",
"165 173 OFFCURVE",
"190 192 OFFCURVE",
"229 192 CURVE SMOOTH",
"368 192 LINE",
"384 287 LINE",
"224 287 LINE SMOOTH",
"74 287 OFFCURVE",
"-21 230 OFFCURVE",
"-21 121 CURVE SMOOTH",
"-21 51 OFFCURVE",
"29 -12 OFFCURVE",
"143 -12 CURVE SMOOTH"
);
}
);
};
color = -1;
layerId = "66953C5E-8AEB-4AF5-804F-512B0A9BA4E6";
paths = (
{
closed = 1;
nodes = (
"510 0 LINE",
"564 305 LINE SMOOTH",
"567 319 OFFCURVE",
"568 333 OFFCURVE",
"568 346 CURVE SMOOTH",
"568 455 OFFCURVE",
"481 508 OFFCURVE",
"352 508 CURVE SMOOTH",
"211 508 OFFCURVE",
"104 431 OFFCURVE",
"75 321 CURVE",
"238 321 LINE",
"251 355 OFFCURVE",
"287 371 OFFCURVE",
"327 371 CURVE SMOOTH",
"362 371 OFFCURVE",
"394 357 OFFCURVE",
"394 319 CURVE SMOOTH",
"394 315 OFFCURVE",
"394 310 OFFCURVE",
"393 305 CURVE SMOOTH",
"355 92 LINE",
"359 0 LINE"
);
},
{
closed = 1;
nodes = (
"297 -12 OFFCURVE",
"365 54 OFFCURVE",
"398 138 CURVE",
"387 276 LINE",
"372 187 OFFCURVE",
"336 116 OFFCURVE",
"258 116 CURVE SMOOTH",
"234 116 OFFCURVE",
"212 124 OFFCURVE",
"212 145 CURVE SMOOTH",
"212 173 OFFCURVE",
"237 192 OFFCURVE",
"276 192 CURVE SMOOTH",
"403 192 LINE",
"419 287 LINE",
"271 287 LINE SMOOTH",
"121 287 OFFCURVE",
"26 221 OFFCURVE",
"26 118 CURVE SMOOTH",
"26 42 OFFCURVE",
"76 -12 OFFCURVE",
"190 -12 CURVE SMOOTH"
);
}
);
width = 610;
}
);
leftKerningGroup = a;
rightKerningGroup = a;
rightMetricsKey = n;
unicode = 0061;
userData = {
com.schriftgestaltung.Glyphs.ColorIndex = 4;
com.typemytype.robofont.guides = (
{
angle = 90;
isGlobal = 0;
magnetic = 5;
x = 306;
y = 501;
},
{
angle = 0;
isGlobal = 0;
magnetic = 5;
x = 88;
y = 270;
}
);
com.typesupply.AccentFactory.yCoordinates = {
bottom = {
name = origin;
type = glyphMetric;
};
top = {
name = xHeight;
type = fontInfo;
};
};
};
},
{
glyphname = ae;
lastChange = "2019-05-10 10:24:02 +0000";
layers = (
{
anchors = (
{
name = bottom;
position = "{419, 0}";
},
{
name = top;
position = "{507, 496}";
}
);
background = {
anchors = (
{
name = bottom;
position = "{463, 0}";
},
{
name = top;
position = "{551, 496}";
}
);
components = (
{
name = e;
transform = "{1, 0, 0, 1, 423, 0}";
}
);
paths = (
{
closed = 1;
nodes = (
"356 -12 OFFCURVE",
"418 50 OFFCURVE",
"458 106 CURVE",
"451 130 LINE",
"418 0 LINE",
"488 0 LINE",
"576 496 LINE",
"506 496 LINE",
"482 364 LINE",
"510 381 LINE",
"488 457 OFFCURVE",
"429 508 OFFCURVE",
"327 508 CURVE SMOOTH",
"168 508 OFFCURVE",
"44 383 OFFCURVE",
"44 207 CURVE SMOOTH",
"44 87 OFFCURVE",
"119 -12 OFFCURVE",
"249 -12 CURVE SMOOTH"
);
},
{
closed = 1;
nodes = (
"173 49 OFFCURVE",
"116 119 OFFCURVE",
"116 212 CURVE SMOOTH",
"116 347 OFFCURVE",
"205 447 OFFCURVE",
"326 447 CURVE SMOOTH",
"417 447 OFFCURVE",
"472 387 OFFCURVE",
"472 294 CURVE SMOOTH",
"472 159 OFFCURVE",
"385 49 OFFCURVE",
"264 49 CURVE SMOOTH"
);
}
);
};
color = -1;
layerId = "973C19EE-3504-4BDF-BF6D-4817D3AD4E7D";
paths = (
{
closed = 1;
nodes = (
"289 -12 OFFCURVE",
"372 47 OFFCURVE",
"416 115 CURVE",
"442 36 OFFCURVE",
"510 -12 OFFCURVE",
"603 -12 CURVE SMOOTH",
"726 -12 OFFCURVE",
"815 62 OFFCURVE",
"857 161 CURVE",
"790 161 LINE",
"756 91 OFFCURVE",
"694 48 OFFCURVE",
"614 48 CURVE SMOOTH",
"540 48 OFFCURVE",
"472 96 OFFCURVE",
"472 198 CURVE SMOOTH",
"472 209 OFFCURVE",
"473 221 OFFCURVE",
"475 233 CURVE",
"876 233 LINE",
"878 243 OFFCURVE",
"889 296 OFFCURVE",
"889 322 CURVE SMOOTH",
"889 423 OFFCURVE",
"823 508 OFFCURVE",
"697 508 CURVE SMOOTH",
"611 508 OFFCURVE",
"536 472 OFFCURVE",
"483 412 CURVE",
"464 472 OFFCURVE",
"411 508 OFFCURVE",
"321 508 CURVE SMOOTH",
"222 508 OFFCURVE",
"112 451 OFFCURVE",
"81 344 CURVE",
"155 344 LINE",
"179 412 OFFCURVE",
"242 448 OFFCURVE",
"311 448 CURVE SMOOTH",
"380 448 OFFCURVE",
"420 411 OFFCURVE",
"420 342 CURVE SMOOTH",
"420 328 OFFCURVE",
"419 318 OFFCURVE",
"416 301 CURVE",
"263 301 LINE SMOOTH",
"125 301 OFFCURVE",
"26 230 OFFCURVE",
"26 118 CURVE SMOOTH",
"26 49 OFFCURVE",
"75 -12 OFFCURVE",
"185 -12 CURVE SMOOTH"
);
},
{
closed = 1;
nodes = (
"136 50 OFFCURVE",
"100 82 OFFCURVE",
"100 128 CURVE SMOOTH",
"100 201 OFFCURVE",
"163 241 OFFCURVE",
"257 241 CURVE SMOOTH",
"406 241 LINE",
"401 212 LINE",
"379 129 OFFCURVE",
"298 50 OFFCURVE",
"203 50 CURVE SMOOTH"
);
},
{
closed = 1;
nodes = (
"513 394 OFFCURVE",
"598 448 OFFCURVE",
"684 448 CURVE SMOOTH",
"766 448 OFFCURVE",
"821 400 OFFCURVE",
"821 319 CURVE SMOOTH",
"821 311 OFFCURVE",
"820 302 OFFCURVE",
"819 293 CURVE",
"486 293 LINE"
);
}
);
width = 919;
},
{
anchors = (
{
name = bottom;
position = "{463, 0}";
},
{
name = top;
position = "{551, 496}";
}
);
color = -1;
layerId = "66953C5E-8AEB-4AF5-804F-512B0A9BA4E6";
paths = (
{
closed = 1;
nodes = (
"292 -12 OFFCURVE",
"374 14 OFFCURVE",
"432 73 CURVE",
"471 21 OFFCURVE",
"536 -12 OFFCURVE",
"620 -12 CURVE SMOOTH",
"744 -12 OFFCURVE",
"859 71 OFFCURVE",
"904 176 CURVE",
"732 176 LINE",
"715 152 OFFCURVE",
"684 126 OFFCURVE",
"642 126 CURVE SMOOTH",
"584 126 OFFCURVE",
"557 162 OFFCURVE",
"559 205 CURVE",
"559 205 OFFCURVE",
"559 205 OFFCURVE",
"559 205 CURVE",
"917 205 LINE",
"920 215 OFFCURVE",
"933 266 OFFCURVE",
"933 303 CURVE SMOOTH",
"933 426 OFFCURVE",
"843 508 OFFCURVE",
"711 508 CURVE SMOOTH",
"645 508 OFFCURVE",
"584 490 OFFCURVE",
"533 457 CURVE",
"495 491 OFFCURVE",
"435 508 OFFCURVE",
"363 508 CURVE SMOOTH",
"222 508 OFFCURVE",
"115 431 OFFCURVE",
"86 321 CURVE",
"249 321 LINE",
"262 355 OFFCURVE",
"298 371 OFFCURVE",
"338 371 CURVE SMOOTH",
"373 371 OFFCURVE",
"405 357 OFFCURVE",
"405 319 CURVE SMOOTH",
"405 315 OFFCURVE",
"404 302 OFFCURVE",
"401 287 CURVE",
"270 287 LINE SMOOTH",
"120 287 OFFCURVE",
"25 218 OFFCURVE",
"25 115 CURVE SMOOTH",
"25 30 OFFCURVE",
"97 -12 OFFCURVE",
"211 -12 CURVE SMOOTH"
);
},
{
closed = 1;
nodes = (
"233 116 OFFCURVE",
"211 126 OFFCURVE",
"211 149 CURVE SMOOTH",
"211 175 OFFCURVE",
"236 192 OFFCURVE",
"275 192 CURVE SMOOTH",
"371 192 LINE",
"371 192 LINE",
"346 146 OFFCURVE",
"308 116 OFFCURVE",
"257 116 CURVE SMOOTH"
);
},
{
closed = 1;
nodes = (
"603 349 OFFCURVE",
"643 372 OFFCURVE",
"689 372 CURVE SMOOTH",
"735 372 OFFCURVE",
"765 341 OFFCURVE",
"762 300 CURVE",
"762 300 OFFCURVE",
"762 300 OFFCURVE",
"762 300 CURVE",
"580 300 LINE"
);
}
);
width = 968;
}
);
leftKerningGroup = a;
leftMetricsKey = a;
rightKerningGroup = e;
rightMetricsKey = e;
unicode = 00E6;
userData = {
com.schriftgestaltung.Glyphs.ColorIndex = 4;
com.typemytype.robofont.layerData = {
b = {
anchors = (
);
components = (
);
contours = (
{
points = (
{
segmentType = line;
smooth = 0;
x = 547;
y = 261;
},
{
segmentType = line;
smooth = 0;
x = 1043;
y = 261;
},
{
smooth = 0;
x = 1046;
y = 280;
},
{
smooth = 0;
x = 1047;
y = 298;
},
{
segmentType = curve;
smooth = 1;
x = 1047;
y = 315;
},
{
smooth = 0;
x = 1047;
y = 439;
},
{
smooth = 0;
x = 956;
y = 552;
},
{
segmentType = curve;
smooth = 1;
x = 799;
y = 552;
},
{
smooth = 0;
x = 703;
y = 552;
},
{
smooth = 0;
x = 638;
y = 528;
},
{
segmentType = curve;
smooth = 0;
x = 582;
y = 437;
},
{
segmentType = line;
smooth = 0;
x = 582;
y = 540;
},
{
segmentType = line;
smooth = 0;
x = 562;
y = 540;
},
{
segmentType = line;
smooth = 0;
x = 562;
y = 437;
},
{
smooth = 0;
x = 508;
y = 528;
},
{
smooth = 0;
x = 432;
y = 552;
},
{
segmentType = curve;
smooth = 1;
x = 344;
y = 552;
},
{
smooth = 0;
x = 174;
y = 552;
},
{
smooth = 0;
x = 60;
y = 448;
},
{
segmentType = curve;
smooth = 1;
x = 60;
y = 278;
},
{
smooth = 0;
x = 60;
y = 108;
},
{
smooth = 0;
x = 174;
y = -12;
},
{
segmentType = curve;
smooth = 1;
x = 329;
y = -12;
},
{
smooth = 0;
x = 432;
y = -12;
},
{
smooth = 0;
x = 521;
y = 41;
},
{
segmentType = curve;
smooth = 0;
x = 562;
y = 105;
},
{
segmentType = line;
smooth = 0;
x = 562;
y = 0;
},
{
segmentType = line;
smooth = 0;
x = 582;
y = 0;
},
{
segmentType = line;
smooth = 0;
x = 582;
y = 103;
},
{
smooth = 0;
x = 627;
y = 34;
},
{
smooth = 0;
x = 696;
y = -12;
},
{
segmentType = curve;
smooth = 1;
x = 780;
y = -12;
},
{
smooth = 0;
x = 924;
y = -12;
},
{
smooth = 0;
x = 995;
y = 66;
},
{
segmentType = curve;
smooth = 0;
x = 1027;
y = 137;
},
{
segmentType = line;
smooth = 0;
x = 1007;
y = 137;
},
{
smooth = 0;
x = 982;
y = 60;
},
{
smooth = 0;
x = 917;
y = -1;
},
{
segmentType = curve;
smooth = 1;
x = 807;
y = -1;
},
{
smooth = 0;
x = 667;
y = -1;
},
{
smooth = 0;
x = 561;
y = 118;
},
{
segmentType = curve;
smooth = 1;
x = 561;
y = 274;
},
{
segmentType = line;
smooth = 1;
x = 561;
y = 259;
},
{
smooth = 0;
x = 561;
y = 432;
},
{
smooth = 0;
x = 674;
y = 541;
},
{
segmentType = curve;
smooth = 1;
x = 804;
y = 541;
},
{
smooth = 0;
x = 933;
y = 541;
},
{
smooth = 0;
x = 1030;
y = 448;
},
{
segmentType = curve;
smooth = 0;
x = 1027;
y = 290;
},
{
segmentType = line;
smooth = 0;
x = 552;
y = 290;
}
);
},
{
points = (
{
segmentType = curve;
smooth = 1;
x = 81;
y = 278;
},
{
smooth = 0;
x = 81;
y = 438;
},
{
smooth = 0;
x = 192;
y = 536;
},
{
segmentType = curve;
smooth = 1;
x = 323;
y = 536;
},
{
smooth = 0;
x = 456;
y = 536;
},
{
smooth = 0;
x = 567;
y = 430;
},
{
segmentType = curve;
smooth = 1;
x = 567;
y = 270;
},
{
smooth = 0;
x = 567;
y = 110;
},
{
smooth = 0;
x = 456;
y = 5;
},
{
segmentType = curve;
smooth = 1;
x = 323;
y = 5;
},
{
smooth = 0;
x = 192;
y = 5;
},
{
smooth = 0;
x = 81;
y = 118;
}
);
}
);
lib = {
};
name = ae;
unicodes = (
);
width = 1135;
};
};
com.typesupply.AccentFactory.yCoordinates = {
bottom = {
name = origin;
type = glyphMetric;
};
top = {
name = xHeight;
type = fontInfo;
};
};
};
},
{
glyphname = b;
lastChange = "2019-05-10 10:24:02 +0000";
layers = (
{
background = {
paths = (
{
closed = 1;
nodes = (
"446 -12 OFFCURVE",
"568 120 OFFCURVE",
"568 296 CURVE SMOOTH",
"568 416 OFFCURVE",
"493 508 OFFCURVE",
"363 508 CURVE SMOOTH",
"270 508 OFFCURVE",
"210 464 OFFCURVE",
"169 414 CURVE",
"223 720 LINE",
"153 720 LINE",
"26 0 LINE",
"96 0 LINE",
"112 89 LINE",
"133 40 OFFCURVE",
"199 -12 OFFCURVE",
"282 -12 CURVE SMOOTH"
);
},
{
closed = 1;
nodes = (
"199 49 OFFCURVE",
"140 111 OFFCURVE",
"140 205 CURVE SMOOTH",
"140 341 OFFCURVE",
"229 447 OFFCURVE",
"350 447 CURVE SMOOTH",
"440 447 OFFCURVE",
"496 380 OFFCURVE",
"496 286 CURVE SMOOTH",
"496 150 OFFCURVE",
"410 49 OFFCURVE",
"290 49 CURVE SMOOTH"
);
}
);
};
color = -1;
layerId = "973C19EE-3504-4BDF-BF6D-4817D3AD4E7D";
paths = (
{
closed = 1;
nodes = (
"446 -12 OFFCURVE",
"568 120 OFFCURVE",
"568 296 CURVE SMOOTH",
"568 416 OFFCURVE",
"493 508 OFFCURVE",
"363 508 CURVE SMOOTH",
"270 508 OFFCURVE",
"210 464 OFFCURVE",
"169 414 CURVE",
"223 720 LINE",
"153 720 LINE",
"26 0 LINE",
"90 0 LINE",
"112 89 LINE",
"133 40 OFFCURVE",
"199 -12 OFFCURVE",
"282 -12 CURVE SMOOTH"
);
},
{
closed = 1;
nodes = (
"199 49 OFFCURVE",
"140 111 OFFCURVE",
"140 205 CURVE SMOOTH",
"140 341 OFFCURVE",
"229 447 OFFCURVE",
"350 447 CURVE SMOOTH",
"440 447 OFFCURVE",
"496 380 OFFCURVE",
"496 286 CURVE SMOOTH",
"496 150 OFFCURVE",
"410 49 OFFCURVE",
"290 49 CURVE SMOOTH"
);
}
);
width = 611;
},
{
background = {
paths = (
{
closed = 1;
nodes = (
"499 -12 OFFCURVE",
"625 128 OFFCURVE",
"625 292 CURVE SMOOTH",
"625 415 OFFCURVE",
"541 508 OFFCURVE",
"425 508 CURVE SMOOTH",
"356 508 OFFCURVE",
"304 481 OFFCURVE",
"268 447 CURVE",
"316 720 LINE",
"145 720 LINE",
"18 0 LINE",
"189 0 LINE",
"198 53 LINE",
"225 12 OFFCURVE",
"272 -12 OFFCURVE",
"337 -12 CURVE SMOOTH"
);
},
{
closed = 1;
nodes = (
"262 137 OFFCURVE",
"223 179 OFFCURVE",
"223 231 CURVE SMOOTH",
"223 304 OFFCURVE",
"277 359 OFFCURVE",
"349 359 CURVE SMOOTH",
"410 359 OFFCURVE",
"448 314 OFFCURVE",
"448 262 CURVE SMOOTH",
"448 192 OFFCURVE",
"392 137 OFFCURVE",
"320 137 CURVE SMOOTH"
);
}
);
};
color = -1;
layerId = "66953C5E-8AEB-4AF5-804F-512B0A9BA4E6";
paths = (
{
closed = 1;
nodes = (
"499 -12 OFFCURVE",
"625 128 OFFCURVE",
"625 292 CURVE SMOOTH",
"625 415 OFFCURVE",
"541 508 OFFCURVE",
"425 508 CURVE SMOOTH",
"356 508 OFFCURVE",
"304 481 OFFCURVE",
"268 447 CURVE",
"316 720 LINE",
"145 720 LINE",
"18 0 LINE",
"168 0 LINE",
"198 53 LINE",
"225 12 OFFCURVE",
"272 -12 OFFCURVE",
"337 -12 CURVE SMOOTH"
);
},
{
closed = 1;
nodes = (
"262 137 OFFCURVE",
"223 179 OFFCURVE",
"223 231 CURVE SMOOTH",
"223 304 OFFCURVE",
"277 359 OFFCURVE",
"349 359 CURVE SMOOTH",
"410 359 OFFCURVE",
"448 314 OFFCURVE",
"448 262 CURVE SMOOTH",
"448 192 OFFCURVE",
"392 137 OFFCURVE",
"320 137 CURVE SMOOTH"
);
}
);
width = 669;
}
);
leftKerningGroup = l;
leftMetricsKey = l;
rightKerningGroup = o;
rightMetricsKey = o;
unicode = 0062;
userData = {
com.schriftgestaltung.Glyphs.ColorIndex = 4;
com.typemytype.robofont.layerData = {
b = {
anchors = (
);
components = (
);
contours = (
{
points = (
{
segmentType = curve;
smooth = 0;
x = 105;
y = 398;
},
{
segmentType = line;
smooth = 0;
x = 105;
y = 740;
},
{
segmentType = line;
smooth = 0;
x = 85;
y = 740;
},
{
segmentType = line;
smooth = 0;
x = 85;
y = 0;
},
{
segmentType = line;
smooth = 0;
x = 105;
y = 0;
},
{
segmentType = line;
smooth = 0;
x = 105;
y = 140;
},
{
smooth = 0;
x = 137;
y = 60;
},
{
smooth = 0;
x = 223;
y = -12;
},
{
segmentType = curve;
smooth = 1;
x = 342;
y = -12;
},
{
smooth = 0;
x = 498;
y = -12;
},
{
smooth = 0;
x = 611;
y = 108;
},
{
segmentType = curve;
smooth = 1;
x = 611;
y = 278;
},
{
smooth = 0;
x = 611;
y = 448;
},
{
smooth = 0;
x = 498;
y = 552;
},
{
segmentType = curve;
smooth = 1;
x = 342;
y = 552;
},
{
smooth = 0;
x = 223;
y = 552;
},
{
smooth = 0;
x = 138;
y = 480;
}
);
},
{
points = (
{
segmentType = curve;
smooth = 1;
x = 590;
y = 278;
},
{
smooth = 0;
x = 590;
y = 118;
},
{
smooth = 0;
x = 480;
y = 5;
},
{
segmentType = curve;
smooth = 1;
x = 347;
y = 5;
},
{
smooth = 0;
x = 215;
y = 5;
},
{
smooth = 0;
x = 105;
y = 110;
},
{
segmentType = curve;
smooth = 1;
x = 105;
y = 270;
},
{
smooth = 0;
x = 105;
y = 430;
},
{
smooth = 0;
x = 215;
y = 536;
},
{
segmentType = curve;
smooth = 1;
x = 347;
y = 536;
},
{
smooth = 0;
x = 480;
y = 536;
},
{
smooth = 0;
x = 590;
y = 438;
}
);
}
);
lib = {
};
name = b;
unicodes = (
);
width = 671;
};
};
com.typesupply.AccentFactory.yCoordinates = {
bottom = {
name = origin;
type = glyphMetric;
};
top = {
name = ascender;
type = fontInfo;
};
};
};
},
{
glyphname = c;
lastChange = "2019-05-20 09:05:44 +0000";
layers = (
{
anchors = (
{
name = bottom;
position = "{244, -1}";
},
{
name = top;
position = "{337, 497}";
}
);
background = {
anchors = (
{
name = bottom;
position = "{240, -1}";
},
{
name = top;
position = "{333, 497}";
}
);
paths = (
{
closed = 1;
nodes = (
"368 -12 OFFCURVE",
"463 62 OFFCURVE",
"502 166 CURVE",
"432 166 LINE",
"404 89 OFFCURVE",
"331 47 OFFCURVE",
"254 47 CURVE SMOOTH",
"176 47 OFFCURVE",
"112 107 OFFCURVE",
"112 208 CURVE SMOOTH",
"112 346 OFFCURVE",
"205 448 OFFCURVE",
"322 448 CURVE SMOOTH",
"400 448 OFFCURVE",
"459 405 OFFCURVE",
"461 330 CURVE",
"531 330 LINE",
"528 438 OFFCURVE",
"454 508 OFFCURVE",
"333 508 CURVE SMOOTH",
"168 508 OFFCURVE",
"39 380 OFFCURVE",
"39 204 CURVE SMOOTH",
"39 79 OFFCURVE",
"124 -12 OFFCURVE",
"245 -12 CURVE SMOOTH"
);
}
);
};
color = -1;
layerId = "973C19EE-3504-4BDF-BF6D-4817D3AD4E7D";
paths = (
{
closed = 1;
nodes = (
"364 -12 OFFCURVE",
"462 58 OFFCURVE",
"498 156 CURVE",
"428 156 LINE",
"400 83 OFFCURVE",
"329 47 OFFCURVE",
"258 47 CURVE SMOOTH",
"180 47 OFFCURVE",
"116 105 OFFCURVE",
"116 206 CURVE SMOOTH",
"116 348 OFFCURVE",
"211 448 OFFCURVE",
"328 448 CURVE SMOOTH",
"400 448 OFFCURVE",
"459 412 OFFCURVE",
"460 340 CURVE",
"530 340 LINE",
"528 442 OFFCURVE",
"455 508 OFFCURVE",
"337 508 CURVE SMOOTH",
"175 508 OFFCURVE",
"43 378 OFFCURVE",
"43 198 CURVE SMOOTH",
"43 73 OFFCURVE",
"126 -12 OFFCURVE",
"247 -12 CURVE SMOOTH"
);
}
);
width = 560;
},
{
anchors = (
{
name = bottom;
position = "{270, 0}";
},
{
name = top;
position = "{366, 496}";
}
);
background = {
anchors = (
{
name = bottom;
position = "{260, 0}";
},
{
name = top;
position = "{348, 496}";
}
);
paths = (
{
closed = 1;
nodes = (
"394 -12 OFFCURVE",
"510 69 OFFCURVE",
"556 198 CURVE",
"374 198 LINE",
"359 160 OFFCURVE",
"326 134 OFFCURVE",
"286 134 CURVE SMOOTH",
"241 134 OFFCURVE",
"214 169 OFFCURVE",
"214 221 CURVE SMOOTH",
"214 297 OFFCURVE",
"264 362 OFFCURVE",
"327 362 CURVE SMOOTH",
"364 362 OFFCURVE",
"390 337 OFFCURVE",
"391 298 CURVE",
"573 298 LINE",
"574 431 OFFCURVE",
"481 508 OFFCURVE",
"349 508 CURVE SMOOTH",
"171 508 OFFCURVE",
"38 374 OFFCURVE",
"38 205 CURVE SMOOTH",
"38 82 OFFCURVE",
"125 -12 OFFCURVE",
"262 -12 CURVE SMOOTH"
);
}
);
};
color = -1;
layerId = "66953C5E-8AEB-4AF5-804F-512B0A9BA4E6";
paths = (
{
closed = 1;
nodes = (
"407 -12 OFFCURVE",
"524 69 OFFCURVE",
"570 198 CURVE",
"388 198 LINE",
"373 160 OFFCURVE",
"340 134 OFFCURVE",
"296 134 CURVE SMOOTH",
"247 134 OFFCURVE",
"220 169 OFFCURVE",
"220 219 CURVE SMOOTH",
"220 297 OFFCURVE",
"272 362 OFFCURVE",
"337 362 CURVE SMOOTH",
"378 362 OFFCURVE",
"404 337 OFFCURVE",
"405 298 CURVE",
"587 298 LINE",
"588 431 OFFCURVE",
"499 508 OFFCURVE",
"363 508 CURVE SMOOTH",
"177 508 OFFCURVE",
"44 368 OFFCURVE",
"44 203 CURVE SMOOTH",
"44 74 OFFCURVE",
"131 -12 OFFCURVE",
"272 -12 CURVE SMOOTH"
);
}
);
width = 626;
}
);
leftKerningGroup = o;
leftMetricsKey = o;
rightKerningGroup = c;
rightMetricsKey = o;
unicode = 0063;
userData = {
com.schriftgestaltung.Glyphs.ColorIndex = 4;
com.typemytype.robofont.guides = (
{
angle = 90;
isGlobal = 0;
magnetic = 5;
x = 287;
y = 532;
}
);
com.typesupply.AccentFactory.yCoordinates = {
bottom = {
name = origin;
type = glyphMetric;
};
top = {
name = xHeight;
type = fontInfo;
};
};
};
},
{
glyphname = d;
lastChange = "2019-05-10 10:24:02 +0000";
layers = (
{
anchors = (
{
name = bottom;
position = "{270, 0}";
},
{
name = center;
position = "{314, 248}";
},
{
name = top;
position = "{397, 720}";
},
{
name = topright;
position = "{651, 496}";
}
);
background = {
anchors = (
{
name = bottom;
position = "{270, 0}";
},
{
name = center;
position = "{314, 248}";
},
{
name = top;
position = "{397, 720}";
},
{
name = topright;
position = "{651, 496}";
}
);
paths = (
{
closed = 1;
nodes = (
"343 -12 OFFCURVE",
"403 36 OFFCURVE",
"443 86 CURVE",
"428 0 LINE",
"498 0 LINE",
"626 720 LINE",
"556 720 LINE",
"500 408 LINE",
"473 469 OFFCURVE",
"416 508 OFFCURVE",
"327 508 CURVE SMOOTH",
"168 508 OFFCURVE",
"44 383 OFFCURVE",
"44 207 CURVE SMOOTH",
"44 87 OFFCURVE",
"119 -12 OFFCURVE",
"249 -12 CURVE SMOOTH"
);
},
{
closed = 1;
nodes = (
"173 49 OFFCURVE",
"116 119 OFFCURVE",
"116 212 CURVE SMOOTH",
"116 347 OFFCURVE",
"205 447 OFFCURVE",
"326 447 CURVE SMOOTH",
"417 447 OFFCURVE",
"472 387 OFFCURVE",
"472 294 CURVE SMOOTH",
"472 159 OFFCURVE",
"385 49 OFFCURVE",
"264 49 CURVE SMOOTH"
);
}
);
};
color = -1;
layerId = "973C19EE-3504-4BDF-BF6D-4817D3AD4E7D";
paths = (
{
closed = 1;
nodes = (
"343 -12 OFFCURVE",
"403 36 OFFCURVE",
"443 86 CURVE",
"433 0 LINE",
"498 0 LINE",
"626 720 LINE",
"556 720 LINE",
"500 408 LINE",
"473 469 OFFCURVE",
"416 508 OFFCURVE",
"327 508 CURVE SMOOTH",
"168 508 OFFCURVE",
"44 383 OFFCURVE",
"44 207 CURVE SMOOTH",
"44 87 OFFCURVE",
"119 -12 OFFCURVE",
"249 -12 CURVE SMOOTH"
);
},
{
closed = 1;
nodes = (
"173 49 OFFCURVE",
"116 119 OFFCURVE",
"116 212 CURVE SMOOTH",
"116 347 OFFCURVE",
"205 447 OFFCURVE",
"326 447 CURVE SMOOTH",
"417 447 OFFCURVE",
"472 387 OFFCURVE",
"472 294 CURVE SMOOTH",
"472 159 OFFCURVE",
"385 49 OFFCURVE",
"264 49 CURVE SMOOTH"
);
}
);
width = 613;
},
{
anchors = (
{
name = bottom;
position = "{293, 0}";
},
{
name = center;
position = "{337, 248}";
},
{
name = top;
position = "{420, 720}";
},
{
name = topright;
position = "{717, 496}";
}
);
background = {
anchors = (
{
name = bottom;
position = "{293, 0}";
},
{
name = center;
position = "{337, 248}";
},
{
name = top;
position = "{420, 720}";
},
{
name = topright;
position = "{717, 496}";
}
);
paths = (
{
closed = 1;
nodes = (
"313 -12 OFFCURVE",
"365 20 OFFCURVE",
"400 60 CURVE",
"390 0 LINE",
"561 0 LINE",
"687 720 LINE",
"516 720 LINE",
"468 443 LINE",
"445 478 OFFCURVE",
"401 508 OFFCURVE",
"323 508 CURVE SMOOTH",
"169 508 OFFCURVE",
"45 376 OFFCURVE",
"45 208 CURVE SMOOTH",
"45 82 OFFCURVE",
"121 -12 OFFCURVE",
"238 -12 CURVE SMOOTH"
);
},
{
closed = 1;
nodes = (
"255 137 OFFCURVE",
"222 179 OFFCURVE",
"222 231 CURVE SMOOTH",
"222 301 OFFCURVE",
"276 359 OFFCURVE",
"348 359 CURVE SMOOTH",
"406 359 OFFCURVE",
"443 321 OFFCURVE",
"443 269 CURVE SMOOTH",
"443 199 OFFCURVE",
"385 137 OFFCURVE",
"313 137 CURVE SMOOTH"
);
}
);
};
color = -1;
layerId = "66953C5E-8AEB-4AF5-804F-512B0A9BA4E6";
paths = (
{
closed = 1;
nodes = (
"313 -12 OFFCURVE",
"365 20 OFFCURVE",
"400 60 CURVE",
"410 0 LINE",
"561 0 LINE",
"687 720 LINE",
"516 720 LINE",
"468 443 LINE",
"445 478 OFFCURVE",
"401 508 OFFCURVE",
"323 508 CURVE SMOOTH",
"169 508 OFFCURVE",
"45 376 OFFCURVE",
"45 208 CURVE SMOOTH",
"45 82 OFFCURVE",
"121 -12 OFFCURVE",
"238 -12 CURVE SMOOTH"
);
},
{
closed = 1;
nodes = (
"255 137 OFFCURVE",
"222 179 OFFCURVE",
"222 231 CURVE SMOOTH",
"222 301 OFFCURVE",
"276 359 OFFCURVE",
"348 359 CURVE SMOOTH",
"406 359 OFFCURVE",
"443 321 OFFCURVE",
"443 269 CURVE SMOOTH",
"443 199 OFFCURVE",
"385 137 OFFCURVE",
"313 137 CURVE SMOOTH"
);
}
);
width = 667;
}
);
leftKerningGroup = o;
leftMetricsKey = o;
rightKerningGroup = l;
rightMetricsKey = l;
unicode = 0064;
userData = {
com.schriftgestaltung.Glyphs.ColorIndex = 4;
com.typesupply.AccentFactory.yCoordinates = {
bottom = {
name = origin;
type = glyphMetric;
};
top = {
name = ascender;
type = fontInfo;
};
};
};
},
{
glyphname = eth;
lastChange = "2019-05-10 10:24:02 +0000";
layers = (
{
color = -1;
layerId = "973C19EE-3504-4BDF-BF6D-4817D3AD4E7D";
paths = (
{
closed = 1;
nodes = (
"412 -12 OFFCURVE",
"575 99 OFFCURVE",
"575 357 CURVE SMOOTH",
"575 487 OFFCURVE",
"524 606 OFFCURVE",
"426 700 CURVE",
"354 700 LINE",
"450 609 OFFCURVE",
"498 519 OFFCURVE",
"514 416 CURVE",
"482 485 OFFCURVE",
"410 508 OFFCURVE",
"341 508 CURVE SMOOTH",
"179 508 OFFCURVE",
"44 379 OFFCURVE",
"44 212 CURVE SMOOTH",
"44 92 OFFCURVE",
"126 -12 OFFCURVE",
"267 -12 CURVE SMOOTH"
);
},
{
closed = 1;
nodes = (
"180 47 OFFCURVE",
"116 116 OFFCURVE",
"116 218 CURVE SMOOTH",
"116 344 OFFCURVE",
"214 449 OFFCURVE",
"335 449 CURVE SMOOTH",
"424 449 OFFCURVE",
"495 392 OFFCURVE",
"495 286 CURVE SMOOTH",
"495 160 OFFCURVE",
"394 47 OFFCURVE",
"274 47 CURVE SMOOTH"
);
},
{
closed = 1;
nodes = (
"597 657 LINE",
"606 708 LINE",
"302 606 LINE",
"293 555 LINE"
);
}
);
width = 610;
},
{
color = -1;
layerId = "66953C5E-8AEB-4AF5-804F-512B0A9BA4E6";
paths = (
{
closed = 1;
nodes = (
"489 -12 OFFCURVE",
"623 151 OFFCURVE",
"623 375 CURVE SMOOTH",
"623 479 OFFCURVE",
"590 612 OFFCURVE",
"505 700 CURVE",
"348 700 LINE",
"399 646 OFFCURVE",
"437 557 OFFCURVE",
"453 477 CURVE",
"422 491 OFFCURVE",
"390 499 OFFCURVE",
"344 499 CURVE SMOOTH",
"181 499 OFFCURVE",
"47 382 OFFCURVE",
"47 221 CURVE SMOOTH",
"47 97 OFFCURVE",
"144 -12 OFFCURVE",
"296 -12 CURVE SMOOTH"
);
},
{
closed = 1;
nodes = (
"262 134 OFFCURVE",
"224 172 OFFCURVE",
"224 229 CURVE SMOOTH",
"224 298 OFFCURVE",
"278 354 OFFCURVE",
"344 354 CURVE SMOOTH",
"395 354 OFFCURVE",
"434 320 OFFCURVE",
"434 261 CURVE SMOOTH",
"434 193 OFFCURVE",
"381 134 OFFCURVE",
"315 134 CURVE SMOOTH"
);
},
{
closed = 1;
nodes = (
"629 613 LINE",
"646 710 LINE",
"335 620 LINE",
"318 523 LINE"
);
}
);
width = 656;
}
);
leftKerningGroup = o;
leftMetricsKey = o;
rightMetricsKey = o;
unicode = 00F0;
userData = {
com.schriftgestaltung.Glyphs.ColorIndex = 4;
};
},
{
glyphname = dcaron;
lastChange = "2019-05-10 10:24:02 +0000";
layers = (
{
color = -1;
components = (
{
alignment = -1;
name = d;
}
);
layerId = "973C19EE-3504-4BDF-BF6D-4817D3AD4E7D";
paths = (
{
closed = 1;
nodes = (
"721 552 OFFCURVE",
"760 581 OFFCURVE",
"772 655 CURVE SMOOTH",
"776 679 OFFCURVE",
"778 707 OFFCURVE",
"778 740 CURVE",
"697 740 LINE",
"684 664 LINE",
"730 664 LINE",
"725 639 LINE SMOOTH",
"718 606 OFFCURVE",
"703 588 OFFCURVE",
"669 588 CURVE",
"663 552 LINE"
);
}
);
width = 714;
},
{
color = -1;
components = (
{
alignment = -1;
name = d;
}
);
layerId = "66953C5E-8AEB-4AF5-804F-512B0A9BA4E6";
paths = (
{
closed = 1;
nodes = (
"814 470 OFFCURVE",
"870 532 OFFCURVE",
"885 622 CURVE SMOOTH",
"891 658 OFFCURVE",
"892 698 OFFCURVE",
"886 740 CURVE",
"755 740 LINE",
"733 617 LINE",
"796 617 LINE",
"793 601 LINE SMOOTH",
"785 556 OFFCURVE",
"764 535 OFFCURVE",
"730 535 CURVE",
"718 470 LINE"
);
}
);
width = 852;
}
);
leftKerningGroup = o;
leftMetricsKey = o;
rightKerningGroup = lcaron;
rightMetricsKey = lcaron;
unicode = 010F;
userData = {
com.schriftgestaltung.Glyphs.ColorIndex = 8;
com.typesupply.AccentFactory.compileType = manual;
};
},
{
glyphname = dcroat;
lastChange = "2019-05-10 10:24:02 +0000";
layers = (
{
color = -1;
components = (
{
alignment = -1;
name = d;
}
);
layerId = "973C19EE-3504-4BDF-BF6D-4817D3AD4E7D";
paths = (
{
closed = 1;
nodes = (
"677 572 LINE",
"688 632 LINE",
"395 632 LINE",
"384 572 LINE"
);
}
);
width = 663;
},
{
color = -1;
components = (
{
alignment = -1;
name = d;
}
);
guideLines = (
{
position = "{493, 653}";
},
{
position = "{235, 561}";
}
);
layerId = "66953C5E-8AEB-4AF5-804F-512B0A9BA4E6";
paths = (
{
closed = 1;
nodes = (
"726 561 LINE",
"742 653 LINE",
"379 653 LINE",
"363 561 LINE"
);
}
);
width = 684;
}
);
leftKerningGroup = o;
leftMetricsKey = o;
unicode = 0111;
userData = {
com.schriftgestaltung.Glyphs.ColorIndex = 8;
};
},
{
glyphname = e;
lastChange = "2019-05-20 10:56:57 +0000";
layers = (
{
anchors = (
{
name = bottom;
position = "{239, -1}";
},
{
name = ogonek;
position = "{350, 12}";
},
{
name = top;
position = "{331, 496}";
}
);
background = {
anchors = (
{
name = bottom;
position = "{233, 0}";
},
{
name = ogonek;
position = "{344, 12}";
},
{
name = top;
position = "{325, 496}";
}
);
paths = (
{
closed = 1;
nodes = (
"359 -12 OFFCURVE",
"448 62 OFFCURVE",
"490 161 CURVE",
"423 161 LINE",
"389 91 OFFCURVE",
"327 48 OFFCURVE",
"247 48 CURVE SMOOTH",
"173 48 OFFCURVE",
"105 96 OFFCURVE",
"105 198 CURVE SMOOTH",
"105 213 OFFCURVE",
"107 229 OFFCURVE",
"110 247 CURVE SMOOTH",
"115 274 LINE SMOOTH",
"136 387 OFFCURVE",
"226 448 OFFCURVE",
"317 448 CURVE SMOOTH",
"399 448 OFFCURVE",
"454 400 OFFCURVE",
"454 319 CURVE SMOOTH",
"454 311 OFFCURVE",
"453 302 OFFCURVE",
"452 293 CURVE",
"104 293 LINE",
"94 233 LINE",
"509 233 LINE",
"511 243 OFFCURVE",
"522 296 OFFCURVE",
"522 322 CURVE SMOOTH",
"522 423 OFFCURVE",
"456 508 OFFCURVE",
"330 508 CURVE SMOOTH",
"164 508 OFFCURVE",
"37 372 OFFCURVE",
"37 194 CURVE SMOOTH",
"37 70 OFFCURVE",
"115 -12 OFFCURVE",
"236 -12 CURVE SMOOTH"
);
}
);
};
color = -1;
layerId = "973C19EE-3504-4BDF-BF6D-4817D3AD4E7D";
paths = (
{
closed = 1;
nodes = (
"358 -12 OFFCURVE",
"445 55 OFFCURVE",
"486 146 CURVE",
"418 146 LINE",
"386 86 OFFCURVE",
"328 48 OFFCURVE",
"253 48 CURVE SMOOTH",
"179 48 OFFCURVE",
"111 96 OFFCURVE",
"111 198 CURVE SMOOTH",
"111 213 OFFCURVE",
"113 229 OFFCURVE",
"116 247 CURVE SMOOTH",
"121 274 LINE SMOOTH",
"142 387 OFFCURVE",
"232 448 OFFCURVE",
"323 448 CURVE SMOOTH",
"405 448 OFFCURVE",
"460 400 OFFCURVE",
"460 319 CURVE SMOOTH",
"460 311 OFFCURVE",
"459 302 OFFCURVE",
"458 293 CURVE",
"110 293 LINE",
"100 233 LINE",
"515 233 LINE",
"521 258 OFFCURVE",
"528 296 OFFCURVE",
"528 322 CURVE SMOOTH",
"528 423 OFFCURVE",
"462 508 OFFCURVE",
"333 508 CURVE SMOOTH",
"166 508 OFFCURVE",
"43 372 OFFCURVE",
"43 197 CURVE SMOOTH",
"43 70 OFFCURVE",
"121 -12 OFFCURVE",
"242 -12 CURVE SMOOTH"
);
}
);
width = 559;
},
{
anchors = (
{
name = bottom;
position = "{271, -4}";
},
{
name = ogonek;
position = "{376, 11}";
},
{
name = top;
position = "{362, 496}";
}
);
background = {
paths = (
{
closed = 1;
nodes = (
"392 -12 OFFCURVE",
"507 71 OFFCURVE",
"552 176 CURVE",
"380 176 LINE",
"363 152 OFFCURVE",
"332 126 OFFCURVE",
"290 126 CURVE SMOOTH",
"233 126 OFFCURVE",
"207 160 OFFCURVE",
"207 202 CURVE SMOOTH",
"207 208 OFFCURVE",
"207 214 OFFCURVE",
"208 220 CURVE SMOOTH",
"213 250 LINE SMOOTH",
"227 333 OFFCURVE",
"278 372 OFFCURVE",
"337 372 CURVE SMOOTH",
"383 372 OFFCURVE",
"413 341 OFFCURVE",
"410 300 CURVE",
"410 300 OFFCURVE",
"410 300 OFFCURVE",
"410 300 CURVE",
"203 300 LINE",
"186 205 LINE",
"565 205 LINE",
"568 215 OFFCURVE",
"581 266 OFFCURVE",
"581 303 CURVE SMOOTH",
"581 426 OFFCURVE",
"491 508 OFFCURVE",
"359 508 CURVE SMOOTH",
"183 508 OFFCURVE",
"38 376 OFFCURVE",
"38 203 CURVE SMOOTH",
"38 82 OFFCURVE",
"126 -12 OFFCURVE",
"268 -12 CURVE SMOOTH"
);
}
);
};
color = -1;
layerId = "66953C5E-8AEB-4AF5-804F-512B0A9BA4E6";
paths = (
{
closed = 1;
nodes = (
"393 -12 OFFCURVE",
"503 64 OFFCURVE",
"552 164 CURVE",
"376 164 LINE",
"357 143 OFFCURVE",
"330 126 OFFCURVE",
"296 126 CURVE SMOOTH",
"239 126 OFFCURVE",
"213 160 OFFCURVE",
"213 202 CURVE SMOOTH",
"213 208 OFFCURVE",
"213 214 OFFCURVE",
"214 220 CURVE SMOOTH",
"219 250 LINE SMOOTH",
"233 333 OFFCURVE",
"284 372 OFFCURVE",
"343 372 CURVE SMOOTH",
"389 372 OFFCURVE",
"419 341 OFFCURVE",
"416 300 CURVE",
"416 300 OFFCURVE",
"416 300 OFFCURVE",
"416 300 CURVE",
"179 300 LINE",
"162 205 LINE",
"571 205 LINE",
"579 231 OFFCURVE",
"587 266 OFFCURVE",
"587 303 CURVE SMOOTH",
"587 426 OFFCURVE",
"497 508 OFFCURVE",
"365 508 CURVE SMOOTH",
"171 508 OFFCURVE",
"44 364 OFFCURVE",
"44 201 CURVE SMOOTH",
"44 70 OFFCURVE",
"132 -12 OFFCURVE",
"274 -12 CURVE SMOOTH"
);
}
);
width = 623;
}
);
leftKerningGroup = o;
leftMetricsKey = o;
rightKerningGroup = e;
unicode = 0065;
userData = {
com.schriftgestaltung.Glyphs.ColorIndex = 4;
com.typemytype.robofont.layerData = {
b = {
anchors = (
{
name = top;
x = 314;
y = 540;
},
{
name = ogonek;
x = 442;
y = 45;
},
{
name = bottom;
x = 314;
y = 0;
}
);
components = (
);
contours = (
{
points = (
{
segmentType = line;
smooth = 0;
x = 54;
y = 261;
},
{
segmentType = line;
smooth = 0;
x = 564;
y = 261;
},
{
smooth = 0;
x = 567;
y = 280;
},
{
smooth = 0;
x = 568;
y = 298;
},
{
segmentType = curve;
smooth = 1;
x = 568;
y = 315;
},
{
smooth = 0;
x = 568;
y = 434;
},
{
smooth = 0;
x = 482;
y = 552;
},
{
segmentType = curve;
smooth = 1;
x = 330;
y = 552;
},
{
smooth = 0;
x = 164;
y = 552;
},
{
smooth = 0;
x = 60;
y = 438;
},
{
segmentType = curve;
smooth = 1;
x = 60;
y = 270;
},
{
smooth = 0;
x = 60;
y = 103;
},
{
smooth = 0;
x = 164;
y = -12;
},
{
segmentType = curve;
smooth = 1;
x = 316;
y = -12;
},
{
smooth = 0;
x = 451;
y = -12;
},
{
smooth = 0;
x = 516;
y = 66;
},
{
segmentType = curve;
smooth = 0;
x = 548;
y = 137;
},
{
segmentType = line;
smooth = 0;
x = 528;
y = 137;
},
{
smooth = 0;
x = 505;
y = 60;
},
{
smooth = 0;
x = 424;
y = -1;
},
{
segmentType = curve;
smooth = 1;
x = 316;
y = -1;
},
{
smooth = 0;
x = 186;
y = -1;
},
{
smooth = 0;
x = 81;
y = 93;
},
{
segmentType = curve;
smooth = 1;
x = 81;
y = 269;
},
{
segmentType = line;
smooth = 1;
x = 81;
y = 274;
},
{
smooth = 0;
x = 81;
y = 447;
},
{
smooth = 0;
x = 183;
y = 541;
},
{
segmentType = curve;
smooth = 1;
x = 316;
y = 541;
},
{
smooth = 0;
x = 448;
y = 541;
},
{
smooth = 0;
x = 551;
y = 448;
},
{
segmentType = curve;
smooth = 0;
x = 549;
y = 290;
},
{
segmentType = line;
smooth = 0;
x = 53;
y = 290;
}
);
}
);
lib = {
};
name = e;
unicodes = (
);
width = 628;
};
};
com.typesupply.AccentFactory.yCoordinates = {
bottom = {
name = origin;
type = glyphMetric;
};
top = {
name = xHeight;
type = fontInfo;
};
};
};
},
{
glyphname = schwa;
lastChange = "2019-10-15 13:38:06 +0000";
layers = (
{
anchors = (
{
name = bottom;
position = "{228, 0}";
},
{
name = ogonek;
position = "{209, 484}";
},
{
name = top;
position = "{320, 497}";
}
);
color = -1;
layerId = "973C19EE-3504-4BDF-BF6D-4817D3AD4E7D";
paths = (
{
closed = 1;
nodes = (
"393 -12 OFFCURVE",
"516 124 OFFCURVE",
"516 299 CURVE SMOOTH",
"516 426 OFFCURVE",
"438 508 OFFCURVE",
"317 508 CURVE SMOOTH",
"201 508 OFFCURVE",
"114 441 OFFCURVE",
"73 350 CURVE",
"141 350 LINE",
"173 410 OFFCURVE",
"231 448 OFFCURVE",
"306 448 CURVE SMOOTH",
"380 448 OFFCURVE",
"448 400 OFFCURVE",
"448 298 CURVE SMOOTH",
"448 283 OFFCURVE",
"446 267 OFFCURVE",
"443 249 CURVE SMOOTH",
"438 222 LINE SMOOTH",
"417 109 OFFCURVE",
"327 48 OFFCURVE",
"236 48 CURVE SMOOTH",
"154 48 OFFCURVE",
"99 96 OFFCURVE",
"99 177 CURVE SMOOTH",
"99 185 OFFCURVE",
"100 194 OFFCURVE",
"101 203 CURVE",
"449 203 LINE",
"459 263 LINE",
"44 263 LINE",
"38 238 OFFCURVE",
"31 200 OFFCURVE",
"31 174 CURVE SMOOTH",
"31 73 OFFCURVE",
"97 -12 OFFCURVE",
"226 -12 CURVE SMOOTH"
);
}
);
width = 559;
},
{
anchors = (
{
name = bottom;
position = "{261, 0}";
},
{
name = ogonek;
position = "{247, 485}";
},
{
name = top;
position = "{352, 500}";
}
);
color = -1;
layerId = "66953C5E-8AEB-4AF5-804F-512B0A9BA4E6";
paths = (
{
closed = 1;
nodes = (
"452 -12 OFFCURVE",
"579 132 OFFCURVE",
"579 295 CURVE SMOOTH",
"579 426 OFFCURVE",
"491 508 OFFCURVE",
"349 508 CURVE SMOOTH",
"230 508 OFFCURVE",
"120 432 OFFCURVE",
"71 332 CURVE",
"247 332 LINE",
"266 353 OFFCURVE",
"293 370 OFFCURVE",
"327 370 CURVE SMOOTH",
"384 370 OFFCURVE",
"410 336 OFFCURVE",
"410 294 CURVE SMOOTH",
"410 288 OFFCURVE",
"410 282 OFFCURVE",
"409 276 CURVE SMOOTH",
"404 246 LINE SMOOTH",
"390 163 OFFCURVE",
"339 124 OFFCURVE",
"280 124 CURVE SMOOTH",
"234 124 OFFCURVE",
"204 155 OFFCURVE",
"207 196 CURVE",
"207 196 OFFCURVE",
"207 196 OFFCURVE",
"207 196 CURVE",
"444 196 LINE",
"461 291 LINE",
"52 291 LINE",
"44 265 OFFCURVE",
"36 230 OFFCURVE",
"36 193 CURVE SMOOTH",
"36 70 OFFCURVE",
"126 -12 OFFCURVE",
"258 -12 CURVE SMOOTH"
);
}
);
width = 623;
}
);
leftKerningGroup = o;
rightKerningGroup = o;
unicode = 0259;
},
{
glyphname = f;
lastChange = "2019-05-16 16:15:23 +0000";
layers = (
{
color = -1;
layerId = "973C19EE-3504-4BDF-BF6D-4817D3AD4E7D";
paths = (
{
closed = 1;
nodes = (
"124 0 LINE",
"228 588 LINE SMOOTH",
"237 641 OFFCURVE",
"262 660 OFFCURVE",
"314 660 CURVE SMOOTH",
"351 660 LINE",
"362 720 LINE",
"314 720 LINE SMOOTH",
"225 720 OFFCURVE",
"173 679 OFFCURVE",
"158 591 CURVE SMOOTH",
"54 0 LINE"
);
},
{
closed = 1;
nodes = (
"328 436 LINE",
"339 496 LINE",
"66 496 LINE",
"55 436 LINE"
);
}
);
width = 325;
},
{
color = -1;
guideLines = (
{
angle = 260.015;
position = "{387, 487}";
},
{
angle = 260.015;
position = "{61, 487}";
}
);
layerId = "66953C5E-8AEB-4AF5-804F-512B0A9BA4E6";
paths = (
{
closed = 1;
nodes = (
"209 0 LINE",
"302 528 LINE SMOOTH",
"308 561 OFFCURVE",
"324 575 OFFCURVE",
"362 575 CURVE SMOOTH",
"395 575 LINE",
"421 720 LINE",
"362 720 LINE SMOOTH",
"246 720 OFFCURVE",
"157 671 OFFCURVE",
"131 526 CURVE SMOOTH",
"38 0 LINE"
);
},
{
closed = 1;
nodes = (
"363 354 LINE",
"388 496 LINE",
"62 496 LINE",
"37 354 LINE"
);
}
);
width = 388;
}
);
unicode = 0066;
userData = {
com.schriftgestaltung.Glyphs.ColorIndex = 4;
com.typemytype.robofont.layerData = {
b = {
anchors = (
);
components = (
);
contours = (
{
points = (
{
segmentType = line;
smooth = 0;
x = 108;
y = 0;
},
{
segmentType = line;
smooth = 0;
x = 128;
y = 0;
},
{
segmentType = line;
smooth = 1;
x = 128;
y = 609;
},
{
smooth = 0;
x = 128;
y = 701;
},
{
smooth = 0;
x = 162;
y = 742;
},
{
segmentType = curve;
smooth = 0;
x = 275;
y = 742;
},
{
segmentType = line;
smooth = 0;
x = 275;
y = 753;
},
{
smooth = 0;
x = 158;
y = 753;
},
{
smooth = 0;
x = 108;
y = 711;
},
{
segmentType = curve;
smooth = 1;
x = 108;
y = 609;
}
);
}
);
lib = {
};
name = f;
unicodes = (
);
width = 318;
};
};
com.typesupply.AccentFactory.yCoordinates = {
bottom = {
name = origin;
type = glyphMetric;
};
top = {
name = ascender;
type = fontInfo;
};
};
};
},
{
glyphname = g;
lastChange = "2019-05-16 15:30:45 +0000";
layers = (
{
anchors = (
{
name = top;
position = "{299, 496}";
}
);
background = {
paths = (
{
closed = 1;
nodes = (
"264 -232 OFFCURVE",
"368 -153 OFFCURVE",
"368 -45 CURVE SMOOTH",
"368 15 OFFCURVE",
"329 78 OFFCURVE",
"193 90 CURVE SMOOTH",
"87 99 OFFCURVE",
"64 109 OFFCURVE",
"27 143 CURVE",
"23 113 LINE",
"127 187 LINE",
"68 211 LINE",
"-29 139 LINE",
"-36 100 LINE",
"-7 58 OFFCURVE",
"38 37 OFFCURVE",
"178 26 CURVE SMOOTH",
"270 19 OFFCURVE",
"295 -15 OFFCURVE",
"295 -52 CURVE SMOOTH",
"295 -127 OFFCURVE",
"224 -172 OFFCURVE",
"128 -172 CURVE SMOOTH",
"46 -172 OFFCURVE",
"-11 -136 OFFCURVE",
"-11 -77 CURVE SMOOTH",
"-11 -22 OFFCURVE",
"33 30 OFFCURVE",
"89 57 CURVE",
"36 80 LINE",
"-38 39 OFFCURVE",
"-85 -13 OFFCURVE",
"-85 -84 CURVE SMOOTH",
"-85 -173 OFFCURVE",
"-2 -232 OFFCURVE",
"118 -232 CURVE SMOOTH"
);
},
{
closed = 1;
nodes = (
"310 158 OFFCURVE",
"413 250 OFFCURVE",
"413 364 CURVE SMOOTH",
"413 446 OFFCURVE",
"352 508 OFFCURVE",
"246 508 CURVE SMOOTH",
"119 508 OFFCURVE",
"16 416 OFFCURVE",
"16 302 CURVE SMOOTH",
"16 220 OFFCURVE",
"78 158 OFFCURVE",
"184 158 CURVE SMOOTH"
);
},
{
closed = 1;
nodes = (
"133 218 OFFCURVE",
"88 250 OFFCURVE",
"88 309 CURVE SMOOTH",
"88 389 OFFCURVE",
"151 448 OFFCURVE",
"235 448 CURVE SMOOTH",
"297 448 OFFCURVE",
"341 416 OFFCURVE",
"341 357 CURVE SMOOTH",
"341 278 OFFCURVE",
"279 218 OFFCURVE",
"195 218 CURVE SMOOTH"
);
},
{
closed = 1;
nodes = (
"492 436 LINE",
"503 496 LINE",
"298 496 LINE",
"313 436 LINE"
);
}
);
};
color = -1;
layerId = "973C19EE-3504-4BDF-BF6D-4817D3AD4E7D";
paths = (
{
closed = 1;
nodes = (
"321 -232 OFFCURVE",
"424 -149 OFFCURVE",
"424 -41 CURVE SMOOTH",
"424 21 OFFCURVE",
"385 86 OFFCURVE",
"241 96 CURVE SMOOTH",
"154 102 OFFCURVE",
"127 117 OFFCURVE",
"87 144 CURVE",
"77 110 LINE",
"178 187 LINE",
"122 211 LINE",
"20 132 LINE",
"16 108 LINE",
"54 68 OFFCURVE",
"115 42 OFFCURVE",
"235 34 CURVE SMOOTH",
"327 28 OFFCURVE",
"351 -8 OFFCURVE",
"351 -47 CURVE SMOOTH",
"351 -122 OFFCURVE",
"282 -172 OFFCURVE",
"184 -172 CURVE SMOOTH",
"96 -172 OFFCURVE",
"45 -136 OFFCURVE",
"45 -77 CURVE SMOOTH",
"45 -24 OFFCURVE",
"79 19 OFFCURVE",
"137 51 CURVE",
"84 75 LINE",
"9 32 OFFCURVE",
"-29 -23 OFFCURVE",
"-29 -90 CURVE SMOOTH",
"-29 -180 OFFCURVE",
"54 -232 OFFCURVE",
"174 -232 CURVE SMOOTH"
);
},
{
closed = 1;
nodes = (
"370 158 OFFCURVE",
"469 249 OFFCURVE",
"469 366 CURVE SMOOTH",
"469 447 OFFCURVE",
"412 508 OFFCURVE",
"302 508 CURVE SMOOTH",
"172 508 OFFCURVE",
"72 418 OFFCURVE",
"72 300 CURVE SMOOTH",
"72 219 OFFCURVE",
"129 158 OFFCURVE",
"240 158 CURVE SMOOTH"
);
},
{
closed = 1;
nodes = (
"183 218 OFFCURVE",
"144 250 OFFCURVE",
"144 307 CURVE SMOOTH",
"144 391 OFFCURVE",
"204 448 OFFCURVE",
"291 448 CURVE SMOOTH",
"358 448 OFFCURVE",
"398 416 OFFCURVE",
"398 359 CURVE SMOOTH",
"398 276 OFFCURVE",
"338 218 OFFCURVE",
"251 218 CURVE SMOOTH"
);
},
{
closed = 1;
nodes = (
"548 439 LINE",
"559 496 LINE",
"354 496 LINE",
"369 433 LINE"
);
}
);
width = 545;
},
{
anchors = (
{
name = top;
position = "{330, 496}";
}
);
background = {
paths = (
{
closed = 1;
nodes = (
"338 -232 OFFCURVE",
"412 -129 OFFCURVE",
"412 -45 CURVE SMOOTH",
"412 31 OFFCURVE",
"361 84 OFFCURVE",
"227 98 CURVE SMOOTH",
"171 104 OFFCURVE",
"127 117 OFFCURVE",
"136 168 CURVE",
"67 45 LINE",
"219 189 LINE",
"99 223 LINE",
"4 136 LINE",
"-3 101 LINE",
"26 47 OFFCURVE",
"59 -4 OFFCURVE",
"202 -18 CURVE SMOOTH",
"244 -22 OFFCURVE",
"262 -32 OFFCURVE",
"262 -51 CURVE SMOOTH",
"262 -83 OFFCURVE",
"225 -103 OFFCURVE",
"169 -103 CURVE SMOOTH",
"119 -103 OFFCURVE",
"83 -88 OFFCURVE",
"83 -57 CURVE SMOOTH",
"83 -8 OFFCURVE",
"142 13 OFFCURVE",
"187 25 CURVE",
"136 115 LINE",
"3 70 OFFCURVE",
"-69 14 OFFCURVE",
"-69 -77 CURVE SMOOTH",
"-69 -167 OFFCURVE",
"14 -232 OFFCURVE",
"151 -232 CURVE SMOOTH"
);
},
{
closed = 1;
nodes = (
"347 140 OFFCURVE",
"456 237 OFFCURVE",
"456 357 CURVE SMOOTH",
"456 443 OFFCURVE",
"391 508 OFFCURVE",
"279 508 CURVE SMOOTH",
"145 508 OFFCURVE",
"37 411 OFFCURVE",
"37 291 CURVE SMOOTH",
"37 205 OFFCURVE",
"102 140 OFFCURVE",
"214 140 CURVE SMOOTH"
);
},
{
closed = 1;
nodes = (
"203 265 OFFCURVE",
"177 282 OFFCURVE",
"177 312 CURVE SMOOTH",
"177 351 OFFCURVE",
"211 381 OFFCURVE",
"257 381 CURVE SMOOTH",
"289 381 OFFCURVE",
"315 364 OFFCURVE",
"315 334 CURVE SMOOTH",
"315 295 OFFCURVE",
"281 265 OFFCURVE",
"236 265 CURVE SMOOTH"
);
},
{
closed = 1;
nodes = (
"530 396 LINE",
"548 496 LINE",
"339 496 LINE",
"341 396 LINE"
);
}
);
};
color = -1;
guideLines = (
{
position = "{461, 384}";
}
);
layerId = "66953C5E-8AEB-4AF5-804F-512B0A9BA4E6";
paths = (
{
closed = 1;
nodes = (
"356 -232 OFFCURVE",
"467 -154 OFFCURVE",
"467 -36 CURVE SMOOTH",
"467 46 OFFCURVE",
"411 85 OFFCURVE",
"299 96 CURVE SMOOTH",
"218 104 OFFCURVE",
"192 112 OFFCURVE",
"168 128 CURVE",
"96 40 LINE",
"264 189 LINE",
"159 223 LINE",
"22 94 LINE",
"18 71 LINE",
"45 35 OFFCURVE",
"132 -2 OFFCURVE",
"249 -11 CURVE SMOOTH",
"299 -15 OFFCURVE",
"313 -31 OFFCURVE",
"313 -55 CURVE SMOOTH",
"313 -94 OFFCURVE",
"270 -107 OFFCURVE",
"224 -107 CURVE SMOOTH",
"177 -107 OFFCURVE",
"141 -94 OFFCURVE",
"141 -61 CURVE SMOOTH",
"141 -35 OFFCURVE",
"165 -3 OFFCURVE",
"238 15 CURVE",
"209 105 LINE",
"76 67 OFFCURVE",
"-15 -2 OFFCURVE",
"-15 -95 CURVE SMOOTH",
"-15 -188 OFFCURVE",
"69 -232 OFFCURVE",
"204 -232 CURVE SMOOTH"
);
},
{
closed = 1;
nodes = (
"400 140 OFFCURVE",
"508 237 OFFCURVE",
"508 357 CURVE SMOOTH",
"508 443 OFFCURVE",
"444 508 OFFCURVE",
"332 508 CURVE SMOOTH",
"198 508 OFFCURVE",
"90 411 OFFCURVE",
"90 291 CURVE SMOOTH",
"90 205 OFFCURVE",
"155 140 OFFCURVE",
"267 140 CURVE SMOOTH"
);
},
{
closed = 1;
nodes = (
"255 265 OFFCURVE",
"229 282 OFFCURVE",
"229 312 CURVE SMOOTH",
"229 351 OFFCURVE",
"264 381 OFFCURVE",
"310 381 CURVE SMOOTH",
"342 381 OFFCURVE",
"368 364 OFFCURVE",
"368 334 CURVE SMOOTH",
"368 295 OFFCURVE",
"333 265 OFFCURVE",
"289 265 CURVE SMOOTH"
);
},
{
closed = 1;
nodes = (
"584 402 LINE",
"601 496 LINE",
"392 496 LINE",
"394 384 LINE"
);
}
);
width = 579;
}
);
leftKerningGroup = g;
rightKerningGroup = g;
unicode = 0067;
userData = {
com.schriftgestaltung.Glyphs.ColorIndex = 4;
com.typesupply.AccentFactory.yCoordinates = {
top = {
name = xHeight;
type = fontInfo;
};
};
};
},
{
glyphname = gcommaaccent;
lastChange = "2019-05-10 10:24:02 +0000";
layers = (
{
background = {
components = (
{
name = g;
}
);
paths = (
{
closed = 1;
nodes = (
"408 595 LINE",
"422 672 LINE",
"376 672 LINE",
"380 696 LINE SMOOTH",
"386 730 OFFCURVE",
"402 747 OFFCURVE",
"436 747 CURVE SMOOTH",
"442 783 LINE SMOOTH",
"384 783 OFFCURVE",
"345 754 OFFCURVE",
"333 680 CURVE SMOOTH",
"329 656 OFFCURVE",
"327 628 OFFCURVE",
"327 595 CURVE SMOOTH"
);
}
);
};
color = -1;
components = (
{
name = g;
}
);
layerId = "973C19EE-3504-4BDF-BF6D-4817D3AD4E7D";
paths = (
{
closed = 1;
nodes = (
"408 595 LINE",
"422 672 LINE",
"376 672 LINE",
"380 696 LINE SMOOTH",
"386 730 OFFCURVE",
"402 747 OFFCURVE",
"436 747 CURVE SMOOTH",
"442 783 LINE SMOOTH",
"384 783 OFFCURVE",
"345 754 OFFCURVE",
"333 680 CURVE SMOOTH",
"329 656 OFFCURVE",
"327 628 OFFCURVE",
"327 595 CURVE SMOOTH"
);
}
);
width = 545;
},
{
background = {
components = (
{
name = g;
}
);
paths = (
{
closed = 1;
nodes = (
"452 598 LINE",
"474 721 LINE",
"411 721 LINE",
"413 737 LINE SMOOTH",
"419 783 OFFCURVE",
"443 803 OFFCURVE",
"477 803 CURVE",
"488 868 LINE",
"394 868 OFFCURVE",
"337 806 OFFCURVE",
"322 716 CURVE SMOOTH",
"316 680 OFFCURVE",
"314 640 OFFCURVE",
"321 598 CURVE"
);
}
);
};
color = -1;
components = (
{
name = g;
}
);
layerId = "66953C5E-8AEB-4AF5-804F-512B0A9BA4E6";
paths = (
{
closed = 1;
nodes = (
"452 598 LINE",
"474 721 LINE",
"411 721 LINE",
"413 737 LINE SMOOTH",
"419 783 OFFCURVE",
"443 803 OFFCURVE",
"477 803 CURVE",
"488 868 LINE",
"394 868 OFFCURVE",
"337 806 OFFCURVE",
"322 716 CURVE SMOOTH",
"316 680 OFFCURVE",
"314 640 OFFCURVE",
"321 598 CURVE"
);
}
);
width = 579;
}
);
leftKerningGroup = g;
leftMetricsKey = g;
rightKerningGroup = g;
rightMetricsKey = g;
unicode = 0123;
userData = {
com.schriftgestaltung.Glyphs.ColorIndex = 8;
com.typesupply.AccentFactory.compileType = manual;
};
},
{
glyphname = h;
lastChange = "2019-05-10 10:24:02 +0000";
layers = (
{
anchors = (
{
name = bottom;
position = "{237, 0}";
},
{
name = center;
position = "{310, 360}";
},
{
name = top;
position = "{190, 720}";
}
);
color = -1;
layerId = "973C19EE-3504-4BDF-BF6D-4817D3AD4E7D";
paths = (
{
closed = 1;
nodes = (
"459 0 LINE",
"511 293 LINE SMOOTH",
"537 441 OFFCURVE",
"471 508 OFFCURVE",
"357 508 CURVE SMOOTH",
"262 508 OFFCURVE",
"172 447 OFFCURVE",
"139 349 CURVE",
"142 257 LINE",
"164 380 OFFCURVE",
"243 447 OFFCURVE",
"334 447 CURVE SMOOTH",
"420 447 OFFCURVE",
"458 394 OFFCURVE",
"439 285 CURVE SMOOTH",
"389 0 LINE"
);
},
{
closed = 1;
nodes = (
"97 0 LINE",
"223 720 LINE",
"153 720 LINE",
"27 0 LINE"
);
}
);
width = 561;
},
{
anchors = (
{
name = bottom;
position = "{284, 0}";
},
{
name = center;
position = "{350, 360}";
},
{
name = top;
position = "{236, 720}";
}
);
color = -1;
layerId = "66953C5E-8AEB-4AF5-804F-512B0A9BA4E6";
paths = (
{
closed = 1;
nodes = (
"544 0 LINE",
"592 270 LINE SMOOTH",
"619 420 OFFCURVE",
"567 508 OFFCURVE",
"439 508 CURVE SMOOTH",
"343 508 OFFCURVE",
"273 455 OFFCURVE",
"236 386 CURVE",
"235 255 LINE",
"247 323 OFFCURVE",
"294 365 OFFCURVE",
"350 365 CURVE SMOOTH",
"415 365 OFFCURVE",
"431 323 OFFCURVE",
"419 255 CURVE SMOOTH",
"374 0 LINE"
);
},
{
closed = 1;
nodes = (
"190 0 LINE",
"316 720 LINE",
"145 720 LINE",
"19 0 LINE"
);
}
);
width = 644;
}
);
leftKerningGroup = l;
leftMetricsKey = l;
rightKerningGroup = n;
rightMetricsKey = n;
unicode = 0068;
userData = {
com.schriftgestaltung.Glyphs.ColorIndex = 4;
com.typesupply.AccentFactory.yCoordinates = {
bottom = {
name = origin;
type = glyphMetric;
};
top = {
name = ascender;
type = fontInfo;
};
};
};
},
{
glyphname = i;
lastChange = "2019-05-10 10:24:02 +0000";
layers = (
{
anchors = (
{
name = ogonek;
position = "{107, 1}";
}
);
color = -1;
layerId = "973C19EE-3504-4BDF-BF6D-4817D3AD4E7D";
paths = (
{
closed = 1;
nodes = (
"107 0 LINE",
"194 496 LINE",
"124 496 LINE",
"37 0 LINE"
);
},
{
closed = 1;
nodes = (
"218 617 OFFCURVE",
"241 639 OFFCURVE",
"241 669 CURVE SMOOTH",
"241 699 OFFCURVE",
"218 720 OFFCURVE",
"190 720 CURVE SMOOTH",
"162 720 OFFCURVE",
"139 699 OFFCURVE",
"139 669 CURVE SMOOTH",
"139 639 OFFCURVE",
"162 617 OFFCURVE",
"190 617 CURVE SMOOTH"
);
}
);
width = 232;
},
{
anchors = (
{
name = ogonek;
position = "{190, 0}";
}
);
color = -1;
layerId = "66953C5E-8AEB-4AF5-804F-512B0A9BA4E6";
paths = (
{
closed = 1;
nodes = (
"190 0 LINE",
"277 496 LINE",
"106 496 LINE",
"19 0 LINE"
);
},
{
closed = 1;
nodes = (
"276 535 OFFCURVE",
"317 576 OFFCURVE",
"317 627 CURVE SMOOTH",
"317 679 OFFCURVE",
"276 720 OFFCURVE",
"216 720 CURVE SMOOTH",
"155 720 OFFCURVE",
"114 679 OFFCURVE",
"114 627 CURVE SMOOTH",
"114 576 OFFCURVE",
"155 535 OFFCURVE",
"216 535 CURVE SMOOTH"
);
}
);
width = 298;
}
);
leftKerningGroup = i;
rightKerningGroup = i;
unicode = 0069;
userData = {
com.schriftgestaltung.Glyphs.ColorIndex = 4;
com.typemytype.robofont.guides = (
{
angle = 0;
isGlobal = 0;
magnetic = 5;
x = 82;
y = 540;
}
);
com.typesupply.AccentFactory.yCoordinates = {
bottom = {
name = origin;
type = glyphMetric;
};
};
};
},
{
glyphname = idotless;
lastChange = "2019-05-20 09:32:58 +0000";
layers = (
{
anchors = (
{
name = ogonek;
position = "{97, 0}";
},
{
name = top;
position = "{148, 496}";
}
);
color = -1;
layerId = "973C19EE-3504-4BDF-BF6D-4817D3AD4E7D";
paths = (
{
closed = 1;
nodes = (
"97 0 LINE",
"184 496 LINE",
"114 496 LINE",
"27 0 LINE"
);
}
);
width = 211;
},
{
anchors = (
{
name = ogonek;
position = "{189, 0}";
},
{
name = top;
position = "{191, 496}";
}
);
color = -1;
layerId = "66953C5E-8AEB-4AF5-804F-512B0A9BA4E6";
paths = (
{
closed = 1;
nodes = (
"189 0 LINE",
"277 496 LINE",
"106 496 LINE",
"18 0 LINE"
);
}
);
width = 295;
}
);
leftKerningGroup = n;
leftMetricsKey = n;
rightKerningGroup = u;
rightMetricsKey = u;
unicode = 0131;
userData = {
com.schriftgestaltung.Glyphs.ColorIndex = 4;
com.typesupply.AccentFactory.yCoordinates = {
bottom = {
name = origin;
type = glyphMetric;
};
top = {
name = xHeight;
type = fontInfo;
};
};
};
},
{
glyphname = j;
lastChange = "2019-05-10 10:24:02 +0000";
layers = (
{
color = -1;
layerId = "973C19EE-3504-4BDF-BF6D-4817D3AD4E7D";
paths = (
{
closed = 1;
nodes = (
"-67 -220 LINE SMOOTH",
"22 -220 OFFCURVE",
"74 -179 OFFCURVE",
"89 -91 CURVE SMOOTH",
"192 496 LINE",
"122 496 LINE",
"19 -88 LINE SMOOTH",
"10 -141 OFFCURVE",
"-15 -160 OFFCURVE",
"-67 -160 CURVE SMOOTH",
"-104 -160 LINE",
"-115 -220 LINE"
);
},
{
closed = 1;
nodes = (
"217 617 OFFCURVE",
"239 639 OFFCURVE",
"239 669 CURVE SMOOTH",
"239 699 OFFCURVE",
"217 720 OFFCURVE",
"189 720 CURVE SMOOTH",
"161 720 OFFCURVE",
"138 699 OFFCURVE",
"138 669 CURVE SMOOTH",
"138 639 OFFCURVE",
"161 617 OFFCURVE",
"189 617 CURVE SMOOTH"
);
}
);
width = 234;
},
{
color = -1;
layerId = "66953C5E-8AEB-4AF5-804F-512B0A9BA4E6";
paths = (
{
closed = 1;
nodes = (
"-54 -220 LINE SMOOTH",
"62 -220 OFFCURVE",
"151 -171 OFFCURVE",
"177 -26 CURVE SMOOTH",
"269 496 LINE",
"98 496 LINE",
"6 -28 LINE SMOOTH",
"0 -61 OFFCURVE",
"-16 -75 OFFCURVE",
"-54 -75 CURVE SMOOTH",
"-95 -75 LINE",
"-121 -220 LINE"
);
},
{
closed = 1;
nodes = (
"268 535 OFFCURVE",
"309 576 OFFCURVE",
"309 627 CURVE SMOOTH",
"309 679 OFFCURVE",
"268 720 OFFCURVE",
"208 720 CURVE SMOOTH",
"147 720 OFFCURVE",
"106 679 OFFCURVE",
"106 627 CURVE SMOOTH",
"106 576 OFFCURVE",
"147 535 OFFCURVE",
"208 535 CURVE SMOOTH"
);
}
);
width = 294;
}
);
unicode = 006A;
userData = {
com.schriftgestaltung.Glyphs.ColorIndex = 4;
com.typesupply.AccentFactory.yCoordinates = {
bottom = {
name = origin;
type = glyphMetric;
};
};
};
},
{
glyphname = k;
lastChange = "2019-05-10 10:24:02 +0000";
layers = (
{
anchors = (
{
name = bottom;
position = "{189, 0}";
}
);
background = {
paths = (
{
closed = 1;
nodes = (
"416 0 LINE",
"203 273 LINE",
"474 496 LINE",
"379 496 LINE",
"118 273 LINE",
"329 0 LINE"
);
},
{
closed = 1;
nodes = (
"96 0 LINE",
"224 720 LINE",
"154 720 LINE",
"26 0 LINE"
);
}
);
};
color = -1;
layerId = "973C19EE-3504-4BDF-BF6D-4817D3AD4E7D";
paths = (
{
closed = 1;
nodes = (
"432 0 LINE",
"191 308 LINE",
"184 244 LINE",
"490 496 LINE",
"395 496 LINE",
"134 273 LINE",
"345 0 LINE"
);
},
{
closed = 1;
nodes = (
"96 0 LINE",
"224 720 LINE",
"154 720 LINE",
"26 0 LINE"
);
}
);
width = 492;
},
{
anchors = (
{
name = bottom;
position = "{270, 0}";
}
);
background = {
paths = (
{
closed = 1;
nodes = (
"189 0 LINE",
"317 720 LINE",
"146 720 LINE",
"18 0 LINE"
);
},
{
closed = 1;
nodes = (
"419 496 LINE",
"203 283 LINE",
"371 0 LINE",
"571 0 LINE",
"386 278 LINE",
"625 496 LINE"
);
}
);
};
color = -1;
layerId = "66953C5E-8AEB-4AF5-804F-512B0A9BA4E6";
paths = (
{
closed = 1;
nodes = (
"585 0 LINE",
"375 315 LINE",
"367 248 LINE",
"639 496 LINE",
"433 496 LINE",
"217 283 LINE",
"385 0 LINE"
);
},
{
closed = 1;
nodes = (
"189 0 LINE",
"317 720 LINE",
"146 720 LINE",
"18 0 LINE"
);
}
);
width = 639;
}
);
leftKerningGroup = l;
leftMetricsKey = l;
rightKerningGroup = k;
unicode = 006B;
userData = {
com.schriftgestaltung.Glyphs.ColorIndex = 4;
com.typemytype.robofont.guides = (
{
angle = 0;
isGlobal = 0;
magnetic = 5;
x = 86;
y = 740;
}
);
com.typesupply.AccentFactory.yCoordinates = {
bottom = {
name = origin;
type = glyphMetric;
};
top = {
name = ascender;
type = fontInfo;
};
};
};
},
{
glyphname = kcommaaccent;
lastChange = "2019-05-10 10:24:02 +0000";
layers = (
{
color = -1;
components = (
{
alignment = -1;
name = k;
}
);
layerId = "973C19EE-3504-4BDF-BF6D-4817D3AD4E7D";
paths = (
{
closed = 1;
nodes = (
"165 -226 OFFCURVE",
"203 -197 OFFCURVE",
"218 -119 CURVE SMOOTH",
"221 -100 OFFCURVE",
"222 -76 OFFCURVE",
"221 -52 CURVE",
"142 -52 LINE",
"130 -121 LINE",
"173 -121 LINE",
"171 -135 LINE SMOOTH",
"164 -171 OFFCURVE",
"148 -191 OFFCURVE",
"115 -191 CURVE",
"108 -226 LINE"
);
}
);
width = 492;
},
{
color = -1;
components = (
{
alignment = -1;
name = k;
}
);
layerId = "66953C5E-8AEB-4AF5-804F-512B0A9BA4E6";
paths = (
{
closed = 1;
nodes = (
"244 -310 OFFCURVE",
"299 -248 OFFCURVE",
"315 -158 CURVE SMOOTH",
"322 -122 OFFCURVE",
"323 -82 OFFCURVE",
"317 -40 CURVE",
"186 -40 LINE",
"164 -163 LINE",
"227 -163 LINE",
"225 -179 LINE SMOOTH",
"216 -224 OFFCURVE",
"194 -245 OFFCURVE",
"161 -245 CURVE",
"149 -310 LINE"
);
}
);
width = 639;
}
);
leftKerningGroup = l;
leftMetricsKey = l;
rightKerningGroup = k;
rightMetricsKey = k;
unicode = 0137;
userData = {
com.schriftgestaltung.Glyphs.ColorIndex = 8;
com.typesupply.AccentFactory.compileType = manual;
};
},
{
glyphname = l;
lastChange = "2019-05-10 10:24:02 +0000";
layers = (
{
anchors = (
{
name = bottom;
position = "{61, 0}";
},
{
name = commaaccent;
position = "{63, 10}";
},
{
name = top;
position = "{189, 720}";
},
{
name = topright;
position = "{247, 546}";
}
);
color = -1;
layerId = "973C19EE-3504-4BDF-BF6D-4817D3AD4E7D";
paths = (
{
closed = 1;
nodes = (
"96 0 LINE",
"224 720 LINE",
"154 720 LINE",
"26 0 LINE"
);
}
);
width = 211;
},
{
anchors = (
{
name = bottom;
position = "{104, 0}";
},
{
name = commaaccent;
position = "{106, 10}";
},
{
name = top;
position = "{231, 720}";
},
{
name = topright;
position = "{342, 558}";
}
);
color = -1;
layerId = "66953C5E-8AEB-4AF5-804F-512B0A9BA4E6";
paths = (
{
closed = 1;
nodes = (
"189 0 LINE",
"317 720 LINE",
"146 720 LINE",
"18 0 LINE"
);
}
);
width = 296;
}
);
leftKerningGroup = l;
rightKerningGroup = l;
unicode = 006C;
userData = {
com.schriftgestaltung.Glyphs.ColorIndex = 4;
com.typesupply.AccentFactory.yCoordinates = {
bottom = {
name = origin;
type = glyphMetric;
};
top = {
name = ascender;
type = fontInfo;
};
};
};
},
{
glyphname = lcaron;
lastChange = "2019-05-10 10:24:02 +0000";
layers = (
{
color = -1;
components = (
{
alignment = -1;
name = l;
}
);
layerId = "973C19EE-3504-4BDF-BF6D-4817D3AD4E7D";
paths = (
{
closed = 1;
nodes = (
"323 552 OFFCURVE",
"361 581 OFFCURVE",
"374 655 CURVE SMOOTH",
"378 679 OFFCURVE",
"380 707 OFFCURVE",
"380 740 CURVE",
"299 740 LINE",
"285 664 LINE",
"331 664 LINE",
"327 639 LINE SMOOTH",
"320 606 OFFCURVE",
"305 588 OFFCURVE",
"271 588 CURVE",
"265 552 LINE"
);
}
);
width = 316;
},
{
color = -1;
components = (
{
alignment = -1;
name = l;
}
);
layerId = "66953C5E-8AEB-4AF5-804F-512B0A9BA4E6";
paths = (
{
closed = 1;
nodes = (
"436 470 OFFCURVE",
"492 532 OFFCURVE",
"507 622 CURVE SMOOTH",
"514 658 OFFCURVE",
"515 698 OFFCURVE",
"509 740 CURVE",
"378 740 LINE",
"356 617 LINE",
"419 617 LINE",
"416 601 LINE SMOOTH",
"408 556 OFFCURVE",
"386 535 OFFCURVE",
"353 535 CURVE",
"341 470 LINE"
);
}
);
width = 474;
}
);
leftKerningGroup = l;
rightKerningGroup = lcaron;
unicode = 013E;
userData = {
com.schriftgestaltung.Glyphs.ColorIndex = 8;
com.typesupply.AccentFactory.compileType = manual;
};
},
{
glyphname = lcommaaccent;
lastChange = "2019-05-10 10:24:02 +0000";
layers = (
{
color = -1;
components = (
{
alignment = -1;
name = l;
}
);
layerId = "973C19EE-3504-4BDF-BF6D-4817D3AD4E7D";
paths = (
{
closed = 1;
nodes = (
"36 -226 OFFCURVE",
"75 -197 OFFCURVE",
"89 -119 CURVE SMOOTH",
"93 -100 OFFCURVE",
"94 -76 OFFCURVE",
"92 -52 CURVE",
"14 -52 LINE",
"1 -121 LINE",
"44 -121 LINE",
"42 -135 LINE SMOOTH",
"36 -171 OFFCURVE",
"19 -191 OFFCURVE",
"-14 -191 CURVE",
"-20 -226 LINE"
);
}
);
width = 229;
},
{
color = -1;
components = (
{
alignment = -1;
name = l;
}
);
layerId = "66953C5E-8AEB-4AF5-804F-512B0A9BA4E6";
paths = (
{
closed = 1;
nodes = (
"83 -310 OFFCURVE",
"139 -248 OFFCURVE",
"155 -158 CURVE SMOOTH",
"162 -122 OFFCURVE",
"163 -82 OFFCURVE",
"156 -40 CURVE",
"25 -40 LINE",
"3 -163 LINE",
"66 -163 LINE",
"64 -179 LINE SMOOTH",
"56 -224 OFFCURVE",
"34 -245 OFFCURVE",
"0 -245 CURVE",
"-12 -310 LINE"
);
}
);
width = 295;
}
);
leftKerningGroup = l;
rightKerningGroup = l;
unicode = 013C;
userData = {
com.schriftgestaltung.Glyphs.ColorIndex = 8;
com.typesupply.AccentFactory.compileType = manual;
};
},
{
glyphname = ldot;
lastChange = "2019-05-10 10:24:02 +0000";
layers = (
{
color = -1;
layerId = "973C19EE-3504-4BDF-BF6D-4817D3AD4E7D";
paths = (
{
closed = 1;
nodes = (
"100 0 LINE",
"228 720 LINE",
"158 720 LINE",
"30 0 LINE"
);
},
{
closed = 1;
nodes = (
"295 322 OFFCURVE",
"316 343 OFFCURVE",
"316 368 CURVE SMOOTH",
"316 393 OFFCURVE",
"295 414 OFFCURVE",
"270 414 CURVE SMOOTH",
"244 414 OFFCURVE",
"224 393 OFFCURVE",
"224 368 CURVE SMOOTH",
"224 343 OFFCURVE",
"244 322 OFFCURVE",
"270 322 CURVE SMOOTH"
);
}
);
width = 326;
},
{
color = -1;
layerId = "66953C5E-8AEB-4AF5-804F-512B0A9BA4E6";
paths = (
{
closed = 1;
nodes = (
"182 0 LINE",
"310 720 LINE",
"139 720 LINE",
"11 0 LINE"
);
},
{
closed = 1;
nodes = (
"397 290 OFFCURVE",
"429 322 OFFCURVE",
"429 363 CURVE SMOOTH",
"429 405 OFFCURVE",
"397 438 OFFCURVE",
"355 438 CURVE SMOOTH",
"313 438 OFFCURVE",
"281 405 OFFCURVE",
"281 363 CURVE SMOOTH",
"281 322 OFFCURVE",
"313 290 OFFCURVE",
"355 290 CURVE SMOOTH"
);
}
);
width = 440;
}
);
leftKerningGroup = l;
rightMetricsKey = "=30";
unicode = 0140;
userData = {
com.typesupply.AccentFactory.compileType = manual;
};
},
{
glyphname = lslash;
lastChange = "2019-05-10 12:31:18 +0000";
layers = (
{
color = -1;
layerId = "973C19EE-3504-4BDF-BF6D-4817D3AD4E7D";
paths = (
{
closed = 1;
nodes = (
"104 0 LINE",
"232 720 LINE",
"162 720 LINE",
"34 0 LINE"
);
},
{
closed = 1;
nodes = (
"256 432 LINE",
"268 496 LINE",
"30 401 LINE",
"19 335 LINE"
);
}
);
width = 239;
},
{
color = -1;
layerId = "66953C5E-8AEB-4AF5-804F-512B0A9BA4E6";
paths = (
{
closed = 1;
nodes = (
"212 0 LINE",
"340 720 LINE",
"169 720 LINE",
"41 0 LINE"
);
},
{
closed = 1;
nodes = (
"336 330 LINE",
"365 494 LINE",
"47 403 LINE",
"18 239 LINE"
);
}
);
width = 342;
}
);
unicode = 0142;
userData = {
com.schriftgestaltung.Glyphs.ColorIndex = 4;
};
},
{
glyphname = m;
lastChange = "2019-05-10 10:24:02 +0000";
layers = (
{
background = {
paths = (
{
closed = 1;
nodes = (
"769 0 LINE",
"821 293 LINE SMOOTH",
"847 441 OFFCURVE",
"773 508 OFFCURVE",
"669 508 CURVE SMOOTH",
"582 508 OFFCURVE",
"490 447 OFFCURVE",
"457 349 CURVE",
"478 257 LINE",
"500 380 OFFCURVE",
"579 447 OFFCURVE",
"656 447 CURVE SMOOTH",
"730 447 OFFCURVE",
"768 394 OFFCURVE",
"749 285 CURVE SMOOTH",
"699 0 LINE"
);
},
{
closed = 1;
nodes = (
"97 0 LINE",
"184 496 LINE",
"114 496 LINE",
"27 0 LINE"
);
},
{
closed = 1;
nodes = (
"433 0 LINE",
"485 293 LINE SMOOTH",
"511 441 OFFCURVE",
"439 508 OFFCURVE",
"335 508 CURVE SMOOTH",
"248 508 OFFCURVE",
"172 447 OFFCURVE",
"139 349 CURVE",
"142 257 LINE",
"164 380 OFFCURVE",
"243 447 OFFCURVE",
"320 447 CURVE SMOOTH",
"394 447 OFFCURVE",
"432 394 OFFCURVE",
"413 285 CURVE SMOOTH",
"363 0 LINE"
);
}
);
};
color = -1;
layerId = "973C19EE-3504-4BDF-BF6D-4817D3AD4E7D";
paths = (
{
closed = 1;
nodes = (
"769 0 LINE",
"821 293 LINE SMOOTH",
"847 441 OFFCURVE",
"773 508 OFFCURVE",
"669 508 CURVE SMOOTH",
"582 508 OFFCURVE",
"490 447 OFFCURVE",
"457 349 CURVE",
"478 257 LINE",
"500 380 OFFCURVE",
"579 447 OFFCURVE",
"656 447 CURVE SMOOTH",
"730 447 OFFCURVE",
"768 394 OFFCURVE",
"749 285 CURVE SMOOTH",
"699 0 LINE"
);
},
{
closed = 1;
nodes = (
"97 0 LINE",
"167 400 LINE",
"177 496 LINE",
"114 496 LINE",
"27 0 LINE"
);
},
{
closed = 1;
nodes = (
"433 0 LINE",
"485 293 LINE SMOOTH",
"511 441 OFFCURVE",
"439 508 OFFCURVE",
"335 508 CURVE SMOOTH",
"248 508 OFFCURVE",
"172 447 OFFCURVE",
"139 349 CURVE",
"142 257 LINE",
"164 380 OFFCURVE",
"243 447 OFFCURVE",
"320 447 CURVE SMOOTH",
"394 447 OFFCURVE",
"432 394 OFFCURVE",
"413 285 CURVE SMOOTH",
"363 0 LINE"
);
}
);
width = 871;
},
{
background = {
paths = (
{
closed = 1;
nodes = (
"870 0 LINE",
"918 270 LINE SMOOTH",
"945 420 OFFCURVE",
"883 508 OFFCURVE",
"744 508 CURVE SMOOTH",
"655 508 OFFCURVE",
"584 458 OFFCURVE",
"537 389 CURVE",
"575 255 LINE",
"587 323 OFFCURVE",
"622 365 OFFCURVE",
"677 365 CURVE SMOOTH",
"734 365 OFFCURVE",
"757 323 OFFCURVE",
"745 255 CURVE SMOOTH",
"700 0 LINE"
);
},
{
closed = 1;
nodes = (
"190 0 LINE",
"277 496 LINE",
"106 496 LINE",
"19 0 LINE"
);
},
{
closed = 1;
nodes = (
"530 0 LINE",
"578 270 LINE SMOOTH",
"605 420 OFFCURVE",
"543 508 OFFCURVE",
"415 508 CURVE SMOOTH",
"323 508 OFFCURVE",
"263 455 OFFCURVE",
"226 386 CURVE",
"235 255 LINE",
"247 323 OFFCURVE",
"284 365 OFFCURVE",
"338 365 CURVE SMOOTH",
"396 365 OFFCURVE",
"417 323 OFFCURVE",
"405 255 CURVE SMOOTH",
"360 0 LINE"
);
}
);
};
color = -1;
layerId = "66953C5E-8AEB-4AF5-804F-512B0A9BA4E6";
paths = (
{
closed = 1;
nodes = (
"870 0 LINE",
"918 270 LINE SMOOTH",
"945 420 OFFCURVE",
"883 508 OFFCURVE",
"744 508 CURVE SMOOTH",
"655 508 OFFCURVE",
"584 458 OFFCURVE",
"537 389 CURVE",
"575 255 LINE",
"587 323 OFFCURVE",
"622 365 OFFCURVE",
"677 365 CURVE SMOOTH",
"734 365 OFFCURVE",
"757 323 OFFCURVE",
"745 255 CURVE SMOOTH",
"700 0 LINE"
);
},
{
closed = 1;
nodes = (
"190 0 LINE",
"261 403 LINE",
"255 496 LINE",
"106 496 LINE",
"19 0 LINE"
);
},
{
closed = 1;
nodes = (
"530 0 LINE",
"578 270 LINE SMOOTH",
"605 420 OFFCURVE",
"543 508 OFFCURVE",
"415 508 CURVE SMOOTH",
"323 508 OFFCURVE",
"263 455 OFFCURVE",
"226 386 CURVE",
"235 255 LINE",
"247 323 OFFCURVE",
"284 365 OFFCURVE",
"338 365 CURVE SMOOTH",
"396 365 OFFCURVE",
"417 323 OFFCURVE",
"405 255 CURVE SMOOTH",
"360 0 LINE"
);
}
);
width = 970;
}
);
leftKerningGroup = n;
leftMetricsKey = n;
rightKerningGroup = n;
rightMetricsKey = n;
unicode = 006D;
userData = {
com.schriftgestaltung.Glyphs.ColorIndex = 4;
com.typemytype.robofont.layerData = {
b = {
anchors = (
);
components = (
);
contours = (
{
points = (
{
segmentType = line;
smooth = 0;
x = 85;
y = 0;
},
{
segmentType = line;
smooth = 0;
x = 105;
y = 0;
},
{
segmentType = line;
smooth = 0;
x = 105;
y = 540;
},
{
segmentType = line;
smooth = 0;
x = 85;
y = 540;
}
);
},
{
points = (
{
segmentType = line;
smooth = 0;
x = 485;
y = 0;
},
{
segmentType = line;
smooth = 0;
x = 504;
y = 0;
},
{
segmentType = line;
smooth = 1;
x = 504;
y = 325;
},
{
smooth = 0;
x = 504;
y = 485;
},
{
smooth = 0;
x = 399;
y = 552;
},
{
segmentType = curve;
smooth = 1;
x = 292;
y = 552;
},
{
smooth = 0;
x = 189;
y = 552;
},
{
smooth = 0;
x = 91;
y = 494;
},
{
segmentType = curve;
smooth = 0;
x = 72;
y = 345;
},
{
segmentType = line;
smooth = 0;
x = 105;
y = 317;
},
{
smooth = 0;
x = 105;
y = 465;
},
{
smooth = 0;
x = 181;
y = 536;
},
{
segmentType = curve;
smooth = 1;
x = 296;
y = 536;
},
{
smooth = 0;
x = 410;
y = 536;
},
{
smooth = 0;
x = 485;
y = 465;
},
{
segmentType = curve;
smooth = 1;
x = 485;
y = 317;
}
);
},
{
points = (
{
segmentType = line;
smooth = 0;
x = 884;
y = 0;
},
{
segmentType = line;
smooth = 0;
x = 903;
y = 0;
},
{
segmentType = line;
smooth = 1;
x = 903;
y = 325;
},
{
smooth = 0;
x = 903;
y = 485;
},
{
smooth = 0;
x = 796;
y = 552;
},
{
segmentType = curve;
smooth = 1;
x = 694;
y = 552;
},
{
smooth = 0;
x = 580;
y = 552;
},
{
smooth = 0;
x = 492;
y = 487;
},
{
segmentType = curve;
smooth = 0;
x = 468;
y = 357;
},
{
segmentType = line;
smooth = 0;
x = 504;
y = 317;
},
{
smooth = 0;
x = 504;
y = 465;
},
{
smooth = 0;
x = 580;
y = 536;
},
{
segmentType = curve;
smooth = 1;
x = 695;
y = 536;
},
{
smooth = 0;
x = 809;
y = 536;
},
{
smooth = 0;
x = 884;
y = 465;
},
{
segmentType = curve;
smooth = 1;
x = 884;
y = 317;
}
);
}
);
lib = {
};
name = m;
unicodes = (
);
width = 1003;
};
};
com.typesupply.AccentFactory.yCoordinates = {
bottom = {
name = origin;
type = glyphMetric;
};
top = {
name = xHeight;
type = fontInfo;
};
};
};
},
{
glyphname = n;
lastChange = "2019-05-10 10:24:02 +0000";
layers = (
{
anchors = (
{
name = bottom;
position = "{237, 0}";
},
{
name = top;
position = "{341, 496}";
}
);
background = {
anchors = (
{
name = bottom;
position = "{237, 0}";
},
{
name = top;
position = "{341, 496}";
}
);
paths = (
{
closed = 1;
nodes = (
"459 0 LINE",
"511 293 LINE SMOOTH",
"515 313 OFFCURVE",
"516 331 OFFCURVE",
"516 349 CURVE SMOOTH",
"516 452 OFFCURVE",
"455 508 OFFCURVE",
"357 508 CURVE SMOOTH",
"262 508 OFFCURVE",
"172 447 OFFCURVE",
"139 349 CURVE",
"142 257 LINE",
"164 380 OFFCURVE",
"243 447 OFFCURVE",
"334 447 CURVE SMOOTH",
"405 447 OFFCURVE",
"444 410 OFFCURVE",
"444 335 CURVE SMOOTH",
"444 320 OFFCURVE",
"442 303 OFFCURVE",
"439 285 CURVE SMOOTH",
"389 0 LINE"
);
},
{
closed = 1;
nodes = (
"97 0 LINE",
"184 496 LINE",
"114 496 LINE",
"27 0 LINE"
);
}
);
};
color = -1;
layerId = "973C19EE-3504-4BDF-BF6D-4817D3AD4E7D";
paths = (
{
closed = 1;
nodes = (
"459 0 LINE",
"511 293 LINE SMOOTH",
"515 313 OFFCURVE",
"516 331 OFFCURVE",
"516 349 CURVE SMOOTH",
"516 452 OFFCURVE",
"455 508 OFFCURVE",
"357 508 CURVE SMOOTH",
"262 508 OFFCURVE",
"172 447 OFFCURVE",
"139 349 CURVE",
"142 257 LINE",
"164 380 OFFCURVE",
"243 447 OFFCURVE",
"334 447 CURVE SMOOTH",
"405 447 OFFCURVE",
"444 410 OFFCURVE",
"444 335 CURVE SMOOTH",
"444 320 OFFCURVE",
"442 303 OFFCURVE",
"439 285 CURVE SMOOTH",
"389 0 LINE"
);
},
{
closed = 1;
nodes = (
"97 0 LINE",
"160 358 LINE",
"178 496 LINE",
"114 496 LINE",
"27 0 LINE"
);
}
);
width = 561;
},
{
anchors = (
{
name = bottom;
position = "{284, 0}";
},
{
name = top;
position = "{395, 496}";
}
);
background = {
anchors = (
{
name = bottom;
position = "{284, 0}";
},
{
name = top;
position = "{395, 496}";
}
);
paths = (
{
closed = 1;
nodes = (
"544 0 LINE",
"592 270 LINE SMOOTH",
"596 295 OFFCURVE",
"599 318 OFFCURVE",
"599 339 CURVE SMOOTH",
"599 447 OFFCURVE",
"542 508 OFFCURVE",
"435 508 CURVE SMOOTH",
"339 508 OFFCURVE",
"273 455 OFFCURVE",
"236 386 CURVE",
"235 255 LINE",
"247 323 OFFCURVE",
"294 365 OFFCURVE",
"350 365 CURVE SMOOTH",
"402 365 OFFCURVE",
"423 338 OFFCURVE",
"423 292 CURVE SMOOTH",
"423 281 OFFCURVE",
"421 269 OFFCURVE",
"419 255 CURVE SMOOTH",
"374 0 LINE"
);
},
{
closed = 1;
nodes = (
"190 0 LINE",
"277 496 LINE",
"106 496 LINE",
"19 0 LINE"
);
}
);
};
color = -1;
layerId = "66953C5E-8AEB-4AF5-804F-512B0A9BA4E6";
paths = (
{
closed = 1;
nodes = (
"544 0 LINE",
"592 270 LINE SMOOTH",
"596 295 OFFCURVE",
"599 318 OFFCURVE",
"599 339 CURVE SMOOTH",
"599 447 OFFCURVE",
"542 508 OFFCURVE",
"435 508 CURVE SMOOTH",
"339 508 OFFCURVE",
"273 455 OFFCURVE",
"236 386 CURVE",
"235 255 LINE",
"247 323 OFFCURVE",
"294 365 OFFCURVE",
"350 365 CURVE SMOOTH",
"402 365 OFFCURVE",
"423 338 OFFCURVE",
"423 292 CURVE SMOOTH",
"423 281 OFFCURVE",
"421 269 OFFCURVE",
"419 255 CURVE SMOOTH",
"374 0 LINE"
);
},
{
closed = 1;
nodes = (
"190 0 LINE",
"261 403 LINE",
"255 496 LINE",
"106 496 LINE",
"19 0 LINE"
);
}
);
width = 644;
}
);
leftKerningGroup = n;
rightKerningGroup = n;
unicode = 006E;
userData = {
com.schriftgestaltung.Glyphs.ColorIndex = 4;
com.typesupply.AccentFactory.yCoordinates = {
bottom = {
name = origin;
type = glyphMetric;
};
top = {
name = xHeight;
type = fontInfo;
};
};
};
},
{
glyphname = ncommaaccent;
lastChange = "2019-05-10 10:24:02 +0000";
layers = (
{
color = -1;
components = (
{
alignment = -1;
name = n;
}
);
layerId = "973C19EE-3504-4BDF-BF6D-4817D3AD4E7D";
paths = (
{
closed = 1;
nodes = (
"222 -226 OFFCURVE",
"259 -197 OFFCURVE",
"275 -119 CURVE SMOOTH",
"279 -100 OFFCURVE",
"279 -76 OFFCURVE",
"278 -52 CURVE",
"199 -52 LINE",
"187 -121 LINE",
"229 -121 LINE",
"227 -135 LINE SMOOTH",
"222 -171 OFFCURVE",
"205 -191 OFFCURVE",
"172 -191 CURVE",
"165 -226 LINE"
);
}
);
width = 561;
},
{
color = -1;
components = (
{
alignment = -1;
name = n;
}
);
layerId = "66953C5E-8AEB-4AF5-804F-512B0A9BA4E6";
paths = (
{
closed = 1;
nodes = (
"261 -310 OFFCURVE",
"317 -248 OFFCURVE",
"332 -158 CURVE SMOOTH",
"338 -122 OFFCURVE",
"340 -82 OFFCURVE",
"333 -40 CURVE",
"202 -40 LINE",
"181 -163 LINE",
"244 -163 LINE",
"241 -179 LINE SMOOTH",
"233 -224 OFFCURVE",
"211 -245 OFFCURVE",
"178 -245 CURVE",
"166 -310 LINE"
);
}
);
width = 644;
}
);
leftKerningGroup = n;
leftMetricsKey = n;
rightKerningGroup = n;
rightMetricsKey = n;
unicode = 0146;
userData = {
com.schriftgestaltung.Glyphs.ColorIndex = 8;
com.typesupply.AccentFactory.compileType = manual;
};
},
{
glyphname = o;
lastChange = "2019-05-10 10:24:02 +0000";
layers = (
{
anchors = (
{
name = bottom;
position = "{245, 0}";
},
{
name = center;
position = "{289, 248}";
},
{
name = ogonek;
position = "{315, 0}";
},
{
name = top;
position = "{334, 496}";
},
{
name = topright;
position = "{607, 496}";
}
);
background = {
anchors = (
{
name = top;
position = "{362, 554}";
}
);
paths = (
{
closed = 1;
nodes = (
"452 -8 OFFCURVE",
"592 143 OFFCURVE",
"592 330 CURVE SMOOTH",
"592 467 OFFCURVE",
"499 554 OFFCURVE",
"362 554 CURVE SMOOTH",
"173 554 OFFCURVE",
"36 402 OFFCURVE",
"36 216 CURVE SMOOTH",
"36 79 OFFCURVE",
"128 -8 OFFCURVE",
"265 -8 CURVE SMOOTH"
);
},
{
closed = 1;
nodes = (
"183 51 OFFCURVE",
"108 106 OFFCURVE",
"108 219 CURVE SMOOTH",
"108 365 OFFCURVE",
"206 494 OFFCURVE",
"352 494 CURVE SMOOTH",
"443 494 OFFCURVE",
"520 440 OFFCURVE",
"520 326 CURVE SMOOTH",
"520 180 OFFCURVE",
"419 51 OFFCURVE",
"273 51 CURVE SMOOTH"
);
}
);
};
color = -1;
layerId = "973C19EE-3504-4BDF-BF6D-4817D3AD4E7D";
paths = (
{
closed = 1;
nodes = (
"415 -12 OFFCURVE",
"545 122 OFFCURVE",
"545 297 CURVE SMOOTH",
"545 423 OFFCURVE",
"458 508 OFFCURVE",
"335 508 CURVE SMOOTH",
"173 508 OFFCURVE",
"43 378 OFFCURVE",
"43 203 CURVE SMOOTH",
"43 78 OFFCURVE",
"130 -12 OFFCURVE",
"253 -12 CURVE SMOOTH"
);
},
{
closed = 1;
nodes = (
"184 48 OFFCURVE",
"116 105 OFFCURVE",
"116 205 CURVE SMOOTH",
"116 343 OFFCURVE",
"208 448 OFFCURVE",
"326 448 CURVE SMOOTH",
"405 448 OFFCURVE",
"473 391 OFFCURVE",
"473 291 CURVE SMOOTH",
"473 153 OFFCURVE",
"381 48 OFFCURVE",
"262 48 CURVE SMOOTH"
);
}
);
width = 588;
},
{
anchors = (
{
name = bottom;
position = "{267, 0}";
},
{
name = center;
position = "{310, 248}";
},
{
name = ogonek;
position = "{338, 0}";
},
{
name = top;
position = "{354, 496}";
},
{
name = topright;
position = "{644, 496}";
}
);
color = -1;
layerId = "66953C5E-8AEB-4AF5-804F-512B0A9BA4E6";
paths = (
{
closed = 1;
nodes = (
"443 -12 OFFCURVE",
"575 118 OFFCURVE",
"575 283 CURVE SMOOTH",
"575 415 OFFCURVE",
"482 508 OFFCURVE",
"346 508 CURVE SMOOTH",
"176 508 OFFCURVE",
"46 379 OFFCURVE",
"46 213 CURVE SMOOTH",
"46 85 OFFCURVE",
"135 -12 OFFCURVE",
"271 -12 CURVE SMOOTH"
);
},
{
closed = 1;
nodes = (
"252 136 OFFCURVE",
"221 167 OFFCURVE",
"221 220 CURVE SMOOTH",
"221 300 OFFCURVE",
"267 360 OFFCURVE",
"328 360 CURVE SMOOTH",
"369 360 OFFCURVE",
"399 329 OFFCURVE",
"399 276 CURVE SMOOTH",
"399 196 OFFCURVE",
"354 136 OFFCURVE",
"293 136 CURVE SMOOTH"
);
}
);
width = 621;
}
);
leftKerningGroup = o;
rightKerningGroup = o;
unicode = 006F;
userData = {
com.schriftgestaltung.Glyphs.ColorIndex = 4;
com.typesupply.AccentFactory.yCoordinates = {
bottom = {
name = origin;
type = glyphMetric;
};
top = {
name = xHeight;
type = fontInfo;
};
};
};
},
{
glyphname = oslash;
lastChange = "2019-05-10 10:24:02 +0000";
layers = (
{
color = -1;
layerId = "973C19EE-3504-4BDF-BF6D-4817D3AD4E7D";
paths = (
{
closed = 1;
nodes = (
"76 0 LINE",
"595 496 LINE",
"523 496 LINE",
"3 0 LINE"
);
},
{
closed = 1;
nodes = (
"420 -12 OFFCURVE",
"550 122 OFFCURVE",
"550 297 CURVE SMOOTH",
"550 423 OFFCURVE",
"463 508 OFFCURVE",
"340 508 CURVE SMOOTH",
"178 508 OFFCURVE",
"48 378 OFFCURVE",
"48 203 CURVE SMOOTH",
"48 78 OFFCURVE",
"135 -12 OFFCURVE",
"258 -12 CURVE SMOOTH"
);
},
{
closed = 1;
nodes = (
"189 48 OFFCURVE",
"121 105 OFFCURVE",
"121 205 CURVE SMOOTH",
"121 343 OFFCURVE",
"213 448 OFFCURVE",
"331 448 CURVE SMOOTH",
"410 448 OFFCURVE",
"478 391 OFFCURVE",
"478 291 CURVE SMOOTH",
"478 153 OFFCURVE",
"386 48 OFFCURVE",
"267 48 CURVE SMOOTH"
);
}
);
width = 598;
},
{
color = -1;
layerId = "66953C5E-8AEB-4AF5-804F-512B0A9BA4E6";
paths = (
{
closed = 1;
nodes = (
"95 0 LINE",
"607 496 LINE",
"485 496 LINE",
"-27 0 LINE"
);
},
{
closed = 1;
nodes = (
"423 -12 OFFCURVE",
"555 118 OFFCURVE",
"555 283 CURVE SMOOTH",
"555 415 OFFCURVE",
"462 508 OFFCURVE",
"326 508 CURVE SMOOTH",
"156 508 OFFCURVE",
"26 379 OFFCURVE",
"26 213 CURVE SMOOTH",
"26 85 OFFCURVE",
"115 -12 OFFCURVE",
"251 -12 CURVE SMOOTH"
);
},
{
closed = 1;
nodes = (
"222 117 OFFCURVE",
"186 153 OFFCURVE",
"186 216 CURVE SMOOTH",
"186 309 OFFCURVE",
"239 379 OFFCURVE",
"311 379 CURVE SMOOTH",
"359 379 OFFCURVE",
"394 343 OFFCURVE",
"394 280 CURVE SMOOTH",
"394 187 OFFCURVE",
"342 117 OFFCURVE",
"271 117 CURVE SMOOTH"
);
}
);
width = 580;
}
);
unicode = 00F8;
userData = {
com.schriftgestaltung.Glyphs.ColorIndex = 4;
};
},
{
glyphname = oe;
lastChange = "2019-05-10 10:24:02 +0000";
layers = (
{
background = {
paths = (
{
closed = 1;
nodes = (
"379 -8 OFFCURVE",
"478 47 OFFCURVE",
"536 144 CURVE",
"557 47 OFFCURVE",
"633 -8 OFFCURVE",
"740 -8 CURVE SMOOTH",
"877 -8 OFFCURVE",
"980 70 OFFCURVE",
"1023 173 CURVE",
"948 173 LINE",
"917 100 OFFCURVE",
"844 51 OFFCURVE",
"750 51 CURVE SMOOTH",
"646 51 OFFCURVE",
"570 122 OFFCURVE",
"594 258 CURVE SMOOTH",
"598 286 LINE SMOOTH",
"623 424 OFFCURVE",
"725 494 OFFCURVE",
"829 494 CURVE SMOOTH",
"930 494 OFFCURVE",
"1010 429 OFFCURVE",
"984 298 CURVE",
"574 298 LINE",
"565 248 LINE",
"1042 248 LINE",
"1049 267 OFFCURVE",
"1052 281 OFFCURVE",
"1056 302 CURVE SMOOTH",
"1080 440 OFFCURVE",
"1002 554 OFFCURVE",
"842 554 CURVE SMOOTH",
"733 554 OFFCURVE",
"637 499 OFFCURVE",
"582 403 CURVE",
"558 499 OFFCURVE",
"480 554 OFFCURVE",
"373 554 CURVE SMOOTH",
"220 554 OFFCURVE",
"81 447 OFFCURVE",
"50 273 CURVE SMOOTH",
"19 100 OFFCURVE",
"117 -8 OFFCURVE",
"272 -8 CURVE SMOOTH"
);
},
{
closed = 1;
nodes = (
"178 51 OFFCURVE",
"95 123 OFFCURVE",
"122 273 CURVE SMOOTH",
"148 423 OFFCURVE",
"258 494 OFFCURVE",
"361 494 CURVE SMOOTH",
"465 494 OFFCURVE",
"551 423 OFFCURVE",
"524 273 CURVE SMOOTH",
"498 123 OFFCURVE",
"385 51 OFFCURVE",
"282 51 CURVE SMOOTH"
);
}
);
};
color = -1;
layerId = "973C19EE-3504-4BDF-BF6D-4817D3AD4E7D";
paths = (
{
closed = 1;
nodes = (
"347 -12 OFFCURVE",
"431 34 OFFCURVE",
"484 106 CURVE",
"513 33 OFFCURVE",
"579 -12 OFFCURVE",
"668 -12 CURVE SMOOTH",
"791 -12 OFFCURVE",
"880 62 OFFCURVE",
"922 161 CURVE",
"855 161 LINE",
"821 91 OFFCURVE",
"759 48 OFFCURVE",
"679 48 CURVE SMOOTH",
"605 48 OFFCURVE",
"537 96 OFFCURVE",
"537 198 CURVE SMOOTH",
"537 209 OFFCURVE",
"538 221 OFFCURVE",
"540 233 CURVE",
"941 233 LINE",
"943 243 OFFCURVE",
"954 296 OFFCURVE",
"954 322 CURVE SMOOTH",
"954 423 OFFCURVE",
"888 508 OFFCURVE",
"762 508 CURVE SMOOTH",
"665 508 OFFCURVE",
"581 461 OFFCURVE",
"528 387 CURVE",
"497 462 OFFCURVE",
"426 508 OFFCURVE",
"335 508 CURVE SMOOTH",
"173 508 OFFCURVE",
"43 378 OFFCURVE",
"43 203 CURVE SMOOTH",
"43 78 OFFCURVE",
"130 -12 OFFCURVE",
"253 -12 CURVE SMOOTH"
);
},
{
closed = 1;
nodes = (
"184 48 OFFCURVE",
"116 105 OFFCURVE",
"116 205 CURVE SMOOTH",
"116 343 OFFCURVE",
"208 448 OFFCURVE",
"326 448 CURVE SMOOTH",
"405 448 OFFCURVE",
"473 391 OFFCURVE",
"473 291 CURVE SMOOTH",
"473 153 OFFCURVE",
"381 48 OFFCURVE",
"262 48 CURVE SMOOTH"
);
},
{
closed = 1;
nodes = (
"578 394 OFFCURVE",
"663 448 OFFCURVE",
"749 448 CURVE SMOOTH",
"831 448 OFFCURVE",
"886 400 OFFCURVE",
"886 319 CURVE SMOOTH",
"886 311 OFFCURVE",
"885 302 OFFCURVE",
"884 293 CURVE",
"551 293 LINE"
);
}
);
width = 984;
},
{
color = -1;
layerId = "66953C5E-8AEB-4AF5-804F-512B0A9BA4E6";
paths = (
{
closed = 1;
nodes = (
"344 -12 OFFCURVE",
"409 11 OFFCURVE",
"461 50 CURVE",
"500 12 OFFCURVE",
"558 -12 OFFCURVE",
"629 -12 CURVE SMOOTH",
"753 -12 OFFCURVE",
"868 71 OFFCURVE",
"913 176 CURVE",
"741 176 LINE",
"724 152 OFFCURVE",
"693 126 OFFCURVE",
"651 126 CURVE SMOOTH",
"595 126 OFFCURVE",
"568 159 OFFCURVE",
"568 200 CURVE SMOOTH",
"568 202 OFFCURVE",
"568 203 OFFCURVE",
"568 205 CURVE",
"926 205 LINE",
"929 215 OFFCURVE",
"942 266 OFFCURVE",
"942 303 CURVE SMOOTH",
"942 426 OFFCURVE",
"852 508 OFFCURVE",
"720 508 CURVE SMOOTH",
"643 508 OFFCURVE",
"572 483 OFFCURVE",
"516 440 CURVE",
"476 483 OFFCURVE",
"417 508 OFFCURVE",
"346 508 CURVE SMOOTH",
"176 508 OFFCURVE",
"46 379 OFFCURVE",
"46 213 CURVE SMOOTH",
"46 85 OFFCURVE",
"135 -12 OFFCURVE",
"271 -12 CURVE SMOOTH"
);
},
{
closed = 1;
nodes = (
"252 136 OFFCURVE",
"221 167 OFFCURVE",
"221 220 CURVE SMOOTH",
"221 300 OFFCURVE",
"267 360 OFFCURVE",
"328 360 CURVE SMOOTH",
"369 360 OFFCURVE",
"399 329 OFFCURVE",
"399 276 CURVE SMOOTH",
"399 196 OFFCURVE",
"354 136 OFFCURVE",
"293 136 CURVE SMOOTH"
);
},
{
closed = 1;
nodes = (
"612 349 OFFCURVE",
"652 372 OFFCURVE",
"698 372 CURVE SMOOTH",
"742 372 OFFCURVE",
"771 344 OFFCURVE",
"771 306 CURVE SMOOTH",
"771 304 OFFCURVE",
"771 302 OFFCURVE",
"771 300 CURVE",
"589 300 LINE"
);
}
);
width = 977;
}
);
leftKerningGroup = o;
leftMetricsKey = o;
rightKerningGroup = e;
rightMetricsKey = e;
unicode = 0153;
userData = {
com.schriftgestaltung.Glyphs.ColorIndex = 4;
com.typemytype.robofont.layerData = {
b = {
anchors = (
);
components = (
);
contours = (
{
points = (
{
segmentType = curve;
smooth = 1;
x = 569;
y = 270;
},
{
smooth = 0;
x = 569;
y = 98;
},
{
smooth = 0;
x = 444;
y = -1;
},
{
segmentType = curve;
smooth = 1;
x = 312;
y = -1;
},
{
smooth = 0;
x = 179;
y = -1;
},
{
smooth = 0;
x = 84;
y = 98;
},
{
segmentType = curve;
smooth = 1;
x = 84;
y = 270;
},
{
smooth = 0;
x = 84;
y = 444;
},
{
smooth = 0;
x = 191;
y = 541;
},
{
segmentType = curve;
smooth = 1;
x = 322;
y = 541;
},
{
smooth = 0;
x = 455;
y = 541;
},
{
smooth = 0;
x = 569;
y = 444;
}
);
},
{
points = (
{
segmentType = curve;
smooth = 1;
x = 64;
y = 270;
},
{
smooth = 0;
x = 64;
y = 103;
},
{
smooth = 0;
x = 162;
y = -12;
},
{
segmentType = curve;
smooth = 1;
x = 312;
y = -12;
},
{
smooth = 0;
x = 430;
y = -12;
},
{
smooth = 0;
x = 531;
y = 48;
},
{
segmentType = curve;
smooth = 0;
x = 578;
y = 146;
},
{
smooth = 0;
x = 620;
y = 48;
},
{
smooth = 0;
x = 709;
y = -12;
},
{
segmentType = curve;
smooth = 1;
x = 826;
y = -12;
},
{
smooth = 0;
x = 962;
y = -12;
},
{
smooth = 0;
x = 1026;
y = 66;
},
{
segmentType = curve;
smooth = 0;
x = 1059;
y = 137;
},
{
segmentType = line;
smooth = 0;
x = 1039;
y = 137;
},
{
smooth = 0;
x = 1015;
y = 60;
},
{
smooth = 0;
x = 934;
y = -1;
},
{
segmentType = curve;
smooth = 1;
x = 826;
y = -1;
},
{
smooth = 0;
x = 697;
y = -1;
},
{
smooth = 0;
x = 592;
y = 93;
},
{
segmentType = curve;
smooth = 1;
x = 592;
y = 269;
},
{
segmentType = line;
smooth = 1;
x = 592;
y = 274;
},
{
smooth = 0;
x = 592;
y = 447;
},
{
smooth = 0;
x = 694;
y = 541;
},
{
segmentType = curve;
smooth = 1;
x = 827;
y = 541;
},
{
smooth = 0;
x = 958;
y = 541;
},
{
smooth = 0;
x = 1062;
y = 448;
},
{
segmentType = curve;
smooth = 0;
x = 1059;
y = 290;
},
{
segmentType = line;
smooth = 0;
x = 570;
y = 290;
},
{
segmentType = line;
smooth = 0;
x = 571;
y = 261;
},
{
segmentType = line;
smooth = 0;
x = 1074;
y = 261;
},
{
smooth = 0;
x = 1077;
y = 280;
},
{
smooth = 0;
x = 1078;
y = 298;
},
{
segmentType = curve;
smooth = 1;
x = 1078;
y = 315;
},
{
smooth = 0;
x = 1078;
y = 434;
},
{
smooth = 0;
x = 993;
y = 552;
},
{
segmentType = curve;
smooth = 1;
x = 840;
y = 552;
},
{
smooth = 0;
x = 715;
y = 552;
},
{
smooth = 0;
x = 623;
y = 495;
},
{
segmentType = curve;
smooth = 0;
x = 582;
y = 400;
},
{
smooth = 0;
x = 537;
y = 495;
},
{
smooth = 0;
x = 442;
y = 552;
},
{
segmentType = curve;
smooth = 1;
x = 328;
y = 552;
},
{
smooth = 0;
x = 177;
y = 552;
},
{
smooth = 0;
x = 64;
y = 438;
}
);
}
);
lib = {
};
name = oe;
unicodes = (
);
width = 1135;
};
};
com.typesupply.AccentFactory.yCoordinates = {
bottom = {
name = origin;
type = glyphMetric;
};
top = {
name = xHeight;
type = fontInfo;
};
};
};
},
{
glyphname = p;
lastChange = "2019-05-10 10:24:02 +0000";
layers = (
{
background = {
paths = (
{
closed = 1;
nodes = (
"57 -220 LINE",
"113 89 LINE",
"134 40 OFFCURVE",
"200 -12 OFFCURVE",
"283 -12 CURVE SMOOTH",
"447 -12 OFFCURVE",
"569 120 OFFCURVE",
"569 296 CURVE SMOOTH",
"569 416 OFFCURVE",
"494 508 OFFCURVE",
"364 508 CURVE SMOOTH",
"271 508 OFFCURVE",
"211 464 OFFCURVE",
"170 414 CURVE",
"184 496 LINE",
"114 496 LINE",
"-13 -220 LINE"
);
},
{
closed = 1;
nodes = (
"200 49 OFFCURVE",
"141 111 OFFCURVE",
"141 205 CURVE SMOOTH",
"141 341 OFFCURVE",
"230 447 OFFCURVE",
"351 447 CURVE SMOOTH",
"441 447 OFFCURVE",
"497 380 OFFCURVE",
"497 286 CURVE SMOOTH",
"497 150 OFFCURVE",
"411 49 OFFCURVE",
"291 49 CURVE SMOOTH"
);
}
);
};
color = -1;
layerId = "973C19EE-3504-4BDF-BF6D-4817D3AD4E7D";
paths = (
{
closed = 1;
nodes = (
"57 -220 LINE",
"113 89 LINE",
"134 40 OFFCURVE",
"200 -12 OFFCURVE",
"283 -12 CURVE SMOOTH",
"447 -12 OFFCURVE",
"569 120 OFFCURVE",
"569 296 CURVE SMOOTH",
"569 416 OFFCURVE",
"494 508 OFFCURVE",
"364 508 CURVE SMOOTH",
"271 508 OFFCURVE",
"211 464 OFFCURVE",
"170 410 CURVE",
"180 496 LINE",
"114 496 LINE",
"-13 -220 LINE"
);
},
{
closed = 1;
nodes = (
"200 49 OFFCURVE",
"141 111 OFFCURVE",
"141 205 CURVE SMOOTH",
"141 341 OFFCURVE",
"230 447 OFFCURVE",
"351 447 CURVE SMOOTH",
"441 447 OFFCURVE",
"497 380 OFFCURVE",
"497 286 CURVE SMOOTH",
"497 150 OFFCURVE",
"411 49 OFFCURVE",
"291 49 CURVE SMOOTH"
);
}
);
width = 612;
},
{
background = {
paths = (
{
closed = 1;
nodes = (
"152 -220 LINE",
"198 53 LINE",
"225 12 OFFCURVE",
"272 -12 OFFCURVE",
"337 -12 CURVE SMOOTH",
"499 -12 OFFCURVE",
"625 128 OFFCURVE",
"625 292 CURVE SMOOTH",
"625 415 OFFCURVE",
"541 508 OFFCURVE",
"425 508 CURVE SMOOTH",
"356 508 OFFCURVE",
"304 481 OFFCURVE",
"268 447 CURVE",
"277 496 LINE",
"106 496 LINE",
"-19 -220 LINE"
);
},
{
closed = 1;
nodes = (
"262 137 OFFCURVE",
"223 179 OFFCURVE",
"223 231 CURVE SMOOTH",
"223 304 OFFCURVE",
"277 359 OFFCURVE",
"349 359 CURVE SMOOTH",
"410 359 OFFCURVE",
"448 314 OFFCURVE",
"448 262 CURVE SMOOTH",
"448 192 OFFCURVE",
"392 137 OFFCURVE",
"320 137 CURVE SMOOTH"
);
}
);
};
color = -1;
layerId = "66953C5E-8AEB-4AF5-804F-512B0A9BA4E6";
paths = (
{
closed = 1;
nodes = (
"152 -220 LINE",
"198 53 LINE",
"225 12 OFFCURVE",
"272 -12 OFFCURVE",
"337 -12 CURVE SMOOTH",
"499 -12 OFFCURVE",
"625 128 OFFCURVE",
"625 292 CURVE SMOOTH",
"625 415 OFFCURVE",
"541 508 OFFCURVE",
"425 508 CURVE SMOOTH",
"356 508 OFFCURVE",
"304 481 OFFCURVE",
"266 436 CURVE",
"256 496 LINE",
"106 496 LINE",
"-19 -220 LINE"
);
},
{
closed = 1;
nodes = (
"262 137 OFFCURVE",
"223 179 OFFCURVE",
"223 231 CURVE SMOOTH",
"223 304 OFFCURVE",
"277 359 OFFCURVE",
"349 359 CURVE SMOOTH",
"410 359 OFFCURVE",
"448 314 OFFCURVE",
"448 262 CURVE SMOOTH",
"448 192 OFFCURVE",
"392 137 OFFCURVE",
"320 137 CURVE SMOOTH"
);
}
);
width = 669;
}
);
leftMetricsKey = l;
rightKerningGroup = o;
rightMetricsKey = o;
unicode = 0070;
userData = {
com.schriftgestaltung.Glyphs.ColorIndex = 4;
com.typemytype.robofont.guides = (
{
angle = 0;
isGlobal = 0;
magnetic = 5;
x = -74;
y = -254;
}
);
com.typesupply.AccentFactory.yCoordinates = {
top = {
name = xHeight;
type = fontInfo;
};
};
};
},
{
glyphname = thorn;
lastChange = "2019-05-10 10:35:02 +0000";
layers = (
{
color = -1;
layerId = "973C19EE-3504-4BDF-BF6D-4817D3AD4E7D";
paths = (
{
closed = 1;
nodes = (
"447 -12 OFFCURVE",
"569 120 OFFCURVE",
"569 296 CURVE SMOOTH",
"569 416 OFFCURVE",
"494 508 OFFCURVE",
"364 508 CURVE SMOOTH",
"271 508 OFFCURVE",
"211 464 OFFCURVE",
"170 414 CURVE",
"223 720 LINE",
"153 720 LINE",
"-13 -220 LINE",
"57 -220 LINE",
"113 89 LINE",
"134 40 OFFCURVE",
"200 -12 OFFCURVE",
"283 -12 CURVE SMOOTH"
);
},
{
closed = 1;
nodes = (
"200 49 OFFCURVE",
"141 111 OFFCURVE",
"141 205 CURVE SMOOTH",
"141 341 OFFCURVE",
"230 447 OFFCURVE",
"351 447 CURVE SMOOTH",
"441 447 OFFCURVE",
"497 380 OFFCURVE",
"497 286 CURVE SMOOTH",
"497 150 OFFCURVE",
"411 49 OFFCURVE",
"291 49 CURVE SMOOTH"
);
}
);
width = 612;
},
{
color = -1;
layerId = "66953C5E-8AEB-4AF5-804F-512B0A9BA4E6";
paths = (
{
closed = 1;
nodes = (
"499 -12 OFFCURVE",
"625 128 OFFCURVE",
"625 292 CURVE SMOOTH",
"625 415 OFFCURVE",
"541 508 OFFCURVE",
"425 508 CURVE SMOOTH",
"356 508 OFFCURVE",
"304 481 OFFCURVE",
"268 447 CURVE",
"316 720 LINE",
"145 720 LINE",
"-19 -220 LINE",
"152 -220 LINE",
"198 53 LINE",
"225 12 OFFCURVE",
"272 -12 OFFCURVE",
"337 -12 CURVE SMOOTH"
);
},
{
closed = 1;
nodes = (
"262 137 OFFCURVE",
"223 179 OFFCURVE",
"223 231 CURVE SMOOTH",
"223 304 OFFCURVE",
"277 359 OFFCURVE",
"349 359 CURVE SMOOTH",
"410 359 OFFCURVE",
"448 314 OFFCURVE",
"448 262 CURVE SMOOTH",
"448 192 OFFCURVE",
"392 137 OFFCURVE",
"320 137 CURVE SMOOTH"
);
}
);
width = 669;
}
);
leftMetricsKey = l;
rightKerningGroup = o;
rightMetricsKey = o;
unicode = 00FE;
userData = {
com.schriftgestaltung.Glyphs.ColorIndex = 4;
};
},
{
glyphname = q;
lastChange = "2019-05-10 10:24:02 +0000";
layers = (
{
background = {
paths = (
{
closed = 1;
nodes = (
"343 -12 OFFCURVE",
"403 36 OFFCURVE",
"443 86 CURVE",
"390 -220 LINE",
"460 -220 LINE",
"586 496 LINE",
"516 496 LINE",
"500 408 LINE",
"473 469 OFFCURVE",
"416 508 OFFCURVE",
"327 508 CURVE SMOOTH",
"168 508 OFFCURVE",
"44 383 OFFCURVE",
"44 207 CURVE SMOOTH",
"44 87 OFFCURVE",
"119 -12 OFFCURVE",
"249 -12 CURVE SMOOTH"
);
},
{
closed = 1;
nodes = (
"173 49 OFFCURVE",
"116 119 OFFCURVE",
"116 212 CURVE SMOOTH",
"116 347 OFFCURVE",
"205 447 OFFCURVE",
"326 447 CURVE SMOOTH",
"417 447 OFFCURVE",
"472 387 OFFCURVE",
"472 294 CURVE SMOOTH",
"472 159 OFFCURVE",
"385 49 OFFCURVE",
"264 49 CURVE SMOOTH"
);
}
);
};
color = -1;
layerId = "973C19EE-3504-4BDF-BF6D-4817D3AD4E7D";
paths = (
{
closed = 1;
nodes = (
"460 -220 LINE",
"586 496 LINE",
"522 496 LINE",
"500 408 LINE",
"473 469 OFFCURVE",
"416 508 OFFCURVE",
"327 508 CURVE SMOOTH",
"168 508 OFFCURVE",
"44 383 OFFCURVE",
"44 207 CURVE SMOOTH",
"44 87 OFFCURVE",
"119 -12 OFFCURVE",
"249 -12 CURVE SMOOTH",
"343 -12 OFFCURVE",
"403 36 OFFCURVE",
"443 86 CURVE",
"390 -220 LINE"
);
},
{
closed = 1;
nodes = (
"173 49 OFFCURVE",
"116 119 OFFCURVE",
"116 212 CURVE SMOOTH",
"116 347 OFFCURVE",
"205 447 OFFCURVE",
"326 447 CURVE SMOOTH",
"417 447 OFFCURVE",
"472 387 OFFCURVE",
"472 294 CURVE SMOOTH",
"472 159 OFFCURVE",
"385 49 OFFCURVE",
"264 49 CURVE SMOOTH"
);
}
);
width = 613;
},
{
background = {
paths = (
{
closed = 1;
nodes = (
"313 -12 OFFCURVE",
"365 20 OFFCURVE",
"400 60 CURVE",
"353 -220 LINE",
"524 -220 LINE",
"648 496 LINE",
"477 496 LINE",
"468 443 LINE",
"445 478 OFFCURVE",
"401 508 OFFCURVE",
"323 508 CURVE SMOOTH",
"169 508 OFFCURVE",
"45 376 OFFCURVE",
"45 208 CURVE SMOOTH",
"45 82 OFFCURVE",
"121 -12 OFFCURVE",
"238 -12 CURVE SMOOTH"
);
},
{
closed = 1;
nodes = (
"255 137 OFFCURVE",
"222 179 OFFCURVE",
"222 231 CURVE SMOOTH",
"222 301 OFFCURVE",
"276 359 OFFCURVE",
"348 359 CURVE SMOOTH",
"406 359 OFFCURVE",
"443 321 OFFCURVE",
"443 269 CURVE SMOOTH",
"443 199 OFFCURVE",
"385 137 OFFCURVE",
"313 137 CURVE SMOOTH"
);
}
);
};
color = -1;
layerId = "66953C5E-8AEB-4AF5-804F-512B0A9BA4E6";
paths = (
{
closed = 1;
nodes = (
"524 -220 LINE",
"648 496 LINE",
"498 496 LINE",
"468 443 LINE",
"445 478 OFFCURVE",
"401 508 OFFCURVE",
"323 508 CURVE SMOOTH",
"169 508 OFFCURVE",
"45 376 OFFCURVE",
"45 208 CURVE SMOOTH",
"45 82 OFFCURVE",
"121 -12 OFFCURVE",
"238 -12 CURVE SMOOTH",
"313 -12 OFFCURVE",
"365 20 OFFCURVE",
"400 60 CURVE",
"353 -220 LINE"
);
},
{
closed = 1;
nodes = (
"255 137 OFFCURVE",
"222 179 OFFCURVE",
"222 231 CURVE SMOOTH",
"222 301 OFFCURVE",
"276 359 OFFCURVE",
"348 359 CURVE SMOOTH",
"406 359 OFFCURVE",
"443 321 OFFCURVE",
"443 269 CURVE SMOOTH",
"443 199 OFFCURVE",
"385 137 OFFCURVE",
"313 137 CURVE SMOOTH"
);
}
);
width = 669;
}
);
leftKerningGroup = o;
leftMetricsKey = o;
rightMetricsKey = l;
unicode = 0071;
userData = {
com.schriftgestaltung.Glyphs.ColorIndex = 4;
com.typesupply.AccentFactory.yCoordinates = {
top = {
name = xHeight;
type = fontInfo;
};
};
};
},
{
glyphname = r;
lastChange = "2019-05-10 10:24:02 +0000";
layers = (
{
anchors = (
{
name = bottom;
position = "{64, 0}";
},
{
name = top;
position = "{256, 496}";
}
);
background = {
anchors = (
{
name = bottom;
position = "{64, 0}";
},
{
name = top;
position = "{256, 496}";
}
);
paths = (
{
closed = 1;
nodes = (
"97 0 LINE",
"184 496 LINE",
"114 496 LINE",
"27 0 LINE"
);
},
{
closed = 1;
nodes = (
"166 390 OFFCURVE",
"246 435 OFFCURVE",
"342 435 CURVE SMOOTH",
"361 435 LINE",
"374 508 LINE",
"234 508 OFFCURVE",
"149 420 OFFCURVE",
"126 287 CURVE",
"142 257 LINE"
);
}
);
};
color = -1;
layerId = "973C19EE-3504-4BDF-BF6D-4817D3AD4E7D";
paths = (
{
closed = 1;
nodes = (
"97 0 LINE",
"146 277 LINE SMOOTH",
"167 396 OFFCURVE",
"251 435 OFFCURVE",
"342 435 CURVE SMOOTH",
"361 435 LINE",
"374 508 LINE",
"283 508 OFFCURVE",
"211 470 OFFCURVE",
"168 408 CURVE",
"179 496 LINE",
"114 496 LINE",
"27 0 LINE"
);
}
);
width = 358;
},
{
anchors = (
{
name = bottom;
position = "{101, 0}";
},
{
name = top;
position = "{303, 496}";
}
);
background = {
anchors = (
{
name = bottom;
position = "{101, 0}";
},
{
name = top;
position = "{303, 496}";
}
);
paths = (
{
closed = 1;
nodes = (
"190 0 LINE",
"277 496 LINE",
"106 496 LINE",
"19 0 LINE"
);
},
{
closed = 1;
nodes = (
"243 299 OFFCURVE",
"295 327 OFFCURVE",
"376 327 CURVE SMOOTH",
"423 327 LINE",
"455 508 LINE",
"324 508 OFFCURVE",
"213 387 OFFCURVE",
"190 253 CURVE",
"226 203 LINE"
);
}
);
};
color = -1;
layerId = "66953C5E-8AEB-4AF5-804F-512B0A9BA4E6";
paths = (
{
closed = 1;
nodes = (
"190 0 LINE",
"226 203 LINE SMOOTH",
"243 299 OFFCURVE",
"295 327 OFFCURVE",
"376 327 CURVE SMOOTH",
"423 327 LINE",
"455 508 LINE",
"378 508 OFFCURVE",
"308 466 OFFCURVE",
"259 405 CURVE",
"257 496 LINE",
"106 496 LINE",
"19 0 LINE"
);
}
);
width = 436;
}
);
leftKerningGroup = n;
leftMetricsKey = n;
rightKerningGroup = r;
unicode = 0072;
userData = {
com.schriftgestaltung.Glyphs.ColorIndex = 4;
com.typesupply.AccentFactory.yCoordinates = {
bottom = {
name = origin;
type = glyphMetric;
};
top = {
name = xHeight;
type = fontInfo;
};
};
};
},
{
glyphname = rcommaaccent;
lastChange = "2019-05-10 10:24:02 +0000";
layers = (
{
color = -1;
components = (
{
alignment = -1;
name = r;
}
);
layerId = "973C19EE-3504-4BDF-BF6D-4817D3AD4E7D";
paths = (
{
closed = 1;
nodes = (
"36 -226 OFFCURVE",
"75 -197 OFFCURVE",
"89 -119 CURVE SMOOTH",
"92 -100 OFFCURVE",
"94 -76 OFFCURVE",
"92 -52 CURVE",
"13 -52 LINE",
"1 -121 LINE",
"44 -121 LINE",
"42 -135 LINE SMOOTH",
"35 -171 OFFCURVE",
"19 -191 OFFCURVE",
"-14 -191 CURVE",
"-20 -226 LINE"
);
}
);
width = 358;
},
{
color = -1;
components = (
{
alignment = -1;
name = r;
}
);
layerId = "66953C5E-8AEB-4AF5-804F-512B0A9BA4E6";
paths = (
{
closed = 1;
nodes = (
"79 -310 OFFCURVE",
"135 -248 OFFCURVE",
"151 -158 CURVE SMOOTH",
"157 -122 OFFCURVE",
"159 -82 OFFCURVE",
"152 -40 CURVE",
"21 -40 LINE",
"-1 -163 LINE",
"62 -163 LINE",
"60 -179 LINE SMOOTH",
"51 -224 OFFCURVE",
"30 -245 OFFCURVE",
"-4 -245 CURVE",
"-15 -310 LINE"
);
}
);
width = 436;
}
);
leftKerningGroup = n;
widthMetricsKey = r;
rightKerningGroup = r;
rightMetricsKey = r;
unicode = 0157;
userData = {
com.schriftgestaltung.Glyphs.ColorIndex = 8;
com.typesupply.AccentFactory.compileType = manual;
};
},
{
glyphname = s;
lastChange = "2019-05-10 10:24:02 +0000";
layers = (
{
anchors = (
{
name = bottom;
position = "{211, 0}";
},
{
name = top;
position = "{287, 496}";
}
);
color = -1;
layerId = "973C19EE-3504-4BDF-BF6D-4817D3AD4E7D";
paths = (
{
closed = 1;
nodes = (
"335 -12 OFFCURVE",
"424 54 OFFCURVE",
"424 157 CURVE SMOOTH",
"424 241 OFFCURVE",
"347 272 OFFCURVE",
"269 289 CURVE SMOOTH",
"202 304 OFFCURVE",
"161 321 OFFCURVE",
"161 365 CURVE SMOOTH",
"161 410 OFFCURVE",
"208 446 OFFCURVE",
"274 446 CURVE SMOOTH",
"340 446 OFFCURVE",
"378 412 OFFCURVE",
"374 357 CURVE",
"445 357 LINE",
"451 455 OFFCURVE",
"382 508 OFFCURVE",
"281 508 CURVE SMOOTH",
"168 508 OFFCURVE",
"87 439 OFFCURVE",
"87 353 CURVE SMOOTH",
"87 272 OFFCURVE",
"165 240 OFFCURVE",
"235 226 CURVE SMOOTH",
"306 212 OFFCURVE",
"350 195 OFFCURVE",
"350 147 CURVE SMOOTH",
"350 86 OFFCURVE",
"299 50 OFFCURVE",
"224 50 CURVE SMOOTH",
"129 50 OFFCURVE",
"97 104 OFFCURVE",
"100 164 CURVE",
"28 164 LINE",
"19 54 OFFCURVE",
"93 -12 OFFCURVE",
"213 -12 CURVE SMOOTH"
);
}
);
width = 507;
},
{
anchors = (
{
name = bottom;
position = "{238, 0}";
},
{
name = top;
position = "{314, 496}";
}
);
color = -1;
guideLines = (
{
angle = 180;
position = "{416, 348}";
},
{
angle = 180;
position = "{416, 166}";
}
);
layerId = "66953C5E-8AEB-4AF5-804F-512B0A9BA4E6";
paths = (
{
closed = 1;
nodes = (
"387 -12 OFFCURVE",
"497 60 OFFCURVE",
"497 173 CURVE SMOOTH",
"497 253 OFFCURVE",
"426 284 OFFCURVE",
"321 310 CURVE SMOOTH",
"271 322 OFFCURVE",
"234 331 OFFCURVE",
"234 350 CURVE SMOOTH",
"234 368 OFFCURVE",
"257 383 OFFCURVE",
"291 383 CURVE SMOOTH",
"324 383 OFFCURVE",
"350 369 OFFCURVE",
"355 348 CURVE",
"516 348 LINE",
"517 444 OFFCURVE",
"440 508 OFFCURVE",
"310 508 CURVE SMOOTH",
"169 508 OFFCURVE",
"68 438 OFFCURVE",
"68 334 CURVE SMOOTH",
"68 251 OFFCURVE",
"163 218 OFFCURVE",
"255 193 CURVE SMOOTH",
"292 183 OFFCURVE",
"324 175 OFFCURVE",
"324 153 CURVE SMOOTH",
"324 133 OFFCURVE",
"304 112 OFFCURVE",
"262 112 CURVE SMOOTH",
"222 112 OFFCURVE",
"189 130 OFFCURVE",
"189 166 CURVE",
"20 166 LINE",
"12 71 OFFCURVE",
"96 -12 OFFCURVE",
"242 -12 CURVE SMOOTH"
);
}
);
width = 557;
}
);
leftKerningGroup = s;
rightKerningGroup = s;
unicode = 0073;
userData = {
com.schriftgestaltung.Glyphs.ColorIndex = 4;
com.typesupply.AccentFactory.yCoordinates = {
bottom = {
name = origin;
type = glyphMetric;
};
top = {
name = xHeight;
type = fontInfo;
};
};
};
},
{
glyphname = scommaaccent;
lastChange = "2019-05-10 10:24:02 +0000";
layers = (
{
color = -1;
components = (
{
alignment = -1;
name = s;
}
);
layerId = "973C19EE-3504-4BDF-BF6D-4817D3AD4E7D";
paths = (
{
closed = 1;
nodes = (
"187 -226 OFFCURVE",
"227 -197 OFFCURVE",
"241 -119 CURVE SMOOTH",
"244 -100 OFFCURVE",
"245 -76 OFFCURVE",
"244 -52 CURVE",
"165 -52 LINE",
"153 -121 LINE",
"196 -121 LINE",
"193 -135 LINE SMOOTH",
"187 -171 OFFCURVE",
"171 -191 OFFCURVE",
"138 -191 CURVE",
"131 -226 LINE"
);
}
);
width = 507;
},
{
color = -1;
components = (
{
alignment = -1;
name = s;
}
);
layerId = "66953C5E-8AEB-4AF5-804F-512B0A9BA4E6";
paths = (
{
closed = 1;
nodes = (
"210 -310 OFFCURVE",
"267 -248 OFFCURVE",
"283 -158 CURVE SMOOTH",
"289 -122 OFFCURVE",
"290 -82 OFFCURVE",
"283 -40 CURVE",
"152 -40 LINE",
"131 -163 LINE",
"194 -163 LINE",
"191 -179 LINE SMOOTH",
"183 -224 OFFCURVE",
"162 -245 OFFCURVE",
"128 -245 CURVE",
"116 -310 LINE"
);
}
);
width = 557;
}
);
leftKerningGroup = s;
leftMetricsKey = s;
rightKerningGroup = s;
rightMetricsKey = s;
unicode = 0219;
userData = {
com.schriftgestaltung.Glyphs.ColorIndex = 8;
com.typesupply.AccentFactory.compileType = manual;
};
},
{
glyphname = germandbls;
lastChange = "2019-05-10 10:35:18 +0000";
layers = (
{
background = {
paths = (
{
closed = 1;
nodes = (
"507 -10 OFFCURVE",
"595 66 OFFCURVE",
"595 170 CURVE SMOOTH",
"595 236 OFFCURVE",
"562 275 OFFCURVE",
"485 302 CURVE SMOOTH",
"402 331 OFFCURVE",
"381 348 OFFCURVE",
"381 375 CURVE SMOOTH",
"381 448 OFFCURVE",
"570 491 OFFCURVE",
"570 633 CURVE SMOOTH",
"570 709 OFFCURVE",
"509 768 OFFCURVE",
"387 768 CURVE SMOOTH",
"237 768 OFFCURVE",
"149 679 OFFCURVE",
"128 560 CURVE SMOOTH",
"30 0 LINE",
"100 0 LINE",
"197 552 LINE SMOOTH",
"214 649 OFFCURVE",
"271 709 OFFCURVE",
"376 709 CURVE SMOOTH",
"455 709 OFFCURVE",
"499 675 OFFCURVE",
"499 624 CURVE SMOOTH",
"499 512 OFFCURVE",
"308 475 OFFCURVE",
"308 361 CURVE SMOOTH",
"308 308 OFFCURVE",
"346 280 OFFCURVE",
"434 249 CURVE SMOOTH",
"496 227 OFFCURVE",
"522 202 OFFCURVE",
"522 162 CURVE SMOOTH",
"522 93 OFFCURVE",
"470 47 OFFCURVE",
"396 47 CURVE SMOOTH",
"322 47 OFFCURVE",
"282 94 OFFCURVE",
"290 167 CURVE",
"218 167 LINE",
"208 61 OFFCURVE",
"274 -10 OFFCURVE",
"387 -10 CURVE SMOOTH"
);
}
);
};
color = -1;
guideLines = (
{
angle = 79.9855;
position = "{145, 252}";
}
);
layerId = "973C19EE-3504-4BDF-BF6D-4817D3AD4E7D";
paths = (
{
closed = 1;
nodes = (
"507 -10 OFFCURVE",
"595 66 OFFCURVE",
"595 170 CURVE SMOOTH",
"595 236 OFFCURVE",
"562 275 OFFCURVE",
"485 302 CURVE SMOOTH",
"402 331 OFFCURVE",
"381 348 OFFCURVE",
"381 375 CURVE SMOOTH",
"381 448 OFFCURVE",
"565 455 OFFCURVE",
"565 597 CURVE SMOOTH",
"565 673 OFFCURVE",
"504 732 OFFCURVE",
"382 732 CURVE SMOOTH",
"232 732 OFFCURVE",
"144 643 OFFCURVE",
"123 524 CURVE SMOOTH",
"30 0 LINE",
"100 0 LINE",
"192 516 LINE SMOOTH",
"209 613 OFFCURVE",
"266 673 OFFCURVE",
"371 673 CURVE SMOOTH",
"450 673 OFFCURVE",
"494 639 OFFCURVE",
"494 588 CURVE SMOOTH",
"494 476 OFFCURVE",
"308 475 OFFCURVE",
"308 361 CURVE SMOOTH",
"308 308 OFFCURVE",
"346 280 OFFCURVE",
"434 249 CURVE SMOOTH",
"496 227 OFFCURVE",
"522 202 OFFCURVE",
"522 162 CURVE SMOOTH",
"522 93 OFFCURVE",
"470 47 OFFCURVE",
"396 47 CURVE SMOOTH",
"322 47 OFFCURVE",
"282 94 OFFCURVE",
"290 167 CURVE",
"218 167 LINE",
"208 61 OFFCURVE",
"274 -10 OFFCURVE",
"387 -10 CURVE SMOOTH"
);
}
);
width = 656;
},
{
background = {
paths = (
{
closed = 1;
nodes = (
"604 -10 OFFCURVE",
"706 69 OFFCURVE",
"706 187 CURVE SMOOTH",
"706 263 OFFCURVE",
"671 302 OFFCURVE",
"589 335 CURVE SMOOTH",
"515 364 OFFCURVE",
"506 373 OFFCURVE",
"506 388 CURVE SMOOTH",
"506 430 OFFCURVE",
"653 486 OFFCURVE",
"653 611 CURVE SMOOTH",
"653 698 OFFCURVE",
"570 768 OFFCURVE",
"424 768 CURVE SMOOTH",
"243 768 OFFCURVE",
"130 673 OFFCURVE",
"105 534 CURVE SMOOTH",
"11 0 LINE",
"181 0 LINE",
"273 522 LINE SMOOTH",
"284 587 OFFCURVE",
"324 626 OFFCURVE",
"397 626 CURVE SMOOTH",
"447 626 OFFCURVE",
"478 605 OFFCURVE",
"478 571 CURVE SMOOTH",
"478 498 OFFCURVE",
"330 447 OFFCURVE",
"330 351 CURVE SMOOTH",
"330 296 OFFCURVE",
"373 264 OFFCURVE",
"466 229 CURVE SMOOTH",
"522 208 OFFCURVE",
"538 192 OFFCURVE",
"538 167 CURVE SMOOTH",
"538 132 OFFCURVE",
"513 114 OFFCURVE",
"473 114 CURVE SMOOTH",
"433 114 OFFCURVE",
"410 140 OFFCURVE",
"412 181 CURVE",
"255 181 LINE",
"249 61 OFFCURVE",
"324 -10 OFFCURVE",
"460 -10 CURVE SMOOTH"
);
}
);
};
color = -1;
guideLines = (
{
angle = 80.0045;
position = "{227, 261}";
}
);
layerId = "66953C5E-8AEB-4AF5-804F-512B0A9BA4E6";
paths = (
{
closed = 1;
nodes = (
"604 -10 OFFCURVE",
"706 69 OFFCURVE",
"706 187 CURVE SMOOTH",
"706 263 OFFCURVE",
"671 302 OFFCURVE",
"589 335 CURVE SMOOTH",
"515 364 OFFCURVE",
"506 373 OFFCURVE",
"506 388 CURVE SMOOTH",
"506 430 OFFCURVE",
"648 464 OFFCURVE",
"648 567 CURVE SMOOTH",
"648 654 OFFCURVE",
"561 732 OFFCURVE",
"415 732 CURVE SMOOTH",
"234 732 OFFCURVE",
"124 637 OFFCURVE",
"99 498 CURVE SMOOTH",
"11 0 LINE",
"181 0 LINE",
"267 486 LINE SMOOTH",
"279 551 OFFCURVE",
"319 590 OFFCURVE",
"392 590 CURVE SMOOTH",
"442 590 OFFCURVE",
"471 571 OFFCURVE",
"471 537 CURVE SMOOTH",
"471 472 OFFCURVE",
"330 447 OFFCURVE",
"330 351 CURVE SMOOTH",
"330 296 OFFCURVE",
"373 264 OFFCURVE",
"466 229 CURVE SMOOTH",
"522 208 OFFCURVE",
"538 192 OFFCURVE",
"538 167 CURVE SMOOTH",
"538 132 OFFCURVE",
"513 114 OFFCURVE",
"473 114 CURVE SMOOTH",
"433 114 OFFCURVE",
"410 140 OFFCURVE",
"412 181 CURVE",
"255 181 LINE",
"249 61 OFFCURVE",
"324 -10 OFFCURVE",
"460 -10 CURVE SMOOTH"
);
}
);
width = 750;
}
);
unicode = 00DF;
userData = {
com.schriftgestaltung.Glyphs.ColorIndex = 4;
};
},
{
glyphname = t;
lastChange = "2019-05-20 09:05:27 +0000";
layers = (
{
anchors = (
{
name = bottom;
position = "{163, 0}";
},
{
name = topright;
position = "{346, 700}";
}
);
background = {
paths = (
{
closed = 1;
nodes = (
"271 0 LINE",
"282 60 LINE",
"218 60 LINE SMOOTH",
"165 60 OFFCURVE",
"143 74 OFFCURVE",
"143 117 CURVE SMOOTH",
"143 126 OFFCURVE",
"144 136 OFFCURVE",
"146 148 CURVE SMOOTH",
"198 437 LINE",
"348 437 LINE",
"359 496 LINE",
"208 496 LINE",
"231 621 LINE",
"156 596 LINE",
"138 496 LINE",
"62 496 LINE",
"51 437 LINE",
"127 437 LINE",
"76 148 LINE SMOOTH",
"73 131 OFFCURVE",
"72 116 OFFCURVE",
"72 103 CURVE SMOOTH",
"72 28 OFFCURVE",
"116 0 OFFCURVE",
"196 0 CURVE SMOOTH"
);
}
);
};
color = -1;
guideLines = (
{
angle = 18.9118;
position = "{120, 596}";
},
{
angle = 259.439;
position = "{363, 517}";
},
{
angle = 259.439;
position = "{74, 560}";
},
{
position = "{101, 596}";
},
{
position = "{167, 621}";
},
{
angle = 79.7999;
position = "{172, 293}";
}
);
layerId = "973C19EE-3504-4BDF-BF6D-4817D3AD4E7D";
paths = (
{
closed = 1;
nodes = (
"271 0 LINE",
"282 60 LINE",
"218 60 LINE SMOOTH",
"165 60 OFFCURVE",
"143 74 OFFCURVE",
"143 117 CURVE SMOOTH",
"143 126 OFFCURVE",
"144 136 OFFCURVE",
"146 148 CURVE SMOOTH",
"198 436 LINE",
"348 436 LINE",
"359 496 LINE",
"208 496 LINE",
"229 611 LINE",
"168 611 LINE",
"138 496 LINE",
"62 496 LINE",
"51 436 LINE",
"127 436 LINE",
"76 148 LINE SMOOTH",
"73 131 OFFCURVE",
"72 116 OFFCURVE",
"72 103 CURVE SMOOTH",
"72 28 OFFCURVE",
"116 0 OFFCURVE",
"196 0 CURVE SMOOTH"
);
}
);
width = 356;
},
{
anchors = (
{
name = bottom;
position = "{205, 0}";
},
{
name = topright;
position = "{458, 700}";
}
);
background = {
paths = (
{
closed = 1;
nodes = (
"360 0 LINE",
"386 145 LINE",
"315 145 LINE SMOOTH",
"283 145 OFFCURVE",
"270 155 OFFCURVE",
"270 179 CURVE SMOOTH",
"270 183 OFFCURVE",
"270 187 OFFCURVE",
"271 192 CURVE SMOOTH",
"300 354 LINE",
"422 354 LINE",
"447 496 LINE",
"325 496 LINE",
"355 662 LINE",
"170 587 LINE",
"154 496 LINE",
"70 496 LINE",
"45 354 LINE",
"129 354 LINE",
"100 194 LINE SMOOTH",
"97 175 OFFCURVE",
"95 157 OFFCURVE",
"95 141 CURVE SMOOTH",
"95 37 OFFCURVE",
"163 0 OFFCURVE",
"263 0 CURVE SMOOTH"
);
}
);
};
color = -1;
guideLines = (
{
position = "{275, 642}";
}
);
layerId = "66953C5E-8AEB-4AF5-804F-512B0A9BA4E6";
paths = (
{
closed = 1;
nodes = (
"360 0 LINE",
"386 145 LINE",
"315 145 LINE SMOOTH",
"283 145 OFFCURVE",
"270 155 OFFCURVE",
"270 179 CURVE SMOOTH",
"270 183 OFFCURVE",
"270 187 OFFCURVE",
"271 192 CURVE SMOOTH",
"300 354 LINE",
"422 354 LINE",
"447 496 LINE",
"325 496 LINE",
"351 642 LINE",
"198 642 LINE",
"154 496 LINE",
"70 496 LINE",
"45 354 LINE",
"129 354 LINE",
"100 194 LINE SMOOTH",
"97 175 OFFCURVE",
"95 157 OFFCURVE",
"95 141 CURVE SMOOTH",
"95 37 OFFCURVE",
"163 0 OFFCURVE",
"263 0 CURVE SMOOTH"
);
}
);
width = 454;
}
);
leftKerningGroup = t;
rightKerningGroup = t;
unicode = 0074;
userData = {
com.schriftgestaltung.Glyphs.ColorIndex = 4;
com.typesupply.AccentFactory.yCoordinates = {
bottom = {
name = origin;
type = glyphMetric;
};
};
};
},
{
glyphname = tcaron;
lastChange = "2019-05-10 10:24:02 +0000";
layers = (
{
color = -1;
components = (
{
name = t;
}
);
layerId = "973C19EE-3504-4BDF-BF6D-4817D3AD4E7D";
paths = (
{
closed = 1;
nodes = (
"355 591 OFFCURVE",
"393 616 OFFCURVE",
"405 683 CURVE SMOOTH",
"409 708 OFFCURVE",
"410 730 OFFCURVE",
"410 763 CURVE",
"329 763 LINE",
"315 687 LINE",
"361 687 LINE",
"357 665 LINE SMOOTH",
"353 640 OFFCURVE",
"337 627 OFFCURVE",
"303 627 CURVE",
"297 591 LINE"
);
}
);
width = 356;
},
{
color = -1;
components = (
{
name = t;
}
);
layerId = "66953C5E-8AEB-4AF5-804F-512B0A9BA4E6";
paths = (
{
closed = 1;
nodes = (
"492 600 OFFCURVE",
"548 652 OFFCURVE",
"561 732 CURVE SMOOTH",
"567 768 OFFCURVE",
"566 798 OFFCURVE",
"560 840 CURVE",
"429 840 LINE",
"406 717 LINE",
"469 717 LINE",
"467 701 LINE SMOOTH",
"464 676 OFFCURVE",
"443 665 OFFCURVE",
"409 665 CURVE",
"397 600 LINE"
);
}
);
width = 454;
}
);
leftKerningGroup = t;
leftMetricsKey = t;
widthMetricsKey = t;
rightKerningGroup = t;
unicode = 0165;
userData = {
com.schriftgestaltung.Glyphs.ColorIndex = 5;
com.typesupply.AccentFactory.compileType = manual;
};
},
{
glyphname = tcedilla;
lastChange = "2019-05-10 10:24:02 +0000";
layers = (
{
color = -1;
components = (
{
name = t;
}
);
layerId = "973C19EE-3504-4BDF-BF6D-4817D3AD4E7D";
paths = (
{
closed = 1;
nodes = (
"157 -258 LINE SMOOTH",
"227 -258 OFFCURVE",
"280 -220 OFFCURVE",
"291 -160 CURVE SMOOTH",
"292 -154 OFFCURVE",
"293 -148 OFFCURVE",
"293 -142 CURVE SMOOTH",
"293 -92 OFFCURVE",
"250 -65 OFFCURVE",
"179 -67 CURVE",
"193 7 LINE",
"143 7 LINE",
"122 -112 LINE",
"169 -112 LINE SMOOTH",
"213 -112 OFFCURVE",
"232 -125 OFFCURVE",
"232 -149 CURVE SMOOTH",
"232 -190 OFFCURVE",
"206 -211 OFFCURVE",
"151 -211 CURVE SMOOTH",
"65 -211 LINE",
"57 -258 LINE"
);
}
);
width = 356;
},
{
color = -1;
components = (
{
name = t;
}
);
layerId = "66953C5E-8AEB-4AF5-804F-512B0A9BA4E6";
paths = (
{
closed = 1;
nodes = (
"195 -271 LINE SMOOTH",
"264 -271 OFFCURVE",
"340 -237 OFFCURVE",
"354 -155 CURVE SMOOTH",
"356 -146 OFFCURVE",
"356 -138 OFFCURVE",
"356 -131 CURVE SMOOTH",
"356 -66 OFFCURVE",
"299 -41 OFFCURVE",
"245 -41 CURVE",
"260 43 LINE",
"157 43 LINE",
"127 -126 LINE",
"198 -126 LINE SMOOTH",
"220 -126 OFFCURVE",
"234 -131 OFFCURVE",
"234 -147 CURVE SMOOTH",
"234 -170 OFFCURVE",
"215 -177 OFFCURVE",
"188 -177 CURVE SMOOTH",
"58 -177 LINE",
"41 -271 LINE"
);
}
);
width = 454;
}
);
leftKerningGroup = t;
leftMetricsKey = t;
widthMetricsKey = t;
rightKerningGroup = t;
unicode = 0163;
userData = {
com.schriftgestaltung.Glyphs.ColorIndex = 8;
};
},
{
glyphname = tcommaaccent;
lastChange = "2019-05-16 15:49:30 +0000";
layers = (
{
color = -1;
components = (
{
name = t;
}
);
layerId = "973C19EE-3504-4BDF-BF6D-4817D3AD4E7D";
paths = (
{
closed = 1;
nodes = (
"147 -226 OFFCURVE",
"188 -197 OFFCURVE",
"200 -119 CURVE SMOOTH",
"203 -100 OFFCURVE",
"204 -76 OFFCURVE",
"203 -52 CURVE",
"124 -52 LINE",
"112 -121 LINE",
"154 -121 LINE",
"152 -135 LINE SMOOTH",
"147 -171 OFFCURVE",
"130 -191 OFFCURVE",
"97 -191 CURVE",
"90 -226 LINE"
);
}
);
width = 356;
},
{
color = -1;
components = (
{
name = t;
}
);
layerId = "66953C5E-8AEB-4AF5-804F-512B0A9BA4E6";
paths = (
{
closed = 1;
nodes = (
"181 -310 OFFCURVE",
"238 -248 OFFCURVE",
"253 -158 CURVE SMOOTH",
"259 -122 OFFCURVE",
"260 -82 OFFCURVE",
"253 -40 CURVE",
"122 -40 LINE",
"100 -163 LINE",
"163 -163 LINE",
"161 -179 LINE SMOOTH",
"155 -224 OFFCURVE",
"132 -245 OFFCURVE",
"97 -245 CURVE",
"85 -310 LINE"
);
}
);
width = 454;
}
);
leftKerningGroup = t;
leftMetricsKey = t;
rightKerningGroup = t;
rightMetricsKey = t;
unicode = 021B;
userData = {
com.schriftgestaltung.Glyphs.ColorIndex = 8;
com.typesupply.AccentFactory.compileType = manual;
};
},
{
glyphname = u;
lastChange = "2019-10-15 13:38:09 +0000";
layers = (
{
anchors = (
{
name = bottom;
position = "{250, 0}";
},
{
name = ogonek;
position = "{447, 0}";
},
{
name = top;
position = "{314, 496}";
},
{
name = topright;
position = "{557, 496}";
}
);
background = {
anchors = (
{
name = bottom;
position = "{250, 0}";
},
{
name = ogonek;
position = "{447, 0}";
},
{
name = top;
position = "{314, 496}";
},
{
name = topright;
position = "{557, 496}";
}
);
components = (
{
name = n;
transform = "{-1, 0, 0, -1, 561, 496}";
}
);
};
color = -1;
layerId = "973C19EE-3504-4BDF-BF6D-4817D3AD4E7D";
paths = (
{
closed = 1;
nodes = (
"299 -12 OFFCURVE",
"389 49 OFFCURVE",
"422 147 CURVE",
"419 239 LINE",
"397 116 OFFCURVE",
"318 49 OFFCURVE",
"227 49 CURVE SMOOTH",
"156 49 OFFCURVE",
"117 86 OFFCURVE",
"117 161 CURVE SMOOTH",
"117 176 OFFCURVE",
"119 193 OFFCURVE",
"122 211 CURVE SMOOTH",
"172 496 LINE",
"102 496 LINE",
"50 203 LINE SMOOTH",
"46 183 OFFCURVE",
"45 165 OFFCURVE",
"45 147 CURVE SMOOTH",
"45 44 OFFCURVE",
"106 -12 OFFCURVE",
"204 -12 CURVE SMOOTH"
);
},
{
closed = 1;
nodes = (
"447 0 LINE",
"534 496 LINE",
"464 496 LINE",
"401 138 LINE",
"383 0 LINE"
);
}
);
width = 561;
},
{
anchors = (
{
name = bottom;
position = "{278, 0}";
},
{
name = ogonek;
position = "{538, 0}";
},
{
name = top;
position = "{365, 496}";
},
{
name = topright;
position = "{633, 496}";
}
);
background = {
anchors = (
{
name = bottom;
position = "{278, 0}";
},
{
name = ogonek;
position = "{546, 0}";
},
{
name = top;
position = "{365, 496}";
},
{
name = topright;
position = "{633, 496}";
}
);
components = (
{
name = n;
transform = "{-1, 0, 0, -1, 644, 496}";
}
);
};
color = -1;
layerId = "66953C5E-8AEB-4AF5-804F-512B0A9BA4E6";
paths = (
{
closed = 1;
nodes = (
"305 -12 OFFCURVE",
"371 41 OFFCURVE",
"408 110 CURVE",
"409 241 LINE",
"397 173 OFFCURVE",
"350 131 OFFCURVE",
"294 131 CURVE SMOOTH",
"242 131 OFFCURVE",
"221 158 OFFCURVE",
"221 204 CURVE SMOOTH",
"221 215 OFFCURVE",
"223 227 OFFCURVE",
"225 241 CURVE SMOOTH",
"270 496 LINE",
"100 496 LINE",
"52 226 LINE SMOOTH",
"48 201 OFFCURVE",
"45 178 OFFCURVE",
"45 157 CURVE SMOOTH",
"45 49 OFFCURVE",
"102 -12 OFFCURVE",
"209 -12 CURVE SMOOTH"
);
},
{
closed = 1;
nodes = (
"538 0 LINE",
"625 496 LINE",
"454 496 LINE",
"383 93 LINE",
"389 0 LINE"
);
}
);
width = 644;
}
);
leftKerningGroup = u;
rightKerningGroup = u;
unicode = 0075;
userData = {
com.schriftgestaltung.Glyphs.ColorIndex = 4;
com.typesupply.AccentFactory.yCoordinates = {
bottom = {
name = origin;
type = glyphMetric;
};
top = {
name = xHeight;
type = fontInfo;
};
};
};
},
{
glyphname = v;
lastChange = "2019-05-10 10:24:02 +0000";
layers = (
{
color = -1;
layerId = "973C19EE-3504-4BDF-BF6D-4817D3AD4E7D";
paths = (
{
closed = 1;
nodes = (
"256 0 LINE",
"543 496 LINE",
"468 496 LINE",
"227 67 LINE",
"136 496 LINE",
"64 496 LINE",
"175 0 LINE"
);
}
);
width = 519;
},
{
color = -1;
layerId = "66953C5E-8AEB-4AF5-804F-512B0A9BA4E6";
paths = (
{
closed = 1;
nodes = (
"360 0 LINE",
"624 496 LINE",
"444 496 LINE",
"282 160 LINE",
"239 496 LINE",
"60 496 LINE",
"148 0 LINE"
);
}
);
width = 596;
}
);
unicode = 0076;
userData = {
com.schriftgestaltung.Glyphs.ColorIndex = 4;
com.typesupply.AccentFactory.yCoordinates = {
bottom = {
name = origin;
type = glyphMetric;
};
top = {
name = xHeight;
type = fontInfo;
};
};
};
},
{
glyphname = w;
lastChange = "2019-05-10 10:24:02 +0000";
layers = (
{
anchors = (
{
name = bottom;
position = "{319, 0}";
},
{
name = top;
position = "{407, 496}";
}
);
color = -1;
layerId = "973C19EE-3504-4BDF-BF6D-4817D3AD4E7D";
paths = (
{
closed = 1;
nodes = (
"193 0 LINE",
"408 451 LINE",
"390 451 LINE",
"447 0 LINE",
"518 0 LINE",
"750 496 LINE",
"679 496 LINE",
"484 67 LINE",
"502 67 LINE",
"447 496 LINE",
"367 496 LINE",
"160 67 LINE",
"178 67 LINE",
"135 496 LINE",
"64 496 LINE",
"122 0 LINE"
);
}
);
width = 726;
},
{
anchors = (
{
name = bottom;
position = "{387, 0}";
},
{
name = top;
position = "{475, 496}";
}
);
color = -1;
layerId = "66953C5E-8AEB-4AF5-804F-512B0A9BA4E6";
paths = (
{
closed = 1;
nodes = (
"297 0 LINE",
"485 418 LINE",
"437 418 LINE",
"479 0 LINE",
"657 0 LINE",
"890 496 LINE",
"722 496 LINE",
"561 85 LINE",
"603 86 LINE",
"569 496 LINE",
"381 496 LINE",
"203 86 LINE",
"245 85 LINE",
"228 496 LINE",
"60 496 LINE",
"119 0 LINE"
);
}
);
width = 862;
}
);
leftKerningGroup = w;
rightKerningGroup = w;
unicode = 0077;
userData = {
com.schriftgestaltung.Glyphs.ColorIndex = 4;
com.typemytype.robofont.layerData = {
b = {
anchors = (
);
components = (
);
contours = (
{
points = (
{
segmentType = line;
smooth = 0;
x = 211;
y = 0;
},
{
segmentType = line;
smooth = 0;
x = 225;
y = 0;
},
{
segmentType = line;
smooth = 0;
x = 405;
y = 569;
},
{
segmentType = line;
smooth = 0;
x = 373;
y = 569;
},
{
segmentType = line;
smooth = 0;
x = 555;
y = 0;
},
{
segmentType = line;
smooth = 0;
x = 569;
y = 0;
},
{
segmentType = line;
smooth = 0;
x = 747;
y = 540;
},
{
segmentType = line;
smooth = 0;
x = 716;
y = 540;
},
{
segmentType = line;
smooth = 0;
x = 552;
y = 32;
},
{
segmentType = line;
smooth = 0;
x = 560;
y = 32;
},
{
segmentType = line;
smooth = 0;
x = 401;
y = 540;
},
{
segmentType = line;
smooth = 0;
x = 386;
y = 540;
},
{
segmentType = line;
smooth = 0;
x = 214;
y = 32;
},
{
segmentType = line;
smooth = 0;
x = 222;
y = 32;
},
{
segmentType = line;
smooth = 0;
x = 56;
y = 540;
},
{
segmentType = line;
smooth = 0;
x = 30;
y = 540;
}
);
}
);
lib = {
};
name = w;
unicodes = (
);
width = 803;
};
};
com.typesupply.AccentFactory.yCoordinates = {
bottom = {
name = origin;
type = glyphMetric;
};
top = {
name = xHeight;
type = fontInfo;
};
};
};
},
{
glyphname = x;
lastChange = "2019-05-10 10:24:02 +0000";
layers = (
{
background = {
paths = (
{
closed = 1;
nodes = (
"353 0 LINE",
"123 496 LINE",
"54 496 LINE",
"284 0 LINE"
);
},
{
closed = 1;
nodes = (
"7 0 LINE",
"200 242 LINE",
"179 299 LINE",
"-67 0 LINE"
);
},
{
closed = 1;
nodes = (
"416 496 LINE",
"344 496 LINE",
"192 305 LINE",
"212 247 LINE"
);
}
);
};
color = -1;
layerId = "973C19EE-3504-4BDF-BF6D-4817D3AD4E7D";
paths = (
{
closed = 1;
nodes = (
"52 0 LINE",
"234 214 LINE",
"340 0 LINE",
"411 0 LINE",
"288 245 LINE",
"502 496 LINE",
"427 496 LINE",
"246 282 LINE",
"139 496 LINE",
"68 496 LINE",
"192 251 LINE",
"-23 0 LINE"
);
}
);
width = 479;
},
{
background = {
paths = (
{
closed = 1;
nodes = (
"457 0 LINE",
"193 496 LINE",
"17 496 LINE",
"281 0 LINE"
);
},
{
closed = 1;
nodes = (
"113 0 LINE",
"280 207 LINE",
"214 334 LINE",
"-71 0 LINE"
);
},
{
closed = 1;
nodes = (
"549 496 LINE",
"365 496 LINE",
"206 298 LINE",
"266 171 LINE"
);
}
);
};
color = -1;
layerId = "66953C5E-8AEB-4AF5-804F-512B0A9BA4E6";
paths = (
{
closed = 1;
nodes = (
"157 0 LINE",
"295 148 LINE",
"380 0 LINE",
"564 0 LINE",
"419 248 LINE",
"651 496 LINE",
"467 496 LINE",
"330 348 LINE",
"244 496 LINE",
"60 496 LINE",
"206 248 LINE",
"-27 0 LINE"
);
}
);
width = 624;
}
);
unicode = 0078;
userData = {
com.schriftgestaltung.Glyphs.ColorIndex = 4;
com.typesupply.AccentFactory.yCoordinates = {
bottom = {
name = origin;
type = glyphMetric;
};
top = {
name = xHeight;
type = fontInfo;
};
};
};
},
{
glyphname = y;
lastChange = "2019-05-10 10:29:47 +0000";
layers = (
{
anchors = (
{
name = top;
position = "{312, 496}";
}
);
background = {
paths = (
{
closed = 1;
nodes = (
"103 -220 LINE",
"557 496 LINE",
"485 496 LINE",
"247 116 LINE",
"157 496 LINE",
"84 496 LINE",
"197 42 LINE",
"30 -220 LINE"
);
}
);
};
color = -1;
layerId = "973C19EE-3504-4BDF-BF6D-4817D3AD4E7D";
paths = (
{
closed = 1;
nodes = (
"113 -220 LINE",
"567 496 LINE",
"495 496 LINE",
"242 98 LINE",
"137 496 LINE",
"64 496 LINE",
"185 53 LINE",
"213 53 LINE",
"40 -220 LINE"
);
}
);
width = 543;
},
{
anchors = (
{
name = top;
position = "{368, 496}";
}
);
background = {
paths = (
{
closed = 1;
nodes = (
"238 -220 LINE",
"670 496 LINE",
"486 496 LINE",
"329 203 LINE",
"271 496 LINE",
"89 496 LINE",
"205 19 LINE",
"56 -220 LINE"
);
}
);
};
color = -1;
layerId = "66953C5E-8AEB-4AF5-804F-512B0A9BA4E6";
paths = (
{
closed = 1;
nodes = (
"227 -220 LINE",
"659 496 LINE",
"475 496 LINE",
"304 184 LINE",
"244 496 LINE",
"58 496 LINE",
"163 19 LINE",
"194 19 LINE",
"45 -220 LINE"
);
}
);
width = 629;
}
);
leftKerningGroup = y;
rightKerningGroup = y;
unicode = 0079;
userData = {
com.schriftgestaltung.Glyphs.ColorIndex = 4;
com.typesupply.AccentFactory.yCoordinates = {
top = {
name = xHeight;
type = fontInfo;
};
};
};
},
{
glyphname = z;
lastChange = "2019-05-10 10:24:02 +0000";
layers = (
{
anchors = (
{
name = top;
position = "{270, 496}";
}
);
color = -1;
guideLines = (
{
angle = 259.2611;
position = "{358, 29}";
}
);
layerId = "973C19EE-3504-4BDF-BF6D-4817D3AD4E7D";
paths = (
{
closed = 1;
nodes = (
"352 0 LINE",
"363 58 LINE",
"77 58 LINE",
"436 438 LINE",
"447 496 LINE",
"91 496 LINE",
"80 438 LINE",
"356 438 LINE",
"-3 58 LINE",
"-14 0 LINE"
);
}
);
width = 445;
},
{
anchors = (
{
name = top;
position = "{295, 496}";
}
);
color = -1;
guideLines = (
{
angle = 79.5522;
position = "{432, 71}";
}
);
layerId = "66953C5E-8AEB-4AF5-804F-512B0A9BA4E6";
paths = (
{
closed = 1;
nodes = (
"419 0 LINE",
"445 141 LINE",
"202 141 LINE",
"485 360 LINE",
"510 496 LINE",
"84 496 LINE",
"59 355 LINE",
"289 355 LINE",
"11 136 LINE",
"-14 0 LINE"
);
}
);
width = 508;
}
);
leftKerningGroup = z;
rightKerningGroup = z;
unicode = 007A;
userData = {
com.schriftgestaltung.Glyphs.ColorIndex = 4;
com.typesupply.AccentFactory.yCoordinates = {
bottom = {
name = origin;
type = glyphMetric;
};
top = {
name = xHeight;
type = fontInfo;
};
};
};
},
{
glyphname = a.ss02;
lastChange = "2019-05-16 15:44:31 +0000";
layers = (
{
anchors = (
{
name = bottom;
position = "{256, 0}";
},
{
name = ogonek;
position = "{498, 0}";
},
{
name = top;
position = "{344, 496}";
}
);
background = {
anchors = (
{
name = bottom;
position = "{243, 0}";
},
{
name = ogonek;
position = "{433, 0}";
},
{
name = top;
position = "{331, 496}";
}
);
paths = (
{
closed = 1;
nodes = (
"433 0 LINE",
"486 305 LINE SMOOTH",
"489 322 OFFCURVE",
"491 339 OFFCURVE",
"491 354 CURVE SMOOTH",
"491 447 OFFCURVE",
"436 508 OFFCURVE",
"320 508 CURVE SMOOTH",
"221 508 OFFCURVE",
"111 451 OFFCURVE",
"80 344 CURVE",
"154 344 LINE",
"178 412 OFFCURVE",
"241 448 OFFCURVE",
"310 448 CURVE SMOOTH",
"379 448 OFFCURVE",
"419 411 OFFCURVE",
"419 342 CURVE SMOOTH",
"419 330 OFFCURVE",
"418 318 OFFCURVE",
"416 305 CURVE SMOOTH",
"363 0 LINE"
);
},
{
closed = 1;
nodes = (
"310 -12 OFFCURVE",
"383 74 OFFCURVE",
"415 158 CURVE",
"403 226 LINE",
"387 138 OFFCURVE",
"302 50 OFFCURVE",
"202 50 CURVE SMOOTH",
"135 50 OFFCURVE",
"99 80 OFFCURVE",
"99 126 CURVE SMOOTH",
"99 199 OFFCURVE",
"162 241 OFFCURVE",
"266 241 CURVE SMOOTH",
"435 241 LINE",
"446 301 LINE",
"272 301 LINE SMOOTH",
"124 301 OFFCURVE",
"25 226 OFFCURVE",
"25 114 CURVE SMOOTH",
"25 45 OFFCURVE",
"74 -12 OFFCURVE",
"184 -12 CURVE SMOOTH"
);
}
);
};
color = -1;
layerId = "973C19EE-3504-4BDF-BF6D-4817D3AD4E7D";
paths = (
{
closed = 1;
nodes = (
"343 -12 OFFCURVE",
"403 36 OFFCURVE",
"443 86 CURVE",
"432 0 LINE",
"498 0 LINE",
"586 496 LINE",
"520 496 LINE",
"500 408 LINE",
"473 469 OFFCURVE",
"416 508 OFFCURVE",
"327 508 CURVE SMOOTH",
"168 508 OFFCURVE",
"44 383 OFFCURVE",
"44 207 CURVE SMOOTH",
"44 87 OFFCURVE",
"119 -12 OFFCURVE",
"249 -12 CURVE SMOOTH"
);
},
{
closed = 1;
nodes = (
"173 49 OFFCURVE",
"116 119 OFFCURVE",
"116 212 CURVE SMOOTH",
"116 347 OFFCURVE",
"205 447 OFFCURVE",
"326 447 CURVE SMOOTH",
"417 447 OFFCURVE",
"472 387 OFFCURVE",
"472 294 CURVE SMOOTH",
"472 159 OFFCURVE",
"385 49 OFFCURVE",
"264 49 CURVE SMOOTH"
);
}
);
width = 612;
},
{
anchors = (
{
name = bottom;
position = "{287, 0}";
},
{
name = ogonek;
position = "{561, 0}";
},
{
name = top;
position = "{375, 496}";
}
);
background = {
anchors = (
{
name = bottom;
position = "{260, 0}";
},
{
name = ogonek;
position = "{515, 0}";
},
{
name = top;
position = "{348, 496}";
}
);
paths = (
{
closed = 1;
nodes = (
"515 0 LINE",
"569 305 LINE SMOOTH",
"572 319 OFFCURVE",
"573 333 OFFCURVE",
"573 346 CURVE SMOOTH",
"573 455 OFFCURVE",
"486 508 OFFCURVE",
"357 508 CURVE SMOOTH",
"216 508 OFFCURVE",
"109 431 OFFCURVE",
"80 321 CURVE",
"243 321 LINE",
"256 355 OFFCURVE",
"292 371 OFFCURVE",
"332 371 CURVE SMOOTH",
"367 371 OFFCURVE",
"399 357 OFFCURVE",
"399 319 CURVE SMOOTH",
"399 315 OFFCURVE",
"399 310 OFFCURVE",
"396 295 CURVE SMOOTH",
"344 0 LINE"
);
},
{
closed = 1;
nodes = (
"290 -12 OFFCURVE",
"370 54 OFFCURVE",
"403 138 CURVE",
"393 276 LINE",
"377 187 OFFCURVE",
"329 116 OFFCURVE",
"251 116 CURVE SMOOTH",
"227 116 OFFCURVE",
"205 124 OFFCURVE",
"205 149 CURVE SMOOTH",
"205 173 OFFCURVE",
"230 192 OFFCURVE",
"269 192 CURVE SMOOTH",
"408 192 LINE",
"424 287 LINE",
"264 287 LINE SMOOTH",
"114 287 OFFCURVE",
"19 230 OFFCURVE",
"19 121 CURVE SMOOTH",
"19 51 OFFCURVE",
"69 -12 OFFCURVE",
"183 -12 CURVE SMOOTH"
);
}
);
};
color = -1;
layerId = "66953C5E-8AEB-4AF5-804F-512B0A9BA4E6";
paths = (
{
closed = 1;
nodes = (
"313 -12 OFFCURVE",
"365 20 OFFCURVE",
"400 60 CURVE",
"412 0 LINE",
"561 0 LINE",
"648 496 LINE",
"499 496 LINE",
"468 443 LINE",
"445 478 OFFCURVE",
"401 508 OFFCURVE",
"323 508 CURVE SMOOTH",
"169 508 OFFCURVE",
"45 376 OFFCURVE",
"45 208 CURVE SMOOTH",
"45 82 OFFCURVE",
"121 -12 OFFCURVE",
"238 -12 CURVE SMOOTH"
);
},
{
closed = 1;
nodes = (
"255 137 OFFCURVE",
"222 179 OFFCURVE",
"222 231 CURVE SMOOTH",
"222 301 OFFCURVE",
"276 359 OFFCURVE",
"348 359 CURVE SMOOTH",
"406 359 OFFCURVE",
"443 321 OFFCURVE",
"443 269 CURVE SMOOTH",
"443 199 OFFCURVE",
"385 137 OFFCURVE",
"313 137 CURVE SMOOTH"
);
}
);
width = 667;
}
);
leftKerningGroup = o;
leftMetricsKey = o;
rightKerningGroup = u;
rightMetricsKey = u;
userData = {
com.schriftgestaltung.Glyphs.ColorIndex = 4;
com.typemytype.robofont.guides = (
{
angle = 90;
isGlobal = 0;
magnetic = 5;
x = 306;
y = 501;
},
{
angle = 0;
isGlobal = 0;
magnetic = 5;
x = 88;
y = 270;
}
);
com.typesupply.AccentFactory.yCoordinates = {
bottom = {
name = origin;
type = glyphMetric;
};
top = {
name = xHeight;
type = fontInfo;
};
};
};
},
